<svg width="43" height="38" viewBox="0 0 43 38" fill="none" xmlns="http://www.w3.org/2000/svg">
<path d="M10.6625 8.4375C10.6625 11.2818 12.9682 13.5875 15.8125 13.5875V16.7875C11.2009 16.7875 7.4625 13.0491 7.4625 8.4375H10.6625ZM15.8125 13.5875C18.6568 13.5875 20.9625 11.2818 20.9625 8.4375H24.1625C24.1625 13.0491 20.4241 16.7875 15.8125 16.7875V13.5875ZM20.9625 8.4375C20.9625 5.59323 18.6568 3.2875 15.8125 3.2875V0.0875C20.4241 0.0875 24.1625 3.82592 24.1625 8.4375H20.9625ZM15.8125 3.2875C12.9682 3.2875 10.6625 5.59323 10.6625 8.4375H7.4625C7.4625 3.82592 11.2009 0.0875 15.8125 0.0875V3.2875ZM22.5625 23.5375H9.0625V20.3375H22.5625V23.5375ZM9.0625 33.8375H22.5625V37.0375H9.0625V33.8375ZM22.5625 33.8375C25.4068 33.8375 27.7125 31.5318 27.7125 28.6875H30.9125C30.9125 33.2991 27.1741 37.0375 22.5625 37.0375V33.8375ZM3.9125 28.6875C3.9125 31.5318 6.21823 33.8375 9.0625 33.8375V37.0375C4.45092 37.0375 0.7125 33.2991 0.7125 28.6875H3.9125ZM9.0625 23.5375C6.21823 23.5375 3.9125 25.8432 3.9125 28.6875H0.7125C0.7125 24.0759 4.45092 20.3375 9.0625 20.3375V23.5375ZM22.5625 20.3375C27.1741 20.3375 30.9125 24.0759 30.9125 28.6875H27.7125C27.7125 25.8432 25.4068 23.5375 22.5625 23.5375V20.3375Z" fill="#00C194"/>
<path d="M25.3702 14.3745C25.7251 13.8044 26.391 13.5 27.0625 13.5C29.8584 13.5 32.125 11.2334 32.125 8.4375C32.125 5.64156 29.8584 3.375 27.0625 3.375C26.391 3.375 25.7251 3.07064 25.3702 2.50053C25.3545 2.47532 25.3387 2.45017 25.3228 2.42509C24.732 1.49244 25.0313 0.171901 26.1287 0.0510823C26.4354 0.0173272 26.7469 0 27.0625 0C31.7224 0 35.5 3.7776 35.5 8.4375C35.5 13.0974 31.7224 16.875 27.0625 16.875C26.7469 16.875 26.4354 16.8577 26.1287 16.8239C25.0313 16.7031 24.732 15.3826 25.3228 14.4499C25.3387 14.4248 25.3545 14.3997 25.3702 14.3745Z" fill="#00C194"/>
<path d="M32.2189 32.213C32.4743 31.7868 32.9251 31.5 33.4219 31.5H33.8125C36.6084 31.5 38.875 29.2334 38.875 26.4375C38.875 23.6416 36.6084 21.375 33.8125 21.375H33.4219C32.9251 21.375 32.4743 21.0882 32.2189 20.662C31.5954 19.6219 32.272 18 33.4847 18H33.8125C38.4724 18 42.25 21.7776 42.25 26.4375C42.25 31.0974 38.4724 34.875 33.8125 34.875H33.4847C32.272 34.875 31.5954 33.2531 32.2189 32.213Z" fill="#00C194"/>
</svg>
