<svg width="175" height="105" viewBox="0 0 175 105" fill="none" xmlns="http://www.w3.org/2000/svg">
<path d="M5 102.5C5 103.881 3.88071 105 2.5 105C1.11929 105 0 103.881 0 102.5C0 101.119 1.11929 100 2.5 100C3.88071 100 5 101.119 5 102.5Z" fill="#CFD6D4"/>
<path d="M22 102.5C22 103.881 20.8807 105 19.5 105C18.1193 105 17 103.881 17 102.5C17 101.119 18.1193 100 19.5 100C20.8807 100 22 101.119 22 102.5Z" fill="#CFD6D4"/>
<path d="M39 102.5C39 103.881 37.8807 105 36.5 105C35.1193 105 34 103.881 34 102.5C34 101.119 35.1193 100 36.5 100C37.8807 100 39 101.119 39 102.5Z" fill="#CFD6D4"/>
<path d="M56 102.5C56 103.881 54.8807 105 53.5 105C52.1193 105 51 103.881 51 102.5C51 101.119 52.1193 100 53.5 100C54.8807 100 56 101.119 56 102.5Z" fill="#CFD6D4"/>
<path d="M73 102.5C73 103.881 71.8807 105 70.5 105C69.1193 105 68 103.881 68 102.5C68 101.119 69.1193 100 70.5 100C71.8807 100 73 101.119 73 102.5Z" fill="#CFD6D4"/>
<path d="M90 102.5C90 103.881 88.8807 105 87.5 105C86.1193 105 85 103.881 85 102.5C85 101.119 86.1193 100 87.5 100C88.8807 100 90 101.119 90 102.5Z" fill="#CFD6D4"/>
<path d="M107 102.5C107 103.881 105.881 105 104.5 105C103.119 105 102 103.881 102 102.5C102 101.119 103.119 100 104.5 100C105.881 100 107 101.119 107 102.5Z" fill="#CFD6D4"/>
<path d="M124 102.5C124 103.881 122.881 105 121.5 105C120.119 105 119 103.881 119 102.5C119 101.119 120.119 100 121.5 100C122.881 100 124 101.119 124 102.5Z" fill="#CFD6D4"/>
<path d="M141 102.5C141 103.881 139.881 105 138.5 105C137.119 105 136 103.881 136 102.5C136 101.119 137.119 100 138.5 100C139.881 100 141 101.119 141 102.5Z" fill="#CFD6D4"/>
<path d="M158 102.5C158 103.881 156.881 105 155.5 105C154.119 105 153 103.881 153 102.5C153 101.119 154.119 100 155.5 100C156.881 100 158 101.119 158 102.5Z" fill="#CFD6D4"/>
<path d="M175 102.5C175 103.881 173.881 105 172.5 105C171.119 105 170 103.881 170 102.5C170 101.119 171.119 100 172.5 100C173.881 100 175 101.119 175 102.5Z" fill="#CFD6D4"/>
<path d="M5 82.5C5 83.8807 3.88071 85 2.5 85C1.11929 85 0 83.8807 0 82.5C0 81.1193 1.11929 80 2.5 80C3.88071 80 5 81.1193 5 82.5Z" fill="#CFD6D4"/>
<path d="M22 82.5C22 83.8807 20.8807 85 19.5 85C18.1193 85 17 83.8807 17 82.5C17 81.1193 18.1193 80 19.5 80C20.8807 80 22 81.1193 22 82.5Z" fill="#CFD6D4"/>
<path d="M39 82.5C39 83.8807 37.8807 85 36.5 85C35.1193 85 34 83.8807 34 82.5C34 81.1193 35.1193 80 36.5 80C37.8807 80 39 81.1193 39 82.5Z" fill="#CFD6D4"/>
<path d="M56 82.5C56 83.8807 54.8807 85 53.5 85C52.1193 85 51 83.8807 51 82.5C51 81.1193 52.1193 80 53.5 80C54.8807 80 56 81.1193 56 82.5Z" fill="#CFD6D4"/>
<path d="M73 82.5C73 83.8807 71.8807 85 70.5 85C69.1193 85 68 83.8807 68 82.5C68 81.1193 69.1193 80 70.5 80C71.8807 80 73 81.1193 73 82.5Z" fill="#CFD6D4"/>
<path d="M90 82.5C90 83.8807 88.8807 85 87.5 85C86.1193 85 85 83.8807 85 82.5C85 81.1193 86.1193 80 87.5 80C88.8807 80 90 81.1193 90 82.5Z" fill="#CFD6D4"/>
<path d="M107 82.5C107 83.8807 105.881 85 104.5 85C103.119 85 102 83.8807 102 82.5C102 81.1193 103.119 80 104.5 80C105.881 80 107 81.1193 107 82.5Z" fill="#CFD6D4"/>
<path d="M124 82.5C124 83.8807 122.881 85 121.5 85C120.119 85 119 83.8807 119 82.5C119 81.1193 120.119 80 121.5 80C122.881 80 124 81.1193 124 82.5Z" fill="#CFD6D4"/>
<path d="M141 82.5C141 83.8807 139.881 85 138.5 85C137.119 85 136 83.8807 136 82.5C136 81.1193 137.119 80 138.5 80C139.881 80 141 81.1193 141 82.5Z" fill="#CFD6D4"/>
<path d="M158 82.5C158 83.8807 156.881 85 155.5 85C154.119 85 153 83.8807 153 82.5C153 81.1193 154.119 80 155.5 80C156.881 80 158 81.1193 158 82.5Z" fill="#CFD6D4"/>
<path d="M175 82.5C175 83.8807 173.881 85 172.5 85C171.119 85 170 83.8807 170 82.5C170 81.1193 171.119 80 172.5 80C173.881 80 175 81.1193 175 82.5Z" fill="#CFD6D4"/>
<path d="M5 62.5C5 63.8807 3.88071 65 2.5 65C1.11929 65 0 63.8807 0 62.5C0 61.1193 1.11929 60 2.5 60C3.88071 60 5 61.1193 5 62.5Z" fill="#CFD6D4"/>
<path d="M22 62.5C22 63.8807 20.8807 65 19.5 65C18.1193 65 17 63.8807 17 62.5C17 61.1193 18.1193 60 19.5 60C20.8807 60 22 61.1193 22 62.5Z" fill="#CFD6D4"/>
<path d="M39 62.5C39 63.8807 37.8807 65 36.5 65C35.1193 65 34 63.8807 34 62.5C34 61.1193 35.1193 60 36.5 60C37.8807 60 39 61.1193 39 62.5Z" fill="#CFD6D4"/>
<path d="M56 62.5C56 63.8807 54.8807 65 53.5 65C52.1193 65 51 63.8807 51 62.5C51 61.1193 52.1193 60 53.5 60C54.8807 60 56 61.1193 56 62.5Z" fill="#CFD6D4"/>
<path d="M73 62.5C73 63.8807 71.8807 65 70.5 65C69.1193 65 68 63.8807 68 62.5C68 61.1193 69.1193 60 70.5 60C71.8807 60 73 61.1193 73 62.5Z" fill="#CFD6D4"/>
<path d="M90 62.5C90 63.8807 88.8807 65 87.5 65C86.1193 65 85 63.8807 85 62.5C85 61.1193 86.1193 60 87.5 60C88.8807 60 90 61.1193 90 62.5Z" fill="#CFD6D4"/>
<path d="M107 62.5C107 63.8807 105.881 65 104.5 65C103.119 65 102 63.8807 102 62.5C102 61.1193 103.119 60 104.5 60C105.881 60 107 61.1193 107 62.5Z" fill="#CFD6D4"/>
<path d="M124 62.5C124 63.8807 122.881 65 121.5 65C120.119 65 119 63.8807 119 62.5C119 61.1193 120.119 60 121.5 60C122.881 60 124 61.1193 124 62.5Z" fill="#CFD6D4"/>
<path d="M141 62.5C141 63.8807 139.881 65 138.5 65C137.119 65 136 63.8807 136 62.5C136 61.1193 137.119 60 138.5 60C139.881 60 141 61.1193 141 62.5Z" fill="#CFD6D4"/>
<path d="M158 62.5C158 63.8807 156.881 65 155.5 65C154.119 65 153 63.8807 153 62.5C153 61.1193 154.119 60 155.5 60C156.881 60 158 61.1193 158 62.5Z" fill="#CFD6D4"/>
<path d="M175 62.5C175 63.8807 173.881 65 172.5 65C171.119 65 170 63.8807 170 62.5C170 61.1193 171.119 60 172.5 60C173.881 60 175 61.1193 175 62.5Z" fill="#CFD6D4"/>
<path d="M5 42.5C5 43.8807 3.88071 45 2.5 45C1.11929 45 0 43.8807 0 42.5C0 41.1193 1.11929 40 2.5 40C3.88071 40 5 41.1193 5 42.5Z" fill="#CFD6D4"/>
<path d="M22 42.5C22 43.8807 20.8807 45 19.5 45C18.1193 45 17 43.8807 17 42.5C17 41.1193 18.1193 40 19.5 40C20.8807 40 22 41.1193 22 42.5Z" fill="#CFD6D4"/>
<path d="M39 42.5C39 43.8807 37.8807 45 36.5 45C35.1193 45 34 43.8807 34 42.5C34 41.1193 35.1193 40 36.5 40C37.8807 40 39 41.1193 39 42.5Z" fill="#CFD6D4"/>
<path d="M56 42.5C56 43.8807 54.8807 45 53.5 45C52.1193 45 51 43.8807 51 42.5C51 41.1193 52.1193 40 53.5 40C54.8807 40 56 41.1193 56 42.5Z" fill="#CFD6D4"/>
<path d="M73 42.5C73 43.8807 71.8807 45 70.5 45C69.1193 45 68 43.8807 68 42.5C68 41.1193 69.1193 40 70.5 40C71.8807 40 73 41.1193 73 42.5Z" fill="#CFD6D4"/>
<path d="M90 42.5C90 43.8807 88.8807 45 87.5 45C86.1193 45 85 43.8807 85 42.5C85 41.1193 86.1193 40 87.5 40C88.8807 40 90 41.1193 90 42.5Z" fill="#CFD6D4"/>
<path d="M107 42.5C107 43.8807 105.881 45 104.5 45C103.119 45 102 43.8807 102 42.5C102 41.1193 103.119 40 104.5 40C105.881 40 107 41.1193 107 42.5Z" fill="#CFD6D4"/>
<path d="M124 42.5C124 43.8807 122.881 45 121.5 45C120.119 45 119 43.8807 119 42.5C119 41.1193 120.119 40 121.5 40C122.881 40 124 41.1193 124 42.5Z" fill="#CFD6D4"/>
<path d="M141 42.5C141 43.8807 139.881 45 138.5 45C137.119 45 136 43.8807 136 42.5C136 41.1193 137.119 40 138.5 40C139.881 40 141 41.1193 141 42.5Z" fill="#CFD6D4"/>
<path d="M158 42.5C158 43.8807 156.881 45 155.5 45C154.119 45 153 43.8807 153 42.5C153 41.1193 154.119 40 155.5 40C156.881 40 158 41.1193 158 42.5Z" fill="#CFD6D4"/>
<path d="M175 42.5C175 43.8807 173.881 45 172.5 45C171.119 45 170 43.8807 170 42.5C170 41.1193 171.119 40 172.5 40C173.881 40 175 41.1193 175 42.5Z" fill="#CFD6D4"/>
<path d="M5 22.5C5 23.8807 3.88071 25 2.5 25C1.11929 25 0 23.8807 0 22.5C0 21.1193 1.11929 20 2.5 20C3.88071 20 5 21.1193 5 22.5Z" fill="#CFD6D4"/>
<path d="M22 22.5C22 23.8807 20.8807 25 19.5 25C18.1193 25 17 23.8807 17 22.5C17 21.1193 18.1193 20 19.5 20C20.8807 20 22 21.1193 22 22.5Z" fill="#CFD6D4"/>
<path d="M39 22.5C39 23.8807 37.8807 25 36.5 25C35.1193 25 34 23.8807 34 22.5C34 21.1193 35.1193 20 36.5 20C37.8807 20 39 21.1193 39 22.5Z" fill="#CFD6D4"/>
<path d="M56 22.5C56 23.8807 54.8807 25 53.5 25C52.1193 25 51 23.8807 51 22.5C51 21.1193 52.1193 20 53.5 20C54.8807 20 56 21.1193 56 22.5Z" fill="#CFD6D4"/>
<path d="M73 22.5C73 23.8807 71.8807 25 70.5 25C69.1193 25 68 23.8807 68 22.5C68 21.1193 69.1193 20 70.5 20C71.8807 20 73 21.1193 73 22.5Z" fill="#CFD6D4"/>
<path d="M90 22.5C90 23.8807 88.8807 25 87.5 25C86.1193 25 85 23.8807 85 22.5C85 21.1193 86.1193 20 87.5 20C88.8807 20 90 21.1193 90 22.5Z" fill="#CFD6D4"/>
<path d="M107 22.5C107 23.8807 105.881 25 104.5 25C103.119 25 102 23.8807 102 22.5C102 21.1193 103.119 20 104.5 20C105.881 20 107 21.1193 107 22.5Z" fill="#CFD6D4"/>
<path d="M124 22.5C124 23.8807 122.881 25 121.5 25C120.119 25 119 23.8807 119 22.5C119 21.1193 120.119 20 121.5 20C122.881 20 124 21.1193 124 22.5Z" fill="#CFD6D4"/>
<path d="M141 22.5C141 23.8807 139.881 25 138.5 25C137.119 25 136 23.8807 136 22.5C136 21.1193 137.119 20 138.5 20C139.881 20 141 21.1193 141 22.5Z" fill="#CFD6D4"/>
<path d="M158 22.5C158 23.8807 156.881 25 155.5 25C154.119 25 153 23.8807 153 22.5C153 21.1193 154.119 20 155.5 20C156.881 20 158 21.1193 158 22.5Z" fill="#CFD6D4"/>
<path d="M175 22.5C175 23.8807 173.881 25 172.5 25C171.119 25 170 23.8807 170 22.5C170 21.1193 171.119 20 172.5 20C173.881 20 175 21.1193 175 22.5Z" fill="#CFD6D4"/>
<path d="M5 2.5C5 3.88071 3.88071 5 2.5 5C1.11929 5 0 3.88071 0 2.5C0 1.11929 1.11929 0 2.5 0C3.88071 0 5 1.11929 5 2.5Z" fill="#CFD6D4"/>
<path d="M22 2.5C22 3.88071 20.8807 5 19.5 5C18.1193 5 17 3.88071 17 2.5C17 1.11929 18.1193 0 19.5 0C20.8807 0 22 1.11929 22 2.5Z" fill="#CFD6D4"/>
<path d="M39 2.5C39 3.88071 37.8807 5 36.5 5C35.1193 5 34 3.88071 34 2.5C34 1.11929 35.1193 0 36.5 0C37.8807 0 39 1.11929 39 2.5Z" fill="#CFD6D4"/>
<path d="M56 2.5C56 3.88071 54.8807 5 53.5 5C52.1193 5 51 3.88071 51 2.5C51 1.11929 52.1193 0 53.5 0C54.8807 0 56 1.11929 56 2.5Z" fill="#CFD6D4"/>
<path d="M73 2.5C73 3.88071 71.8807 5 70.5 5C69.1193 5 68 3.88071 68 2.5C68 1.11929 69.1193 0 70.5 0C71.8807 0 73 1.11929 73 2.5Z" fill="#CFD6D4"/>
<path d="M90 2.5C90 3.88071 88.8807 5 87.5 5C86.1193 5 85 3.88071 85 2.5C85 1.11929 86.1193 0 87.5 0C88.8807 0 90 1.11929 90 2.5Z" fill="#CFD6D4"/>
<path d="M107 2.5C107 3.88071 105.881 5 104.5 5C103.119 5 102 3.88071 102 2.5C102 1.11929 103.119 0 104.5 0C105.881 0 107 1.11929 107 2.5Z" fill="#CFD6D4"/>
<path d="M124 2.5C124 3.88071 122.881 5 121.5 5C120.119 5 119 3.88071 119 2.5C119 1.11929 120.119 0 121.5 0C122.881 0 124 1.11929 124 2.5Z" fill="#CFD6D4"/>
<path d="M141 2.5C141 3.88071 139.881 5 138.5 5C137.119 5 136 3.88071 136 2.5C136 1.11929 137.119 0 138.5 0C139.881 0 141 1.11929 141 2.5Z" fill="#CFD6D4"/>
<path d="M158 2.5C158 3.88071 156.881 5 155.5 5C154.119 5 153 3.88071 153 2.5C153 1.11929 154.119 0 155.5 0C156.881 0 158 1.11929 158 2.5Z" fill="#CFD6D4"/>
<path d="M175 2.5C175 3.88071 173.881 5 172.5 5C171.119 5 170 3.88071 170 2.5C170 1.11929 171.119 0 172.5 0C173.881 0 175 1.11929 175 2.5Z" fill="#CFD6D4"/>
</svg>
