<svg width="24" height="24" viewBox="0 0 24 24" fill="none" xmlns="http://www.w3.org/2000/svg">
<g clip-path="url(#clip0_408_81)">
<path d="M16.5 23.9998C9.25199 23.9998 -1.17624e-05 14.7479 -1.17624e-05 7.49986C-0.00694379 6.71968 0.141279 5.94589 0.436041 5.2235C0.730803 4.5011 1.16622 3.8445 1.71699 3.29187L4.88699 0.121873L11.151 6.38687L7.74499 9.79286C8.97237 12.7074 11.2882 15.0282 14.2 16.2619L17.614 12.8479L23.88 19.1129L20.708 22.2848C20.1552 22.8352 19.4985 23.2702 18.7761 23.5646C18.0537 23.8591 17.28 24.007 16.5 23.9998ZM4.88699 2.95087L3.12999 4.70787C2.76595 5.0751 2.47857 5.51106 2.28458 5.99038C2.09058 6.4697 1.99384 6.98281 1.99999 7.49986C1.99999 13.7339 10.266 21.9998 16.5 21.9998C17.0168 22.0058 17.5297 21.9092 18.009 21.7156C18.4882 21.5219 18.9243 21.2352 19.292 20.8718L21.051 19.1129L17.613 15.6759L14.686 18.5999L14.08 18.3679C12.1502 17.6497 10.3973 16.5251 8.94009 15.0703C7.48288 13.6155 6.35538 11.8645 5.63399 9.93586L5.38799 9.32286L8.32299 6.38687L4.88699 2.95087ZM17.187 10.6889L18.56 9.31786L17 7.75786V4.99987H15V8.49986L17.187 10.6889ZM11.565 3.97287C12.1097 3.37076 12.7711 2.88565 13.509 2.54699C14.2469 2.20834 15.046 2.02321 15.8576 2.00286C16.6693 1.9825 17.4766 2.12733 18.2306 2.42857C18.9846 2.7298 19.6694 3.18115 20.2436 3.75519C20.8178 4.32924 21.2693 5.014 21.5707 5.7679C21.8721 6.5218 22.0172 7.3291 21.997 8.14077C21.9768 8.95244 21.7919 9.75154 21.4534 10.4895C21.1149 11.2275 20.63 11.889 20.028 12.4339L21.441 13.8479C22.2279 13.1171 22.8594 12.2352 23.2978 11.2549C23.7361 10.2745 23.9723 9.21587 23.9921 8.14217C24.012 7.06847 23.8152 6.00179 23.4134 5.00589C23.0117 4.00999 22.4132 3.10533 21.6539 2.34598C20.8945 1.58663 19.9899 0.988185 18.994 0.586426C17.9981 0.184668 16.9314 -0.0121579 15.8577 0.00771576C14.784 0.0275894 13.7253 0.263754 12.745 0.702092C11.7646 1.14043 10.8827 1.77194 10.152 2.55887L11.565 3.97287Z" fill="white"/>
</g>
<defs>
<clipPath id="clip0_408_81">
<rect width="24" height="24" fill="white"/>
</clipPath>
</defs>
</svg>
