<svg width="41" height="48" viewBox="0 0 41 48" fill="none" xmlns="http://www.w3.org/2000/svg">
<circle cx="20" cy="28" r="19" stroke="#E5E5E5" stroke-width="2"/>
<path d="M19.7398 24.0683H11.701L13.9308 22.1922C14.188 21.9759 14.3326 21.6824 14.3327 21.3764C14.3328 21.0703 14.1884 20.7768 13.9312 20.5603C13.6741 20.3439 13.3253 20.2222 12.9616 20.2222C12.5978 20.2221 12.249 20.3436 11.9917 20.56L8.71326 23.3184C8.11423 23.8238 7.77783 24.5084 7.77783 25.2222C7.77783 25.9359 8.11423 26.6206 8.71326 27.126L11.9917 29.8844C12.249 30.1007 12.5978 30.2222 12.9616 30.2222C13.3253 30.2221 13.6741 30.1005 13.9312 29.884C14.1884 29.6675 14.3328 29.374 14.3327 29.068C14.3326 28.7619 14.188 28.4685 13.9308 28.2521L11.701 26.376H19.7398C20.1035 26.376 20.4523 26.2544 20.7095 26.038C20.9667 25.8217 21.1112 25.5282 21.1112 25.2222C21.1112 24.9162 20.9667 24.6227 20.7095 24.4063C20.4523 24.1899 20.1035 24.0683 19.7398 24.0683Z" fill="#E5E5E5"/>
<path d="M19.1491 28.94H27.1879L24.9581 26.8555C24.7009 26.6151 24.5563 26.289 24.5562 25.9489C24.5561 25.6089 24.7005 25.2827 24.9577 25.0422C25.2148 24.8017 25.5636 24.6666 25.9274 24.6665C26.2911 24.6664 26.64 24.8014 26.8972 25.0418L30.1757 28.1067C30.7747 28.6683 31.1111 29.429 31.1111 30.2221C31.1111 31.0151 30.7747 31.7758 30.1757 32.3374L26.8972 35.4023C26.64 35.6427 26.2911 35.7777 25.9274 35.7776C25.5636 35.7775 25.2148 35.6424 24.9577 35.4019C24.7005 35.1614 24.5561 34.8352 24.5562 34.4952C24.5563 34.1551 24.7009 33.829 24.9581 33.5887L27.1879 31.5041H19.1491C18.7854 31.5041 18.4366 31.369 18.1794 31.1286C17.9222 30.8882 17.7778 30.5621 17.7778 30.2221C17.7778 29.882 17.9222 29.556 18.1794 29.3155C18.4366 29.0751 18.7854 28.94 19.1491 28.94Z" fill="#E5E5E5"/>
<circle cx="31" cy="10" r="10" fill="#E5E5E5"/>
<path d="M27.6 9.836C27.6 8.444 27.844 7.372 28.332 6.62C28.828 5.868 29.512 5.492 30.384 5.492C31.256 5.492 31.936 5.868 32.424 6.62C32.92 7.372 33.168 8.444 33.168 9.836C33.168 11.228 32.92 12.3 32.424 13.052C31.936 13.804 31.256 14.18 30.384 14.18C29.512 14.18 28.828 13.804 28.332 13.052C27.844 12.3 27.6 11.228 27.6 9.836ZM31.992 9.836C31.992 9.38 31.964 8.948 31.908 8.54C31.86 8.132 31.772 7.776 31.644 7.472C31.524 7.168 31.36 6.928 31.152 6.752C30.944 6.568 30.688 6.476 30.384 6.476C30.08 6.476 29.824 6.568 29.616 6.752C29.408 6.928 29.24 7.168 29.112 7.472C28.992 7.776 28.904 8.132 28.848 8.54C28.8 8.948 28.776 9.38 28.776 9.836C28.776 10.292 28.8 10.724 28.848 11.132C28.904 11.54 28.992 11.896 29.112 12.2C29.24 12.504 29.408 12.748 29.616 12.932C29.824 13.108 30.08 13.196 30.384 13.196C30.688 13.196 30.944 13.108 31.152 12.932C31.36 12.748 31.524 12.504 31.644 12.2C31.772 11.896 31.86 11.54 31.908 11.132C31.964 10.724 31.992 10.292 31.992 9.836Z" fill="white"/>
</svg>
