<svg width="41" height="48" viewBox="0 0 41 48" fill="none" xmlns="http://www.w3.org/2000/svg">
<circle cx="20" cy="28" r="19" stroke="#00C194" stroke-width="2"/>
<circle cx="31" cy="10" r="10" fill="#00C194"/>
<path d="M26.9263 22.7173C24.9811 20.7336 22.7287 21.5702 21.334 22.4549C20.5459 22.9548 19.4542 22.9548 18.6662 22.4549C17.2714 21.5702 15.019 20.7336 13.0739 22.7173C8.45634 27.4261 16.375 36.5 20.0001 36.5C23.6252 36.5 31.5438 27.4261 26.9263 22.7173Z" stroke="#00C194" stroke-width="1.5" stroke-linecap="round"/>
<path d="M27.6 9.836C27.6 8.444 27.844 7.372 28.332 6.62C28.828 5.868 29.512 5.492 30.384 5.492C31.256 5.492 31.936 5.868 32.424 6.62C32.92 7.372 33.168 8.444 33.168 9.836C33.168 11.228 32.92 12.3 32.424 13.052C31.936 13.804 31.256 14.18 30.384 14.18C29.512 14.18 28.828 13.804 28.332 13.052C27.844 12.3 27.6 11.228 27.6 9.836ZM31.992 9.836C31.992 9.38 31.964 8.948 31.908 8.54C31.86 8.132 31.772 7.776 31.644 7.472C31.524 7.168 31.36 6.928 31.152 6.752C30.944 6.568 30.688 6.476 30.384 6.476C30.08 6.476 29.824 6.568 29.616 6.752C29.408 6.928 29.24 7.168 29.112 7.472C28.992 7.776 28.904 8.132 28.848 8.54C28.8 8.948 28.776 9.38 28.776 9.836C28.776 10.292 28.8 10.724 28.848 11.132C28.904 11.54 28.992 11.896 29.112 12.2C29.24 12.504 29.408 12.748 29.616 12.932C29.824 13.108 30.08 13.196 30.384 13.196C30.688 13.196 30.944 13.108 31.152 12.932C31.36 12.748 31.524 12.504 31.644 12.2C31.772 11.896 31.86 11.54 31.908 11.132C31.964 10.724 31.992 10.292 31.992 9.836Z" fill="white"/>
</svg>
