<svg width="40" height="40" viewBox="0 0 40 40" fill="none" xmlns="http://www.w3.org/2000/svg">
<circle cx="20" cy="20" r="19" stroke="#E6E6E6" stroke-width="2"/>
<path d="M17.3326 25.5618L16.7922 26.0819L16.7922 26.0819L17.3326 25.5618ZM17.326 25.555L16.7885 26.0781L17.326 25.555ZM16.7334 25.3029L16.7375 24.5529L16.7334 25.3029ZM23.2666 25.3029L23.2625 24.5529L23.2666 25.3029ZM22.6674 25.5618L22.1271 25.0417L22.6674 25.5618ZM22.674 25.555L23.2115 26.0781L22.674 25.555ZM22.4016 25.838L22.942 26.3581L22.4016 25.838ZM17.5984 25.838L18.1387 25.3179L18.1387 25.3179L17.5984 25.838ZM20 27.5965V28.3465V27.5965ZM12.5002 21.1812L11.7503 21.1893L12.5002 21.1812ZM16.6217 25.3026L16.6136 26.0526L16.6217 25.3026ZM27.4998 21.1812L28.2497 21.1893L27.4998 21.1812ZM23.3783 25.3026L23.3864 26.0526L23.3783 25.3026ZM25.3302 12.1762L24.9708 12.8344L25.3302 12.1762ZM26.9903 13.8363L26.3321 14.1957L26.9903 13.8363ZM14.6698 12.1762L15.0292 12.8344L14.6698 12.1762ZM13.0097 13.8363L13.6679 14.1957L13.0097 13.8363ZM14.3914 24.6274L13.9814 25.2554L14.3914 24.6274ZM25.6086 24.6274L26.0186 25.2554L25.6086 24.6274ZM22.5833 16.6665C22.5833 18.0932 21.4267 19.2498 20 19.2498V20.7498C22.2552 20.7498 24.0833 18.9217 24.0833 16.6665H22.5833ZM20 19.2498C18.5733 19.2498 17.4167 18.0932 17.4167 16.6665H15.9167C15.9167 18.9217 17.7448 20.7498 20 20.7498V19.2498ZM17.4167 16.6665C17.4167 15.2398 18.5733 14.0832 20 14.0832V12.5832C17.7448 12.5832 15.9167 14.4113 15.9167 16.6665H17.4167ZM20 14.0832C21.4267 14.0832 22.5833 15.2398 22.5833 16.6665H24.0833C24.0833 14.4113 22.2552 12.5832 20 12.5832V14.0832ZM19.3182 12.4165H20.6818V10.9165H19.3182V12.4165ZM26.75 18.4847V21.079H28.25V18.4847H26.75ZM13.25 21.0789V18.4847H11.75V21.0789H13.25ZM22.1271 25.0417L21.8613 25.3179L22.942 26.3581L23.2078 26.0819L22.1271 25.0417ZM18.1387 25.3179L17.8729 25.0417L16.7922 26.0819L17.058 26.3581L18.1387 25.3179ZM17.8729 25.0417C17.8703 25.039 17.8669 25.0354 17.8635 25.0319L16.7885 26.0781C16.7883 26.0779 16.7882 26.0778 16.7922 26.0819L17.8729 25.0417ZM16.7239 26.0529C16.7295 26.0529 16.7295 26.0529 16.7293 26.0529L16.7375 24.5529C16.7327 24.5529 16.7279 24.5529 16.7239 24.5529V26.0529ZM17.8635 25.0319C17.5675 24.7278 17.1619 24.5552 16.7375 24.5529L16.7293 26.0529C16.7516 26.053 16.7729 26.0621 16.7885 26.0781L17.8635 25.0319ZM23.2761 24.5529C23.2721 24.5529 23.2673 24.5529 23.2625 24.5529L23.2707 26.0529C23.2705 26.0529 23.2705 26.0529 23.2761 26.0529V24.5529ZM23.2078 26.0819C23.2115 26.078 23.2116 26.0779 23.2115 26.0781L22.1365 25.0319C22.1332 25.0354 22.13 25.0387 22.1271 25.0417L23.2078 26.0819ZM23.2625 24.5529C22.8381 24.5552 22.4325 24.7278 22.1365 25.0319L23.2115 26.0781C23.2271 26.0621 23.2484 26.053 23.2707 26.0529L23.2625 24.5529ZM21.8613 25.3179C21.2821 25.9196 20.8997 26.3145 20.5785 26.5685C20.2743 26.809 20.1175 26.8465 20 26.8465V28.3465C20.5916 28.3465 21.0714 28.0909 21.5087 27.7452C21.9289 27.413 22.3928 26.9287 22.942 26.3581L21.8613 25.3179ZM17.058 26.3581C17.6072 26.9287 18.0711 27.413 18.4913 27.7452C18.9286 28.0909 19.4084 28.3465 20 28.3465V26.8465C19.8825 26.8465 19.7257 26.809 19.4215 26.5685C19.1003 26.3145 18.7179 25.9196 18.1387 25.3179L17.058 26.3581ZM11.75 21.0789C11.75 21.1301 11.75 21.1617 11.7503 21.1893L13.2502 21.1731C13.25 21.1557 13.25 21.1341 13.25 21.0789H11.75ZM16.7239 24.5529C16.6688 24.5529 16.6472 24.5529 16.6298 24.5527L16.6136 26.0526C16.6412 26.0529 16.6727 26.0529 16.7239 26.0529V24.5529ZM26.75 21.079C26.75 21.134 26.75 21.1557 26.7498 21.1731L28.2497 21.1893C28.25 21.1617 28.25 21.1302 28.25 21.079H26.75ZM23.2761 26.0529C23.3273 26.0529 23.3588 26.0529 23.3864 26.0526L23.3702 24.5527C23.3528 24.5529 23.3312 24.5529 23.2761 24.5529V26.0529ZM20.6818 12.4165C21.9333 12.4165 22.8241 12.4172 23.52 12.4774C24.2064 12.5368 24.6329 12.65 24.9708 12.8344L25.6896 11.5179C25.0941 11.1927 24.4347 11.051 23.6494 10.983C22.8737 10.9158 21.907 10.9165 20.6818 10.9165V12.4165ZM28.25 18.4847C28.25 17.2595 28.2507 16.2928 28.1835 15.5171C28.1155 14.7318 27.9738 14.0724 27.6486 13.4769L26.3321 14.1957C26.5165 14.5336 26.6297 14.9601 26.6891 15.6465C26.7493 16.3424 26.75 17.2332 26.75 18.4847H28.25ZM24.9708 12.8344C25.5456 13.1483 26.0182 13.6209 26.3321 14.1957L27.6486 13.4769C27.1969 12.6496 26.5169 11.9696 25.6896 11.5179L24.9708 12.8344ZM19.3182 10.9165C18.093 10.9165 17.1263 10.9158 16.3506 10.983C15.5653 11.051 14.9059 11.1927 14.3104 11.5179L15.0292 12.8344C15.3671 12.65 15.7936 12.5368 16.48 12.4774C17.1759 12.4172 18.0667 12.4165 19.3182 12.4165V10.9165ZM13.25 18.4847C13.25 17.2332 13.2507 16.3424 13.3109 15.6465C13.3703 14.9601 13.4835 14.5336 13.6679 14.1957L12.3514 13.4769C12.0262 14.0724 11.8845 14.7318 11.8165 15.5171C11.7493 16.2928 11.75 17.2595 11.75 18.4847H13.25ZM14.3104 11.5179C13.4831 11.9696 12.8031 12.6496 12.3514 13.4769L13.6679 14.1957C13.9818 13.6209 14.4544 13.1483 15.0292 12.8344L14.3104 11.5179ZM17.5 23.2498H22.5V21.7498H17.5V23.2498ZM17.5 21.7498C15.7646 21.7498 14.2838 22.8322 13.6923 24.356L15.0906 24.8988C15.4656 23.9327 16.404 23.2498 17.5 23.2498V21.7498ZM11.7503 21.1893C11.7687 22.8932 12.6532 24.3881 13.9814 25.2554L14.8015 23.9994C13.8755 23.3948 13.263 22.3559 13.2502 21.1731L11.7503 21.1893ZM13.9814 25.2554C14.7398 25.7506 15.6439 26.0421 16.6136 26.0526L16.6298 24.5527C15.9542 24.5454 15.3277 24.343 14.8015 23.9994L13.9814 25.2554ZM22.5 23.2498C23.596 23.2498 24.5344 23.9327 24.9094 24.8988L26.3077 24.356C25.7162 22.8322 24.2354 21.7498 22.5 21.7498V23.2498ZM26.7498 21.1731C26.737 22.3559 26.1245 23.3948 25.1985 23.9994L26.0186 25.2554C27.3468 24.3881 28.2313 22.8932 28.2497 21.1893L26.7498 21.1731ZM25.1985 23.9994C24.6723 24.343 24.0458 24.5454 23.3702 24.5527L23.3864 26.0526C24.3561 26.0421 25.2602 25.7506 26.0186 25.2554L25.1985 23.9994Z" fill="#E0E0E0"/>
</svg>
