<svg width="217" height="48" viewBox="0 0 217 48" fill="none" xmlns="http://www.w3.org/2000/svg">
<circle cx="20" cy="28" r="19" stroke="#E5E5E5" stroke-width="2"/>
<path d="M19.7398 24.0683H11.701L13.9308 22.1922C14.188 21.9759 14.3326 21.6824 14.3327 21.3764C14.3328 21.0703 14.1884 20.7768 13.9312 20.5603C13.6741 20.3439 13.3253 20.2222 12.9616 20.2222C12.5978 20.2221 12.249 20.3436 11.9917 20.56L8.71326 23.3184C8.11423 23.8238 7.77783 24.5084 7.77783 25.2222C7.77783 25.9359 8.11423 26.6206 8.71326 27.126L11.9917 29.8844C12.249 30.1007 12.5978 30.2222 12.9616 30.2222C13.3253 30.2221 13.6741 30.1005 13.9312 29.884C14.1884 29.6675 14.3328 29.374 14.3327 29.068C14.3326 28.7619 14.188 28.4685 13.9308 28.2521L11.701 26.376H19.7398C20.1035 26.376 20.4523 26.2544 20.7095 26.038C20.9667 25.8217 21.1112 25.5282 21.1112 25.2222C21.1112 24.9162 20.9667 24.6227 20.7095 24.4063C20.4523 24.1899 20.1035 24.0683 19.7398 24.0683Z" fill="#E5E5E5"/>
<path d="M19.1491 28.94H27.1879L24.9581 26.8555C24.7009 26.6151 24.5563 26.289 24.5562 25.9489C24.5561 25.6089 24.7005 25.2827 24.9577 25.0422C25.2148 24.8017 25.5636 24.6666 25.9274 24.6665C26.2911 24.6664 26.64 24.8014 26.8972 25.0418L30.1757 28.1067C30.7747 28.6683 31.1111 29.429 31.1111 30.2221C31.1111 31.0151 30.7747 31.7758 30.1757 32.3374L26.8972 35.4023C26.64 35.6427 26.2911 35.7777 25.9274 35.7776C25.5636 35.7775 25.2148 35.6424 24.9577 35.4019C24.7005 35.1614 24.5561 34.8352 24.5562 34.4952C24.5563 34.1551 24.7009 33.829 24.9581 33.5887L27.1879 31.5041H19.1491C18.7854 31.5041 18.4366 31.369 18.1794 31.1286C17.9222 30.8882 17.7778 30.5621 17.7778 30.2221C17.7778 29.882 17.9222 29.556 18.1794 29.3155C18.4366 29.0751 18.7854 28.94 19.1491 28.94Z" fill="#E5E5E5"/>
<circle cx="31" cy="10" r="10" fill="#E5E5E5"/>
<path d="M27.6 9.836C27.6 8.444 27.844 7.372 28.332 6.62C28.828 5.868 29.512 5.492 30.384 5.492C31.256 5.492 31.936 5.868 32.424 6.62C32.92 7.372 33.168 8.444 33.168 9.836C33.168 11.228 32.92 12.3 32.424 13.052C31.936 13.804 31.256 14.18 30.384 14.18C29.512 14.18 28.828 13.804 28.332 13.052C27.844 12.3 27.6 11.228 27.6 9.836ZM31.992 9.836C31.992 9.38 31.964 8.948 31.908 8.54C31.86 8.132 31.772 7.776 31.644 7.472C31.524 7.168 31.36 6.928 31.152 6.752C30.944 6.568 30.688 6.476 30.384 6.476C30.08 6.476 29.824 6.568 29.616 6.752C29.408 6.928 29.24 7.168 29.112 7.472C28.992 7.776 28.904 8.132 28.848 8.54C28.8 8.948 28.776 9.38 28.776 9.836C28.776 10.292 28.8 10.724 28.848 11.132C28.904 11.54 28.992 11.896 29.112 12.2C29.24 12.504 29.408 12.748 29.616 12.932C29.824 13.108 30.08 13.196 30.384 13.196C30.688 13.196 30.944 13.108 31.152 12.932C31.36 12.748 31.524 12.504 31.644 12.2C31.772 11.896 31.86 11.54 31.908 11.132C31.964 10.724 31.992 10.292 31.992 9.836Z" fill="white"/>
<circle cx="79" cy="28" r="19" stroke="#00C194" stroke-width="2"/>
<circle cx="90" cy="10" r="10" fill="#00C194"/>
<path d="M85.9263 22.7173C83.9811 20.7336 81.7287 21.5702 80.334 22.4549C79.5459 22.9548 78.4542 22.9548 77.6662 22.4549C76.2714 21.5702 74.019 20.7336 72.0739 22.7173C67.4563 27.4261 75.375 36.5 79.0001 36.5C82.6252 36.5 90.5438 27.4261 85.9263 22.7173Z" stroke="#00C194" stroke-width="1.5" stroke-linecap="round"/>
<path d="M86.6 9.836C86.6 8.444 86.844 7.372 87.332 6.62C87.828 5.868 88.512 5.492 89.384 5.492C90.256 5.492 90.936 5.868 91.424 6.62C91.92 7.372 92.168 8.444 92.168 9.836C92.168 11.228 91.92 12.3 91.424 13.052C90.936 13.804 90.256 14.18 89.384 14.18C88.512 14.18 87.828 13.804 87.332 13.052C86.844 12.3 86.6 11.228 86.6 9.836ZM90.992 9.836C90.992 9.38 90.964 8.948 90.908 8.54C90.86 8.132 90.772 7.776 90.644 7.472C90.524 7.168 90.36 6.928 90.152 6.752C89.944 6.568 89.688 6.476 89.384 6.476C89.08 6.476 88.824 6.568 88.616 6.752C88.408 6.928 88.24 7.168 88.112 7.472C87.992 7.776 87.904 8.132 87.848 8.54C87.8 8.948 87.776 9.38 87.776 9.836C87.776 10.292 87.8 10.724 87.848 11.132C87.904 11.54 87.992 11.896 88.112 12.2C88.24 12.504 88.408 12.748 88.616 12.932C88.824 13.108 89.08 13.196 89.384 13.196C89.688 13.196 89.944 13.108 90.152 12.932C90.36 12.748 90.524 12.504 90.644 12.2C90.772 11.896 90.86 11.54 90.908 11.132C90.964 10.724 90.992 10.292 90.992 9.836Z" fill="white"/>
<circle cx="138" cy="28" r="19" stroke="#E6E6E6" stroke-width="2"/>
<path d="M135.333 33.5618L134.792 34.0819L134.792 34.0819L135.333 33.5618ZM135.326 33.555L134.789 34.0781L135.326 33.555ZM134.733 33.3029L134.738 32.5529L134.733 33.3029ZM141.267 33.3029L141.262 32.5529L141.267 33.3029ZM140.667 33.5618L140.127 33.0417L140.667 33.5618ZM140.674 33.555L141.211 34.0781L140.674 33.555ZM140.402 33.838L140.942 34.3581L140.402 33.838ZM135.598 33.838L136.139 33.3179L136.139 33.3179L135.598 33.838ZM138 35.5965V36.3465V35.5965ZM130.5 29.1812L129.75 29.1893L130.5 29.1812ZM134.622 33.3026L134.614 34.0526L134.622 33.3026ZM145.5 29.1812L146.25 29.1893L145.5 29.1812ZM141.378 33.3026L141.386 34.0526L141.378 33.3026ZM143.33 20.1762L142.971 20.8344L143.33 20.1762ZM144.99 21.8363L144.332 22.1957L144.99 21.8363ZM132.67 20.1762L133.029 20.8344L132.67 20.1762ZM131.01 21.8363L131.668 22.1957L131.01 21.8363ZM132.391 32.6274L131.981 33.2554L132.391 32.6274ZM143.609 32.6274L144.019 33.2554L143.609 32.6274ZM140.583 24.6665C140.583 26.0932 139.427 27.2498 138 27.2498V28.7498C140.255 28.7498 142.083 26.9217 142.083 24.6665H140.583ZM138 27.2498C136.573 27.2498 135.417 26.0932 135.417 24.6665H133.917C133.917 26.9217 135.745 28.7498 138 28.7498V27.2498ZM135.417 24.6665C135.417 23.2398 136.573 22.0832 138 22.0832V20.5832C135.745 20.5832 133.917 22.4113 133.917 24.6665H135.417ZM138 22.0832C139.427 22.0832 140.583 23.2398 140.583 24.6665H142.083C142.083 22.4113 140.255 20.5832 138 20.5832V22.0832ZM137.318 20.4165H138.682V18.9165H137.318V20.4165ZM144.75 26.4847V29.079H146.25V26.4847H144.75ZM131.25 29.0789V26.4847H129.75V29.0789H131.25ZM140.127 33.0417L139.861 33.3179L140.942 34.3581L141.208 34.0819L140.127 33.0417ZM136.139 33.3179L135.873 33.0417L134.792 34.0819L135.058 34.3581L136.139 33.3179ZM135.873 33.0417C135.87 33.039 135.867 33.0354 135.863 33.0319L134.789 34.0781C134.788 34.0779 134.788 34.0778 134.792 34.0819L135.873 33.0417ZM134.724 34.0529C134.73 34.0529 134.73 34.0529 134.729 34.0529L134.738 32.5529C134.733 32.5529 134.728 32.5529 134.724 32.5529V34.0529ZM135.863 33.0319C135.568 32.7278 135.162 32.5552 134.738 32.5529L134.729 34.0529C134.752 34.053 134.773 34.0621 134.789 34.0781L135.863 33.0319ZM141.276 32.5529C141.272 32.5529 141.267 32.5529 141.262 32.5529L141.271 34.0529C141.27 34.0529 141.27 34.0529 141.276 34.0529V32.5529ZM141.208 34.0819C141.212 34.078 141.212 34.0779 141.211 34.0781L140.137 33.0319C140.133 33.0354 140.13 33.0387 140.127 33.0417L141.208 34.0819ZM141.262 32.5529C140.838 32.5552 140.432 32.7278 140.137 33.0319L141.211 34.0781C141.227 34.0621 141.248 34.053 141.271 34.0529L141.262 32.5529ZM139.861 33.3179C139.282 33.9196 138.9 34.3145 138.578 34.5685C138.274 34.809 138.117 34.8465 138 34.8465V36.3465C138.592 36.3465 139.071 36.0909 139.509 35.7452C139.929 35.413 140.393 34.9287 140.942 34.3581L139.861 33.3179ZM135.058 34.3581C135.607 34.9287 136.071 35.413 136.491 35.7452C136.929 36.0909 137.408 36.3465 138 36.3465V34.8465C137.883 34.8465 137.726 34.809 137.422 34.5685C137.1 34.3145 136.718 33.9196 136.139 33.3179L135.058 34.3581ZM129.75 29.0789C129.75 29.1301 129.75 29.1617 129.75 29.1893L131.25 29.1731C131.25 29.1557 131.25 29.1341 131.25 29.0789H129.75ZM134.724 32.5529C134.669 32.5529 134.647 32.5529 134.63 32.5527L134.614 34.0526C134.641 34.0529 134.673 34.0529 134.724 34.0529V32.5529ZM144.75 29.079C144.75 29.134 144.75 29.1557 144.75 29.1731L146.25 29.1893C146.25 29.1617 146.25 29.1302 146.25 29.079H144.75ZM141.276 34.0529C141.327 34.0529 141.359 34.0529 141.386 34.0526L141.37 32.5527C141.353 32.5529 141.331 32.5529 141.276 32.5529V34.0529ZM138.682 20.4165C139.933 20.4165 140.824 20.4172 141.52 20.4774C142.206 20.5368 142.633 20.65 142.971 20.8344L143.69 19.5179C143.094 19.1927 142.435 19.051 141.649 18.983C140.874 18.9158 139.907 18.9165 138.682 18.9165V20.4165ZM146.25 26.4847C146.25 25.2595 146.251 24.2928 146.183 23.5171C146.116 22.7318 145.974 22.0724 145.649 21.4769L144.332 22.1957C144.517 22.5336 144.63 22.9601 144.689 23.6465C144.749 24.3424 144.75 25.2332 144.75 26.4847H146.25ZM142.971 20.8344C143.546 21.1483 144.018 21.6209 144.332 22.1957L145.649 21.4769C145.197 20.6496 144.517 19.9696 143.69 19.5179L142.971 20.8344ZM137.318 18.9165C136.093 18.9165 135.126 18.9158 134.351 18.983C133.565 19.051 132.906 19.1927 132.31 19.5179L133.029 20.8344C133.367 20.65 133.794 20.5368 134.48 20.4774C135.176 20.4172 136.067 20.4165 137.318 20.4165V18.9165ZM131.25 26.4847C131.25 25.2332 131.251 24.3424 131.311 23.6465C131.37 22.9601 131.483 22.5336 131.668 22.1957L130.351 21.4769C130.026 22.0724 129.884 22.7318 129.817 23.5171C129.749 24.2928 129.75 25.2595 129.75 26.4847H131.25ZM132.31 19.5179C131.483 19.9696 130.803 20.6496 130.351 21.4769L131.668 22.1957C131.982 21.6209 132.454 21.1483 133.029 20.8344L132.31 19.5179ZM135.5 31.2498H140.5V29.7498H135.5V31.2498ZM135.5 29.7498C133.765 29.7498 132.284 30.8322 131.692 32.356L133.091 32.8988C133.466 31.9327 134.404 31.2498 135.5 31.2498V29.7498ZM129.75 29.1893C129.769 30.8932 130.653 32.3881 131.981 33.2554L132.801 31.9994C131.876 31.3948 131.263 30.3559 131.25 29.1731L129.75 29.1893ZM131.981 33.2554C132.74 33.7506 133.644 34.0421 134.614 34.0526L134.63 32.5527C133.954 32.5454 133.328 32.343 132.801 31.9994L131.981 33.2554ZM140.5 31.2498C141.596 31.2498 142.534 31.9327 142.909 32.8988L144.308 32.356C143.716 30.8322 142.235 29.7498 140.5 29.7498V31.2498ZM144.75 29.1731C144.737 30.3559 144.124 31.3948 143.199 31.9994L144.019 33.2554C145.347 32.3881 146.231 30.8932 146.25 29.1893L144.75 29.1731ZM143.199 31.9994C142.672 32.343 142.046 32.5454 141.37 32.5527L141.386 34.0526C142.356 34.0421 143.26 33.7506 144.019 33.2554L143.199 31.9994Z" fill="#E0E0E0"/>
<circle cx="196" cy="28" r="19" stroke="#E5E5E5" stroke-width="2"/>
<circle cx="207" cy="10" r="10" fill="#E5E5E5"/>
<path d="M203.6 9.836C203.6 8.444 203.844 7.372 204.332 6.62C204.828 5.868 205.512 5.492 206.384 5.492C207.256 5.492 207.936 5.868 208.424 6.62C208.92 7.372 209.168 8.444 209.168 9.836C209.168 11.228 208.92 12.3 208.424 13.052C207.936 13.804 207.256 14.18 206.384 14.18C205.512 14.18 204.828 13.804 204.332 13.052C203.844 12.3 203.6 11.228 203.6 9.836ZM207.992 9.836C207.992 9.38 207.964 8.948 207.908 8.54C207.86 8.132 207.772 7.776 207.644 7.472C207.524 7.168 207.36 6.928 207.152 6.752C206.944 6.568 206.688 6.476 206.384 6.476C206.08 6.476 205.824 6.568 205.616 6.752C205.408 6.928 205.24 7.168 205.112 7.472C204.992 7.776 204.904 8.132 204.848 8.54C204.8 8.948 204.776 9.38 204.776 9.836C204.776 10.292 204.8 10.724 204.848 11.132C204.904 11.54 204.992 11.896 205.112 12.2C205.24 12.504 205.408 12.748 205.616 12.932C205.824 13.108 206.08 13.196 206.384 13.196C206.688 13.196 206.944 13.108 207.152 12.932C207.36 12.748 207.524 12.504 207.644 12.2C207.772 11.896 207.86 11.54 207.908 11.132C207.964 10.724 207.992 10.292 207.992 9.836Z" fill="white"/>
<g clip-path="url(#clip0_408_1017)">
<path d="M193.5 36.3332C193.96 36.3332 194.333 35.9601 194.333 35.4998C194.333 35.0396 193.96 34.6665 193.5 34.6665C193.04 34.6665 192.667 35.0396 192.667 35.4998C192.667 35.9601 193.04 36.3332 193.5 36.3332Z" stroke="#E5E5E5" stroke-width="2" stroke-linecap="round" stroke-linejoin="round"/>
<path d="M202.667 36.3332C203.127 36.3332 203.5 35.9601 203.5 35.4998C203.5 35.0396 203.127 34.6665 202.667 34.6665C202.207 34.6665 201.833 35.0396 201.833 35.4998C201.833 35.9601 202.207 36.3332 202.667 36.3332Z" stroke="#E5E5E5" stroke-width="2" stroke-linecap="round" stroke-linejoin="round"/>
<path d="M186.833 18.8335H190.167L192.4 29.9918C192.476 30.3755 192.685 30.7201 192.99 30.9654C193.294 31.2107 193.676 31.341 194.067 31.3335H202.167C202.558 31.341 202.939 31.2107 203.244 30.9654C203.549 30.7201 203.757 30.3755 203.833 29.9918L205.167 23.0002H191" stroke="#E5E5E5" stroke-width="2" stroke-linecap="round" stroke-linejoin="round"/>
</g>
<defs>
<clipPath id="clip0_408_1017">
<rect width="20" height="20" fill="white" transform="translate(186 18)"/>
</clipPath>
</defs>
</svg>
