<svg width="186" height="91" viewBox="0 0 186 91" fill="none" xmlns="http://www.w3.org/2000/svg">
<path fill-rule="evenodd" clip-rule="evenodd" d="M13.9778 55.7942V60.831H9.78518V77.7596H4.76154V60.831H0.600098V55.7942H13.9778Z" fill="#D4D9D8"/>
<path fill-rule="evenodd" clip-rule="evenodd" d="M32.4944 60.9202H23.5158V64.2284H30.799V69.2652H23.5158V72.7228H32.4944V77.7596H18.4922V55.9122L32.4944 55.8833V60.9202Z" fill="#D4D9D8"/>
<path fill-rule="evenodd" clip-rule="evenodd" d="M47.207 77.7306C45.7998 77.7306 44.4287 77.4682 43.0887 76.9409C41.7513 76.4136 40.5482 75.6142 39.4772 74.5404C38.447 73.4883 37.6595 72.2988 37.1143 70.9794C36.5692 69.6576 36.2979 68.2611 36.2979 66.7925C36.2979 65.3022 36.5692 63.8961 37.1143 62.5742C37.6595 61.2524 38.447 60.075 39.4772 59.0422C40.5482 57.9683 41.756 57.1642 43.1032 56.6272C44.4503 56.0903 45.8238 55.823 47.2213 55.823C48.619 55.823 49.9853 56.0903 51.3229 56.6272C52.6604 57.1642 53.8634 57.9683 54.9344 59.0422L51.3972 62.5887C50.8235 62.0131 50.1679 61.5798 49.4354 61.2934C48.703 61.0044 47.9586 60.8599 47.207 60.8599C46.4554 60.8599 45.7157 61.0044 44.993 61.2934C44.2702 61.5822 43.6195 62.0131 43.0455 62.5887C42.4908 63.1641 42.0659 63.8118 41.7681 64.5269C41.4703 65.2419 41.3214 65.998 41.3214 66.7925C41.3214 67.587 41.4703 68.3383 41.7681 69.0437C42.0659 69.7491 42.4908 70.3896 43.0455 70.9651C43.6195 71.5405 44.2702 71.9739 44.993 72.2628C45.7157 72.5518 46.4554 72.6961 47.207 72.6961C47.961 72.6961 48.703 72.5518 49.4354 72.2628C50.1679 71.9739 50.8235 71.5429 51.3972 70.9651L54.9344 74.5429C53.8634 75.6167 52.6653 76.416 51.3373 76.9434C50.0117 77.4658 48.6334 77.7306 47.207 77.7306Z" fill="#D4D9D8"/>
<path fill-rule="evenodd" clip-rule="evenodd" d="M69.9451 55.8833H74.9687V77.7596H69.9451V69.5036H63.6441V77.7596H58.6182V55.8833H63.6441V64.4668H69.9451V55.8833Z" fill="#D4D9D8"/>
<path fill-rule="evenodd" clip-rule="evenodd" d="M96.072 55.8833H101.097V77.7596H96.072V69.5036H89.7705V77.7596H84.7471V55.8833H89.7705V64.4668H96.072V55.8833Z" fill="#D4D9D8"/>
<path fill-rule="evenodd" clip-rule="evenodd" d="M115.733 55.8521C117.239 55.8521 118.651 56.141 119.979 56.7165C121.303 57.2919 122.463 58.072 123.451 59.0568C124.442 60.0415 125.221 61.1972 125.795 62.5286C126.368 63.86 126.656 65.2806 126.656 66.7903C126.656 68.2998 126.368 69.7204 125.795 71.0519C125.221 72.3833 124.442 73.5414 123.451 74.5238C122.459 75.5061 121.303 76.2862 119.979 76.864C118.651 77.4395 117.239 77.7284 115.733 77.7284C114.227 77.7284 112.816 77.4395 111.488 76.864C110.165 76.2886 109.009 75.5086 108.029 74.5238C107.05 73.5389 106.276 72.3833 105.701 71.0519C105.126 69.7204 104.84 68.2998 104.84 66.7903C104.84 65.2806 105.126 63.86 105.701 62.5286C106.275 61.1972 107.047 60.039 108.029 59.0568C109.013 58.072 110.165 57.2943 111.488 56.7165C112.816 56.141 114.227 55.8521 115.733 55.8521ZM115.75 72.6939C116.562 72.6939 117.326 72.5398 118.039 72.2316C118.752 71.9235 119.377 71.5022 119.912 70.9652C120.447 70.4283 120.867 69.8022 121.175 69.0872C121.481 68.3721 121.636 67.6064 121.636 66.7927C121.636 65.9788 121.481 65.2133 121.175 64.4981C120.867 63.783 120.447 63.157 119.912 62.6201C119.377 62.0832 118.752 61.6618 118.039 61.3536C117.326 61.0455 116.562 60.8914 115.75 60.8914C114.939 60.8914 114.176 61.0455 113.463 61.3536C112.749 61.6618 112.124 62.0832 111.588 62.6201C111.054 63.157 110.633 63.783 110.326 64.4981C110.019 65.2133 109.865 65.9788 109.865 66.7927C109.865 67.6064 110.019 68.3721 110.326 69.0872C110.633 69.8022 111.054 70.4283 111.588 70.9652C112.124 71.5022 112.749 71.9235 113.463 72.2316C114.172 72.5398 114.937 72.6939 115.75 72.6939Z" fill="#D4D9D8"/>
<path fill-rule="evenodd" clip-rule="evenodd" d="M139.171 77.7597C138.061 77.7597 137.01 77.555 136.021 77.1481C135.028 76.7413 134.146 76.1586 133.374 75.405C132.581 74.6104 131.972 73.7171 131.547 72.7228C131.122 71.7284 130.898 70.6666 130.875 69.5326V55.8521H135.899V69.5037C135.899 70.3777 136.227 71.1434 136.879 71.7982C137.532 72.4147 138.306 72.7228 139.2 72.7228C139.637 72.7228 140.052 72.6337 140.448 72.4556C140.843 72.2774 141.189 72.039 141.487 71.7404C141.786 71.4419 142.014 71.0952 142.172 70.698C142.33 70.3006 142.41 69.8721 142.41 69.417V55.8545H147.433V69.3857C147.453 70.5174 147.251 71.5913 146.823 72.6048C146.398 73.6184 145.812 74.502 145.07 75.2581C144.329 76.0141 143.454 76.6135 142.455 77.0614C141.454 77.5093 140.39 77.7429 139.259 77.7621H139.171V77.7597Z" fill="#D4D9D8"/>
<path fill-rule="evenodd" clip-rule="evenodd" d="M159.619 78.1762C158.926 78.1762 158.237 78.0822 157.555 77.8921C156.871 77.7043 156.221 77.4106 155.607 77.0132C154.537 76.3175 153.705 75.4194 153.111 74.3167C152.514 73.214 152.219 72.0077 152.219 70.6955H157.243C157.243 71.2925 157.372 71.7524 157.63 72.0823C157.887 72.4098 158.115 72.6337 158.314 72.754C158.671 72.9925 159.055 73.1225 159.474 73.1417C159.89 73.1609 160.297 73.0816 160.693 72.9034C160.972 72.783 161.193 72.6361 161.364 72.4555C161.532 72.2774 161.661 72.104 161.75 71.933C161.839 71.7646 161.895 71.6007 161.913 71.4418C161.933 71.283 161.942 71.153 161.942 71.0543C161.942 70.9555 161.933 70.8255 161.913 70.6666C161.895 70.5076 161.839 70.3392 161.75 70.161C161.661 69.9828 161.532 69.8095 161.364 69.6385C161.195 69.47 160.972 69.3159 160.693 69.1763C160.476 69.0775 160.242 68.9884 159.995 68.909C159.747 68.8295 159.483 68.7404 159.206 68.6418C158.713 68.4828 158.196 68.3046 157.66 68.1048C157.125 67.905 156.589 67.6378 156.056 67.3006C155.363 66.8624 154.778 66.3159 154.303 65.6611C153.828 65.0061 153.487 64.3007 153.278 63.5447C153.069 62.7886 153 62.0085 153.069 61.2043C153.139 60.4002 153.362 59.6297 153.739 58.8953C154.097 58.2188 154.542 57.6338 155.077 57.1377C155.613 56.6418 156.205 56.2494 156.861 55.9604C157.515 55.6715 158.218 55.4981 158.972 55.4379C159.725 55.3777 160.488 55.4476 161.261 55.6474C162.014 55.8256 162.692 56.1097 163.302 56.4973C163.916 56.8849 164.443 57.3521 164.881 57.8986C165.327 58.4451 165.669 59.0567 165.902 59.7308C166.139 60.4074 166.259 61.1129 166.259 61.8472H161.261C161.261 61.3898 161.116 61.0719 160.828 60.8937C160.539 60.7155 160.287 60.5952 160.069 60.535C160.031 60.535 159.935 60.5205 159.786 60.4893C159.637 60.4604 159.469 60.4604 159.281 60.4893C159.095 60.5182 158.9 60.588 158.703 60.6987C158.506 60.807 158.345 60.9828 158.228 61.2213C158.069 61.539 158.04 61.8714 158.139 62.2204C158.237 62.5671 158.436 62.8416 158.733 63.039C159.013 63.198 159.317 63.3424 159.656 63.4724C159.993 63.6024 160.35 63.7252 160.727 63.8456C161.062 63.9444 161.407 64.0551 161.752 64.173C162.098 64.291 162.447 64.4307 162.802 64.5896C164.101 65.1867 165.122 66.0607 165.859 67.2115C166.597 68.3648 166.968 69.6458 166.968 71.0567C166.968 72.4483 166.597 73.7195 165.859 74.8728C165.122 76.0262 164.101 76.9001 162.802 77.4948C162.292 77.7332 161.767 77.9065 161.231 78.0172C160.691 78.1233 160.156 78.1762 159.619 78.1762Z" fill="#D4D9D8"/>
<path fill-rule="evenodd" clip-rule="evenodd" d="M185.48 60.9202H176.503V64.2284H183.787V69.2652H176.503V72.7228H185.48V77.7596H171.48V55.9122L185.48 55.8833V60.9202Z" fill="#D4D9D8"/>
<path fill-rule="evenodd" clip-rule="evenodd" d="M23.0067 90.0362L23.7416 88.2284L21.5684 83.6079H23.1869L24.4956 86.379L25.6122 83.6079H27.1995L24.5917 90.0362H23.0067Z" fill="#D4D9D8"/>
<path fill-rule="evenodd" clip-rule="evenodd" d="M35.3494 83.6536C35.7888 83.6536 36.1993 83.738 36.5861 83.9069C36.9726 84.0749 37.3088 84.3013 37.597 84.588C37.8852 84.8748 38.1133 85.2116 38.279 85.5996C38.447 85.9865 38.531 86.4004 38.531 86.8412C38.531 87.282 38.447 87.6959 38.279 88.0838C38.1109 88.4717 37.8852 88.8085 37.597 89.0953C37.3088 89.382 36.9702 89.6075 36.5861 89.7764C36.1993 89.9453 35.7888 90.0288 35.3494 90.0288C34.9099 90.0288 34.4993 89.9453 34.1127 89.7764C33.7285 89.6075 33.3899 89.382 33.1042 89.0953C32.8184 88.8085 32.5926 88.4717 32.4245 88.0838C32.2565 87.6959 32.1724 87.282 32.1724 86.8412C32.1724 86.4004 32.2565 85.9865 32.4245 85.5996C32.5926 85.2116 32.8184 84.8748 33.1042 84.588C33.3899 84.3013 33.7261 84.0749 34.1127 83.9069C34.4993 83.7352 34.9099 83.6536 35.3494 83.6536ZM35.3542 88.5607C35.5918 88.5607 35.8128 88.5143 36.0217 88.4252C36.2307 88.3362 36.4108 88.2137 36.5668 88.0578C36.723 87.901 36.8454 87.7182 36.9342 87.5112C37.0231 87.3015 37.0687 87.0797 37.0687 86.8412C37.0687 86.6027 37.0231 86.3819 36.9342 86.1722C36.8454 85.9624 36.723 85.7824 36.5668 85.6255C36.4108 85.4687 36.2282 85.3462 36.0217 85.2571C35.8152 85.168 35.5918 85.1225 35.3542 85.1225C35.1164 85.1225 34.8955 85.168 34.6866 85.2571C34.4777 85.3462 34.2976 85.4687 34.1415 85.6255C33.9855 85.7824 33.8629 85.9652 33.774 86.1722C33.6852 86.3819 33.6396 86.6027 33.6396 86.8412C33.6396 87.0797 33.6852 87.3015 33.774 87.5112C33.8629 87.72 33.9855 87.901 34.1415 88.0578C34.2976 88.2137 34.4801 88.3362 34.6866 88.4252C34.8955 88.5143 35.1164 88.5607 35.3542 88.5607Z" fill="#D4D9D8"/>
<path fill-rule="evenodd" clip-rule="evenodd" d="M45.9347 90.0362C45.6106 90.0362 45.3056 89.9759 45.0174 89.8581C44.7292 89.7402 44.4723 89.5694 44.2467 89.3504C44.0162 89.1193 43.8385 88.8586 43.7135 88.5682C43.5887 88.2786 43.5239 87.9686 43.519 87.6383V83.6516H44.9838V87.629C44.9838 87.8841 45.0799 88.1051 45.2695 88.298C45.4593 88.4791 45.6851 88.5682 45.9445 88.5682C46.0716 88.5682 46.1917 88.5412 46.3094 88.4911C46.4246 88.4373 46.5255 88.3677 46.6119 88.2814C46.6984 88.1942 46.7656 88.093 46.8113 87.978C46.8568 87.8619 46.8809 87.7366 46.8809 87.6049V83.6535H48.3457V87.5975C48.3505 87.9269 48.2928 88.2405 48.1681 88.5365C48.0431 88.8326 47.8725 89.0906 47.6565 89.3095C47.4403 89.5286 47.1859 89.704 46.8953 89.8339C46.6048 89.9638 46.2926 90.0316 45.9635 90.039H45.9347V90.0362Z" fill="#D4D9D8"/>
<path fill-rule="evenodd" clip-rule="evenodd" d="M55.6836 88.3844C55.6093 88.3964 55.5324 88.4039 55.4579 88.4113C55.3835 88.4159 55.3042 88.4234 55.225 88.4281V90.0344H53.7603V83.6851H55.225C55.5876 83.6897 55.9286 83.7575 56.2481 83.8846C56.565 84.0126 56.8436 84.1834 57.0837 84.395C57.3237 84.6093 57.5111 84.8571 57.6455 85.142C57.7824 85.4231 57.8496 85.7267 57.8496 86.0514C57.8496 86.3911 57.7777 86.7094 57.6335 87.0008C57.4895 87.2912 57.2878 87.5446 57.026 87.7589L58.4285 90.0316H56.7043L55.6836 88.3844ZM55.225 86.9525C55.3812 86.947 55.5301 86.9182 55.6717 86.8699C55.8134 86.8226 55.9382 86.7567 56.0439 86.6751C56.152 86.5934 56.2336 86.4997 56.2961 86.3938C56.3561 86.2853 56.3873 86.1721 56.3873 86.0514C56.3873 85.9318 56.3561 85.8185 56.2961 85.7118C56.236 85.6088 56.152 85.5151 56.0439 85.4353C55.9382 85.3536 55.8134 85.2886 55.6717 85.2403C55.5301 85.1922 55.3812 85.1634 55.225 85.1587V86.9525Z" fill="#D4D9D8"/>
<path fill-rule="evenodd" clip-rule="evenodd" d="M68.7353 83.634V85.1031H67.513V90.0363H66.0482V85.1031H64.8379V83.634H68.7353Z" fill="#D4D9D8"/>
<path fill-rule="evenodd" clip-rule="evenodd" d="M77.5405 90.0362L77.2884 89.2632H75.288L75.0287 90.0362H73.4775L75.6435 83.6609H77.0291L79.0822 90.0362H77.5405ZM75.79 87.7951H76.8201L76.3182 86.249L75.79 87.7951Z" fill="#D4D9D8"/>
<path fill-rule="evenodd" clip-rule="evenodd" d="M89.2301 86.4662V90.0361H87.7581V89.8802C87.5973 89.9378 87.4316 89.9814 87.2611 90.0046C87.0906 90.0315 86.9225 90.0436 86.7544 90.0436C86.3438 90.0436 85.9427 89.9666 85.5514 89.8098C85.1575 89.6539 84.8069 89.42 84.4947 89.1072C84.1826 88.7936 83.9496 88.4428 83.7984 88.0522C83.6447 87.6624 83.5679 87.2605 83.5679 86.8485C83.5679 86.4365 83.6447 86.0347 83.7984 85.6422C83.952 85.2478 84.185 84.8961 84.4947 84.5833C84.8069 84.2696 85.1599 84.0367 85.5514 83.8798C85.9451 83.7231 86.3462 83.646 86.7544 83.646C87.1649 83.646 87.566 83.7231 87.9575 83.8798C88.3513 84.0367 88.7019 84.2696 89.0141 84.5833L87.9743 85.6254C87.8062 85.4565 87.6165 85.3321 87.4028 85.2477C87.189 85.1633 86.9729 85.1224 86.752 85.1224C86.5335 85.1224 86.315 85.1633 86.1013 85.2477C85.8875 85.3321 85.6979 85.4565 85.5298 85.6254C85.3616 85.7943 85.2344 85.9845 85.148 86.199C85.0615 86.4123 85.0183 86.6295 85.0183 86.8513C85.0183 87.0703 85.0615 87.2893 85.148 87.5009C85.2344 87.7152 85.3616 87.9055 85.5298 88.0744C85.681 88.2257 85.8491 88.3417 86.0364 88.4252C86.2238 88.5096 86.4182 88.5579 86.6176 88.5727C86.8168 88.5867 87.0137 88.5681 87.2106 88.517C87.4075 88.4642 87.5876 88.3779 87.7558 88.2572V87.9371H86.4831V86.468H89.2301V86.4662Z" fill="#D4D9D8"/>
<path fill-rule="evenodd" clip-rule="evenodd" d="M98.2522 90.0363H94.4646V83.6536H95.9297V88.5682H98.2522V90.0363Z" fill="#D4D9D8"/>
<path fill-rule="evenodd" clip-rule="evenodd" d="M104.856 90.0363H103.393V83.6536H104.856V90.0363Z" fill="#D4D9D8"/>
<path fill-rule="evenodd" clip-rule="evenodd" d="M113.93 83.6609H115.394V90.0362H113.81L111.731 86.3187V90.0362H110.267V83.6776H111.86L113.93 87.3878V83.6609Z" fill="#D4D9D8"/>
<path fill-rule="evenodd" clip-rule="evenodd" d="M124.729 85.1299H122.111V86.0923H124.234V87.5612H122.111V88.5682H124.729V90.0362H120.648V83.6702L124.729 83.6609V85.1299Z" fill="#D4D9D8"/>
<path fill-rule="evenodd" clip-rule="evenodd" d="M134.651 83.6609H136.113V90.0362H134.651V87.6309H132.814V90.0362H131.352V83.6609H132.814V86.1628H134.651V83.6609Z" fill="#D4D9D8"/>
<path fill-rule="evenodd" clip-rule="evenodd" d="M145.38 85.1299H142.763V86.0923H144.885V87.5612H142.763V88.5682H145.38V90.0362H141.3V83.6702L145.38 83.6609V85.1299Z" fill="#D4D9D8"/>
<path fill-rule="evenodd" clip-rule="evenodd" d="M152.599 88.3844C152.525 88.3964 152.447 88.4039 152.373 88.4113C152.298 88.4159 152.219 88.4234 152.14 88.4281V90.0344H150.675V83.6851H152.14C152.502 83.6897 152.843 83.7575 153.163 83.8846C153.48 84.0126 153.759 84.1834 153.999 84.395C154.238 84.6093 154.427 84.8571 154.56 85.142C154.698 85.4231 154.765 85.7267 154.765 86.0514C154.765 86.3911 154.693 86.7094 154.548 87.0008C154.405 87.2912 154.203 87.5446 153.941 87.7589L155.343 90.0316H153.619L152.599 88.3844ZM152.14 86.9525C152.296 86.947 152.445 86.9182 152.587 86.8699C152.728 86.8226 152.853 86.7567 152.958 86.6751C153.067 86.5934 153.149 86.4997 153.21 86.3938C153.272 86.2853 153.302 86.1721 153.302 86.0514C153.302 85.9318 153.272 85.8185 153.21 85.7118C153.151 85.6088 153.067 85.5151 152.958 85.4353C152.853 85.3536 152.728 85.2886 152.587 85.2403C152.445 85.1922 152.296 85.1634 152.14 85.1587V86.9525Z" fill="#D4D9D8"/>
<path fill-rule="evenodd" clip-rule="evenodd" d="M164.514 85.1299H161.899V86.0923H164.022V87.5612H161.899V88.5682H164.514V90.0362H160.434V83.6702L164.514 83.6609V85.1299Z" fill="#D4D9D8"/>
<path fill-rule="evenodd" clip-rule="evenodd" d="M29.8195 42.9924H27.2045V43.9579H29.3248V45.4242H27.2045V46.4331H29.8195V47.8993H25.7397V41.5334L29.8195 41.5261V42.9924Z" fill="#D4D9D8"/>
<path fill-rule="evenodd" clip-rule="evenodd" d="M37.004 48.0222C36.8023 48.0222 36.6006 47.9956 36.4014 47.9403C36.2021 47.8849 36.0123 47.8007 35.8346 47.685C35.5224 47.4828 35.28 47.2204 35.1071 46.9001C34.9342 46.5798 34.8477 46.226 34.8477 45.8455H36.3126C36.3126 46.0189 36.3509 46.1538 36.4254 46.25C36.4998 46.3464 36.567 46.4113 36.6247 46.4451C36.7279 46.5149 36.8408 46.551 36.9633 46.5582C37.0833 46.563 37.2033 46.5413 37.3186 46.4884C37.4003 46.4547 37.4651 46.4113 37.5131 46.3584C37.5612 46.3055 37.5996 46.2549 37.626 46.2067C37.6524 46.1585 37.6668 46.1103 37.6741 46.0647C37.6788 46.0189 37.6837 45.9803 37.6837 45.9516C37.6837 45.9226 37.6813 45.8841 37.6741 45.8383C37.6693 45.7926 37.6524 45.7421 37.626 45.6915C37.5996 45.6385 37.5636 45.5879 37.5131 45.5397C37.4651 45.4916 37.3979 45.4458 37.3186 45.4049C37.2562 45.376 37.1866 45.3496 37.1145 45.3279C37.0425 45.3038 36.9657 45.2798 36.884 45.2509C36.7399 45.2051 36.5887 45.1521 36.4326 45.0943C36.2765 45.0366 36.1204 44.957 35.9643 44.8608C35.7626 44.7332 35.5921 44.5742 35.4528 44.384C35.3136 44.1938 35.2151 43.9868 35.155 43.7677C35.095 43.5485 35.0733 43.32 35.095 43.0863C35.1142 42.8528 35.1791 42.6264 35.2895 42.4121C35.3929 42.2147 35.5224 42.0438 35.6785 41.8993C35.8346 41.7549 36.0075 41.6393 36.1972 41.5575C36.3869 41.4732 36.5934 41.4227 36.812 41.4058C37.0305 41.3889 37.2538 41.4081 37.4796 41.466C37.6981 41.5189 37.8973 41.6008 38.0751 41.714C38.2552 41.8272 38.4065 41.9619 38.5362 42.1232C38.6657 42.2821 38.7667 42.4603 38.8339 42.6578C38.9035 42.8551 38.9372 43.0599 38.9372 43.2742H37.4796C37.4796 43.1418 37.4388 43.0478 37.3547 42.9972C37.2706 42.9442 37.1962 42.9106 37.1337 42.8937C37.1218 42.8937 37.0953 42.8888 37.0521 42.8817C37.009 42.8721 36.9584 42.8721 36.9056 42.8817C36.8504 42.8913 36.7951 42.9106 36.7376 42.9419C36.6799 42.9732 36.6343 43.0237 36.5982 43.0936C36.5526 43.1851 36.543 43.2837 36.5718 43.3849C36.6006 43.486 36.6582 43.5655 36.7447 43.6233C36.8264 43.669 36.9152 43.7124 37.0137 43.7484C37.1121 43.787 37.2154 43.8231 37.3259 43.8568C37.4243 43.8857 37.5227 43.917 37.6236 43.953C37.7244 43.9868 37.8253 44.0278 37.9287 44.0736C38.308 44.2469 38.6034 44.5021 38.8194 44.8368C39.0356 45.1714 39.1437 45.547 39.1437 45.9563C39.1437 46.3607 39.0356 46.7316 38.8194 47.0687C38.6034 47.4033 38.308 47.6585 37.9287 47.8319C37.7797 47.9017 37.626 47.9523 37.47 47.9836C37.3162 48.0052 37.1601 48.0222 37.004 48.0222Z" fill="#D4D9D8"/>
<path fill-rule="evenodd" clip-rule="evenodd" d="M47.9588 41.4995V42.9658H46.7366V47.8991H45.2742V42.9658H44.0615V41.4995H47.9588Z" fill="#D4D9D8"/>
<path fill-rule="evenodd" clip-rule="evenodd" d="M54.3897 41.4996C54.8123 41.5236 55.2085 41.6248 55.5808 41.803C55.9528 41.9836 56.2771 42.2171 56.5508 42.506C56.8246 42.7949 57.0407 43.132 57.2016 43.5124C57.3601 43.8952 57.4393 44.3022 57.4393 44.7379C57.4393 45.1666 57.3624 45.5662 57.2064 45.9418C57.0504 46.3149 56.8341 46.6449 56.5605 46.9265C56.2867 47.2107 55.9649 47.437 55.5951 47.6079C55.2253 47.7789 54.8243 47.8752 54.3921 47.8992H52.9272V41.49H54.3921V41.4996H54.3897ZM54.3897 46.4233C54.6154 46.3993 54.8243 46.3415 55.0164 46.2452C55.2109 46.1489 55.3765 46.0285 55.5182 45.8792C55.6599 45.7323 55.7704 45.559 55.8521 45.3615C55.9337 45.1642 55.9721 44.957 55.9721 44.7355C55.9721 44.5091 55.9313 44.2949 55.8521 44.0879C55.7704 43.8832 55.6575 43.7003 55.5135 43.5413C55.3694 43.3824 55.2013 43.2524 55.0116 43.1512C54.8219 43.0502 54.613 42.9876 54.3872 42.9636V46.4233H54.3897Z" fill="#D4D9D8"/>
<path fill-rule="evenodd" clip-rule="evenodd" d="M128.421 46.4331V47.9017H124.167V46.3175C124.59 46.0623 124.971 45.8047 125.315 45.5422C125.658 45.2823 125.951 45.0294 126.194 44.7886C126.436 44.5479 126.624 44.3289 126.755 44.1314C126.888 43.9339 126.954 43.7749 126.954 43.6547C126.954 43.4692 126.892 43.3127 126.765 43.1852C126.639 43.0576 126.482 42.9949 126.297 42.9949C126.112 42.9949 125.956 43.0599 125.829 43.19C125.702 43.3176 125.639 43.4765 125.639 43.6642H124.167C124.167 43.3682 124.222 43.0937 124.335 42.8361C124.448 42.5783 124.602 42.3521 124.794 42.1595C124.989 41.9644 125.212 41.8127 125.468 41.6996C125.725 41.5865 126.002 41.531 126.294 41.531C126.59 41.531 126.863 41.5865 127.121 41.6996C127.375 41.8127 127.6 41.9668 127.793 42.1595C127.985 42.3545 128.137 42.5783 128.249 42.8361C128.359 43.0937 128.417 43.3705 128.417 43.6642C128.417 44.5046 127.793 45.4267 126.547 46.4355H128.421V46.4331Z" fill="#D4D9D8"/>
<path fill-rule="evenodd" clip-rule="evenodd" d="M136.579 41.5166C137.02 41.5166 137.429 41.6008 137.816 41.7693C138.203 41.9379 138.538 42.1642 138.826 42.4507C139.115 42.7372 139.343 43.0743 139.51 43.4619C139.677 43.8496 139.762 44.2636 139.762 44.7043C139.762 45.1449 139.677 45.559 139.51 45.9467C139.341 46.3343 139.115 46.6713 138.826 46.9579C138.538 47.2444 138.2 47.4708 137.816 47.6393C137.429 47.8077 137.02 47.8922 136.579 47.8922C136.14 47.8922 135.73 47.8077 135.342 47.6393C134.959 47.4708 134.619 47.2444 134.335 46.9579C134.049 46.6713 133.823 46.3343 133.655 45.9467C133.486 45.559 133.403 45.1449 133.403 44.7043C133.403 44.2636 133.486 43.8496 133.655 43.4619C133.823 43.0743 134.049 42.7372 134.335 42.4507C134.619 42.1642 134.957 41.9379 135.342 41.7693C135.73 41.6008 136.14 41.5166 136.579 41.5166ZM136.584 46.4233C136.821 46.4233 137.044 46.3777 137.252 46.2886C137.461 46.1995 137.642 46.0767 137.797 45.9201C137.953 45.7637 138.075 45.5807 138.165 45.3737C138.253 45.1642 138.299 44.9427 138.299 44.7043C138.299 44.466 138.253 44.2445 138.165 44.035C138.075 43.8255 137.953 43.6449 137.797 43.4884C137.642 43.3319 137.458 43.2091 137.252 43.1201C137.045 43.031 136.821 42.9852 136.584 42.9852C136.347 42.9852 136.125 43.031 135.917 43.1201C135.708 43.2091 135.527 43.3319 135.372 43.4884C135.216 43.6449 135.094 43.8279 135.004 44.035C134.916 44.2445 134.87 44.466 134.87 44.7043C134.87 44.9427 134.916 45.1642 135.004 45.3737C135.094 45.5831 135.216 45.7637 135.372 45.9201C135.527 46.0767 135.71 46.1995 135.917 46.2886C136.125 46.3777 136.347 46.4233 136.584 46.4233Z" fill="#D4D9D8"/>
<path fill-rule="evenodd" clip-rule="evenodd" d="M149.001 46.4331V47.9017H144.748V46.3175C145.172 46.0623 145.553 45.8047 145.897 45.5422C146.241 45.2823 146.533 45.0294 146.776 44.7886C147.018 44.5479 147.205 44.3289 147.338 44.1314C147.469 43.9339 147.536 43.7749 147.536 43.6547C147.536 43.4692 147.475 43.3127 147.346 43.1852C147.219 43.0576 147.064 42.9949 146.879 42.9949C146.694 42.9949 146.537 43.0599 146.41 43.19C146.283 43.3176 146.221 43.4765 146.221 43.6642H144.748C144.748 43.3682 144.804 43.0937 144.917 42.8361C145.029 42.5783 145.184 42.3521 145.375 42.1595C145.569 41.9644 145.794 41.8127 146.05 41.6996C146.307 41.5865 146.583 41.531 146.876 41.531C147.172 41.531 147.445 41.5865 147.702 41.6996C147.956 41.8127 148.183 41.9668 148.375 42.1595C148.566 42.3545 148.719 42.5783 148.831 42.8361C148.942 43.0937 148.999 43.3705 148.999 43.6642C148.999 44.5046 148.375 45.4267 147.129 46.4355H149.001V46.4331Z" fill="#D4D9D8"/>
<path fill-rule="evenodd" clip-rule="evenodd" d="M157.161 41.5166C157.601 41.5166 158.011 41.6008 158.398 41.7693C158.785 41.9379 159.12 42.1642 159.409 42.4507C159.697 42.7372 159.925 43.0743 160.09 43.4619C160.259 43.8496 160.343 44.2636 160.343 44.7043C160.343 45.1449 160.259 45.559 160.09 45.9467C159.923 46.3343 159.697 46.6713 159.409 46.9579C159.12 47.2444 158.782 47.4708 158.398 47.6393C158.011 47.8077 157.601 47.8922 157.161 47.8922C156.722 47.8922 156.311 47.8077 155.925 47.6393C155.54 47.4708 155.202 47.2444 154.916 46.9579C154.629 46.6713 154.405 46.3343 154.236 45.9467C154.069 45.559 153.984 45.1449 153.984 44.7043C153.984 44.2636 154.069 43.8496 154.236 43.4619C154.405 43.0743 154.629 42.7372 154.916 42.4507C155.202 42.1642 155.537 41.9379 155.925 41.7693C156.311 41.6008 156.722 41.5166 157.161 41.5166ZM157.165 46.4233C157.404 46.4233 157.624 46.3777 157.833 46.2886C158.042 46.1995 158.222 46.0767 158.379 45.9201C158.534 45.7637 158.658 45.5807 158.745 45.3737C158.835 45.1642 158.88 44.9427 158.88 44.7043C158.88 44.466 158.835 44.2445 158.745 44.035C158.658 43.8255 158.534 43.6449 158.379 43.4884C158.222 43.3319 158.04 43.2091 157.833 43.1201C157.624 43.031 157.404 42.9852 157.165 42.9852C156.929 42.9852 156.708 43.031 156.499 43.1201C156.289 43.2091 156.11 43.3319 155.953 43.4884C155.797 43.6449 155.675 43.8279 155.585 44.035C155.498 44.2445 155.452 44.466 155.452 44.7043C155.452 44.9427 155.498 45.1642 155.585 45.3737C155.675 45.5831 155.797 45.7637 155.953 45.9201C156.11 46.0767 156.292 46.1995 156.499 46.2886C156.708 46.3777 156.929 46.4233 157.165 46.4233Z" fill="#D4D9D8"/>
<path fill-rule="evenodd" clip-rule="evenodd" d="M112.513 48.0222H108.25C108.254 47.8776 108.254 47.7308 108.254 47.5839C108.254 37.8014 104.299 28.9436 97.906 22.5342C92.6808 17.295 85.8275 13.6908 78.1721 12.5471L92.6135 1.10576C92.8514 0.910718 93.2139 0.905868 93.4613 1.10091L112.898 16.4982C113.055 16.6065 113.159 16.7798 113.159 16.9749V47.4346C113.159 47.7573 112.869 48.0222 112.513 48.0222ZM104.495 48.0222H100.992C100.994 47.8776 100.994 47.7308 100.994 47.5839C100.994 39.8118 97.8513 32.7742 92.7721 27.6819C87.6933 22.5897 80.6742 19.438 72.9228 19.438V16.9749C72.9228 16.8087 72.9972 16.645 73.1461 16.5294L73.8905 15.9396C82.2255 16.1924 89.7489 19.6811 95.2506 25.1995C100.963 30.9275 104.498 38.844 104.498 47.5863C104.498 47.7308 104.498 47.8752 104.495 48.0222ZM97.2337 48.0222H93.7308C93.733 47.8776 93.7352 47.7308 93.7352 47.5839C93.7352 41.8224 91.4058 36.6048 87.638 32.8271C83.8728 29.0519 78.6692 26.714 72.9204 26.714V23.2011C79.6345 23.2011 85.7146 25.9315 90.1139 30.3425C94.5137 34.7533 97.2359 40.8497 97.2359 47.5839C97.2392 47.7308 97.2359 47.8752 97.2337 48.0222ZM89.9721 48.0222H86.4662C86.471 47.8776 86.4734 47.7308 86.4734 47.5839C86.4734 43.8303 84.9558 40.433 82.5041 37.9748C80.0524 35.5166 76.6617 33.9949 72.9204 33.9949V30.4822C77.6295 30.4822 81.8942 32.3962 84.9822 35.4925C88.068 38.5863 89.9794 42.8624 89.9794 47.5863C89.9794 47.7308 89.977 47.8752 89.9721 48.0222ZM82.7106 48.0222H79.2023C79.2118 47.8776 79.2167 47.7308 79.2167 47.5839C79.2167 45.8408 78.5107 44.2637 77.3725 43.1201C76.2342 41.9788 74.6589 41.271 72.9204 41.271V37.7581C75.6267 37.7581 78.0761 38.8584 79.8483 40.6353C81.6203 42.4122 82.7177 44.8704 82.7177 47.5816C82.7201 47.7308 82.7154 47.8752 82.7106 48.0222Z" fill="#D4D9D8"/>
</svg>
