<svg width="187" height="102" viewBox="0 0 187 102" fill="none" xmlns="http://www.w3.org/2000/svg">
<path fill-rule="evenodd" clip-rule="evenodd" d="M7.32216 79.6395C7.07567 79.6778 6.82667 79.7059 6.5803 79.7263C6.33381 79.7443 6.07474 79.7647 5.81051 79.7827V85.1002H0.983643V64.0857H5.80799C7.00713 64.1061 8.12994 64.3261 9.17665 64.7481C10.2234 65.1701 11.1429 65.7354 11.933 66.4388C12.7231 67.1474 13.3405 67.9709 13.7902 68.9122C14.2373 69.8457 14.4608 70.8535 14.4608 71.9251C14.4608 73.0506 14.2221 74.0993 13.747 75.0688C13.2718 76.0355 12.6038 76.8694 11.7476 77.5804L16.3739 85.1028H10.6908L7.32216 79.6395ZM5.80799 74.8973C6.32122 74.8795 6.81145 74.7874 7.27891 74.6237C7.74636 74.4599 8.15534 74.2452 8.50596 73.9766C8.8591 73.708 9.13351 73.3959 9.33411 73.0429C9.53483 72.6875 9.63392 72.3088 9.63392 71.9074C9.63392 71.5057 9.53483 71.1323 9.33411 70.787C9.13351 70.4418 8.8591 70.1348 8.50596 69.8662C8.15283 69.5976 7.74384 69.3829 7.27891 69.2191C6.81145 69.0554 6.32374 68.9659 5.80799 68.9455V74.8973Z" fill="#D4D9D8"/>
<path fill-rule="evenodd" clip-rule="evenodd" d="M34.218 68.8585H25.5931V72.0505H32.5897V76.9077H25.5931V80.2431H34.218V85.1002H20.7688V64.0293L34.218 64.0012V68.8585Z" fill="#D4D9D8"/>
<path fill-rule="evenodd" clip-rule="evenodd" d="M51.2899 85.1001L50.4618 82.5423H43.8666L43.0106 85.1001H37.8992L45.0378 63.9985H49.6056L56.3735 85.1001H51.2899ZM45.5205 77.6851H48.9171L47.2608 72.5671L45.5205 77.6851Z" fill="#D4D9D8"/>
<path fill-rule="evenodd" clip-rule="evenodd" d="M72.8739 85.1004H60.395V63.9731H65.2219V80.2431H72.8739V85.1004Z" fill="#D4D9D8"/>
<path fill-rule="evenodd" clip-rule="evenodd" d="M95.4283 68.8585H86.8059V72.0505H93.8001V76.9077H86.8059V80.2431H95.4283V85.1002H81.979V64.0293L95.4283 64.0012V68.8585Z" fill="#D4D9D8"/>
<path fill-rule="evenodd" clip-rule="evenodd" d="M106.733 85.5042C106.068 85.5042 105.405 85.4122 104.749 85.2305C104.094 85.0489 103.469 84.765 102.879 84.3813C101.851 83.7111 101.052 82.8441 100.482 81.7801C99.9102 80.716 99.6255 79.5523 99.6255 78.2861H104.449C104.449 78.8616 104.574 79.3067 104.82 79.6238C105.067 79.941 105.288 80.1559 105.476 80.2709C105.819 80.5012 106.19 80.6266 106.589 80.6445C106.987 80.6623 107.378 80.5881 107.76 80.4142C108.026 80.2991 108.24 80.1559 108.403 79.982C108.565 79.808 108.687 79.6418 108.774 79.4781C108.86 79.3144 108.911 79.1584 108.931 79.0049C108.948 78.8515 108.959 78.7261 108.959 78.6315C108.959 78.5343 108.948 78.4114 108.931 78.2581C108.913 78.1046 108.86 77.9409 108.774 77.7695C108.687 77.5982 108.565 77.4293 108.403 77.2656C108.24 77.1019 108.026 76.9535 107.76 76.8205C107.551 76.7233 107.328 76.6389 107.089 76.5622C106.85 76.4855 106.598 76.3986 106.331 76.3039C105.857 76.1504 105.362 75.9791 104.849 75.7872C104.335 75.5954 103.819 75.337 103.306 75.0122C102.64 74.5902 102.079 74.0632 101.622 73.4315C101.165 72.7998 100.838 72.1194 100.636 71.3904C100.436 70.6615 100.37 69.9096 100.436 69.1345C100.501 68.3595 100.717 67.6151 101.077 66.9066C101.421 66.2544 101.848 65.6892 102.364 65.2109C102.878 64.7326 103.448 64.3541 104.077 64.0752C104.704 63.7964 105.379 63.6301 106.104 63.5714C106.827 63.515 107.559 63.5815 108.301 63.7733C109.025 63.9448 109.675 64.2184 110.262 64.5919C110.851 64.9653 111.356 65.4155 111.781 65.9424C112.211 66.4693 112.539 67.0576 112.762 67.7097C112.991 68.362 113.105 69.0424 113.105 69.7509H108.303C108.303 69.311 108.165 69.004 107.889 68.8301C107.612 68.6587 107.37 68.5436 107.16 68.4847C107.122 68.4847 107.031 68.4694 106.889 68.4414C106.746 68.4132 106.583 68.4132 106.404 68.4414C106.223 68.4694 106.037 68.536 105.846 68.6434C105.657 68.7482 105.503 68.917 105.39 69.1472C105.237 69.4542 105.209 69.7739 105.303 70.1115C105.399 70.4466 105.588 70.7101 105.875 70.9019C106.142 71.0553 106.436 71.1935 106.759 71.3189C107.081 71.4441 107.425 71.5643 107.788 71.6769C108.11 71.7716 108.44 71.879 108.774 71.9941C109.106 72.1092 109.439 72.2421 109.782 72.3956C111.029 72.971 112.01 73.8126 112.718 74.9252C113.428 76.0378 113.786 77.2733 113.786 78.634C113.786 79.9743 113.43 81.202 112.718 82.3146C112.01 83.4273 111.029 84.2688 109.782 84.8443C109.292 85.0744 108.786 85.2407 108.273 85.3481C107.76 85.4504 107.247 85.5042 106.733 85.5042Z" fill="#D4D9D8"/>
<path fill-rule="evenodd" clip-rule="evenodd" d="M130.458 63.9141V68.7738H126.432V85.1001H121.608V68.7738H117.609V63.9141H130.458Z" fill="#D4D9D8"/>
<path fill-rule="evenodd" clip-rule="evenodd" d="M147.101 85.1001L146.273 82.5423H139.678L138.822 85.1001H133.71L140.85 63.9985H145.417L152.184 85.1001H147.101ZM141.335 77.6851H144.732L143.075 72.5671L141.335 77.6851Z" fill="#D4D9D8"/>
<path fill-rule="evenodd" clip-rule="evenodd" d="M168.23 63.9141V68.7738H164.204V85.1001H159.377V68.7738H155.381V63.9141H168.23Z" fill="#D4D9D8"/>
<path fill-rule="evenodd" clip-rule="evenodd" d="M186.016 68.8585H177.394V72.0505H184.388V76.9077H177.394V80.2431H186.016V85.1002H172.568V64.0293L186.016 64.0012V68.8585Z" fill="#D4D9D8"/>
<path fill-rule="evenodd" clip-rule="evenodd" d="M24.8362 97.6355C24.8362 98.0324 24.7625 98.4029 24.6152 98.7502C24.4678 99.0986 24.2671 99.4051 24.0079 99.6697C23.7488 99.9333 23.4491 100.143 23.1061 100.296C22.7631 100.449 22.3948 100.528 22.0035 100.536V101.638H20.4233V94.7249H22.0035C22.3973 94.73 22.7631 94.812 23.1061 94.9704C23.4491 95.1265 23.7488 95.3388 24.0079 95.6023C24.2671 95.8658 24.4703 96.173 24.6152 96.5208C24.765 96.8692 24.8362 97.2397 24.8362 97.6355ZM22.0035 98.9432C22.1788 98.9376 22.3414 98.8968 22.4939 98.8252C22.6463 98.7535 22.7784 98.6554 22.8927 98.5407C23.0045 98.4261 23.0934 98.2882 23.1594 98.1295C23.2254 97.9729 23.2585 97.8042 23.2585 97.6278C23.2585 97.4514 23.2254 97.2849 23.1594 97.1261C23.0934 96.9685 23.0045 96.8328 22.8927 96.7149C22.7809 96.5991 22.6488 96.5032 22.4939 96.4304C22.3414 96.3598 22.1762 96.318 22.0035 96.3135V98.9432Z" fill="#D4D9D8"/>
<path fill-rule="evenodd" clip-rule="evenodd" d="M31.6444 99.8485C31.5632 99.8607 31.4819 99.8717 31.4007 99.8761C31.3192 99.8816 31.2354 99.8893 31.149 99.8937V101.637H29.5688V94.7507H31.149C31.5428 94.7558 31.9088 94.83 32.2541 94.9682C32.5971 95.1062 32.8969 95.2907 33.1561 95.5229C33.4153 95.7561 33.6184 96.0244 33.7631 96.3347C33.9105 96.6401 33.9842 96.9709 33.9842 97.3215C33.9842 97.6897 33.9055 98.0348 33.7505 98.3513C33.5955 98.6688 33.377 98.9433 33.0951 99.176L34.6116 101.638H32.7496L31.6444 99.8485ZM31.149 98.2928C31.3167 98.2884 31.4768 98.2575 31.6317 98.2035C31.7841 98.1495 31.9188 98.08 32.0331 97.9918C32.1475 97.9047 32.2389 97.8022 32.305 97.6842C32.371 97.5695 32.404 97.445 32.404 97.3137C32.404 97.1814 32.371 97.0602 32.305 96.9444C32.2389 96.833 32.15 96.7338 32.0331 96.6434C31.9188 96.5563 31.7841 96.4846 31.6317 96.4306C31.4794 96.3766 31.3192 96.3468 31.149 96.3424V98.2928Z" fill="#D4D9D8"/>
<path fill-rule="evenodd" clip-rule="evenodd" d="M42.058 94.7148C42.533 94.7148 42.9751 94.8069 43.3942 94.9885C43.8109 95.1701 44.1742 95.4185 44.4867 95.7276C44.7992 96.0395 45.0431 96.4052 45.2234 96.8253C45.4038 97.2442 45.4952 97.6952 45.4952 98.1737C45.4952 98.6511 45.4038 99.0988 45.2234 99.521C45.0431 99.94 44.7967 100.306 44.4867 100.618C44.1742 100.927 43.8109 101.176 43.3942 101.358C42.9777 101.539 42.533 101.63 42.058 101.63C41.583 101.63 41.1408 101.539 40.7217 101.358C40.3051 101.176 39.9418 100.927 39.6343 100.618C39.3269 100.306 39.0831 99.94 38.9026 99.521C38.7224 99.101 38.6309 98.6511 38.6309 98.1737C38.6309 97.6952 38.7224 97.2475 38.9026 96.8253C39.0831 96.403 39.3269 96.0395 39.6343 95.7276C39.9443 95.4185 40.3051 95.1701 40.7217 94.9885C41.1408 94.8069 41.5855 94.7148 42.058 94.7148ZM42.063 100.037C42.3197 100.037 42.5584 99.9885 42.782 99.8926C43.0056 99.7945 43.2038 99.6622 43.3714 99.4902C43.5391 99.3215 43.6711 99.1219 43.7677 98.897C43.8642 98.6721 43.9126 98.4284 43.9126 98.1704C43.9126 97.9113 43.8642 97.672 43.7677 97.4449C43.6711 97.2189 43.5391 97.0193 43.3714 96.8506C43.2038 96.6819 43.0056 96.5485 42.782 96.4515C42.5584 96.3545 42.3171 96.306 42.0605 96.306C41.804 96.306 41.5651 96.3545 41.3415 96.4515C41.1179 96.5485 40.9198 96.6819 40.7522 96.8506C40.5846 97.0193 40.4524 97.2189 40.3533 97.4449C40.2568 97.6687 40.2085 97.9113 40.2085 98.1704C40.2085 98.4284 40.2568 98.6687 40.3533 98.897C40.4499 99.1219 40.5819 99.3215 40.7522 99.4902C40.9198 99.6589 41.1179 99.7912 41.3415 99.8926C41.5676 99.9885 41.8065 100.037 42.063 100.037Z" fill="#D4D9D8"/>
<path fill-rule="evenodd" clip-rule="evenodd" d="M54.1837 97.6355C54.1837 98.0324 54.1101 98.4029 53.9627 98.7502C53.8153 99.0986 53.6146 99.4051 53.3554 99.6697C53.0963 99.9333 52.7966 100.143 52.4536 100.296C52.1106 100.449 51.7423 100.528 51.3485 100.536V101.638H49.7683V94.7249H51.3485C51.7423 94.73 52.1081 94.812 52.4511 94.9704C52.794 95.1265 53.0938 95.3388 53.3529 95.6023C53.6121 95.8658 53.8153 96.173 53.9601 96.5208C54.1101 96.8692 54.1837 97.2397 54.1837 97.6355ZM51.351 98.9432C51.5263 98.9376 51.6889 98.8968 51.8414 98.8252C51.9938 98.7535 52.1258 98.6554 52.2376 98.5407C52.3494 98.4261 52.4384 98.2882 52.5044 98.1295C52.5705 97.9729 52.6035 97.8042 52.6035 97.6278C52.6035 97.4514 52.5705 97.2849 52.5044 97.1261C52.4384 96.9685 52.3494 96.8328 52.2376 96.7149C52.1258 96.5991 51.9938 96.5032 51.8414 96.4304C51.6889 96.3598 51.5238 96.318 51.351 96.3135V98.9432Z" fill="#D4D9D8"/>
<path fill-rule="evenodd" clip-rule="evenodd" d="M63.2174 96.3157H60.3925V97.3621H62.684V98.952H60.3925V100.046H63.2174V101.638H58.8123V94.7351L63.2174 94.7249V96.3157Z" fill="#D4D9D8"/>
<path fill-rule="evenodd" clip-rule="evenodd" d="M69.9039 99.8485C69.8227 99.8607 69.7414 99.8717 69.6601 99.8761C69.5788 99.8816 69.495 99.8893 69.4087 99.8937V101.637H67.8284V94.7507H69.4087C69.8024 94.7558 70.1682 94.83 70.5112 94.9682C70.8542 95.1062 71.1539 95.2907 71.4131 95.5229C71.6721 95.7561 71.8754 96.0244 72.0202 96.3347C72.1675 96.6401 72.2412 96.9709 72.2412 97.3215C72.2412 97.6897 72.1625 98.0348 72.0075 98.3513C71.8526 98.6688 71.634 98.9433 71.3521 99.176L72.8688 101.638H71.0065L69.9039 99.8485ZM69.4087 98.2928C69.5763 98.2884 69.7363 98.2575 69.8913 98.2035C70.0437 98.1495 70.1783 98.08 70.2927 97.9918C70.407 97.9047 70.4984 97.8022 70.5645 97.6842C70.6306 97.5695 70.6635 97.445 70.6635 97.3137C70.6635 97.1814 70.6306 97.0602 70.5645 96.9444C70.4984 96.833 70.4095 96.7338 70.2927 96.6434C70.1783 96.5563 70.0437 96.4846 69.8913 96.4306C69.7388 96.3766 69.5788 96.3468 69.4087 96.3424V98.2928Z" fill="#D4D9D8"/>
<path fill-rule="evenodd" clip-rule="evenodd" d="M81.2956 94.6968V96.2882H79.977V101.638H78.3942V96.2882H77.0859V94.6968H81.2956Z" fill="#D4D9D8"/>
<path fill-rule="evenodd" clip-rule="evenodd" d="M86.8312 101.638L87.6264 99.6799L85.2791 94.6689H87.0269L88.4393 97.6721L89.6461 94.6689H91.3584L88.5436 101.638H86.8312Z" fill="#D4D9D8"/>
<path fill-rule="evenodd" clip-rule="evenodd" d="M99.7195 101.769C99.5005 101.769 99.2847 101.738 99.069 101.68C98.8522 101.621 98.6496 101.527 98.4558 101.401C98.1186 101.18 97.8569 100.897 97.6718 100.549C97.4835 100.201 97.3926 99.8197 97.3926 99.4052H98.9727C98.9727 99.5948 99.0132 99.7403 99.0942 99.8429C99.1752 99.9454 99.2464 100.017 99.3099 100.055C99.4216 100.13 99.5432 100.17 99.6757 100.178C99.8081 100.184 99.9341 100.16 100.059 100.104C100.145 100.066 100.217 100.02 100.27 99.9631C100.324 99.9068 100.364 99.8506 100.392 99.7988C100.419 99.7459 100.438 99.6951 100.443 99.6433C100.448 99.5926 100.453 99.5518 100.453 99.5198C100.453 99.4901 100.451 99.4493 100.443 99.3986C100.438 99.3467 100.419 99.2927 100.392 99.2365C100.364 99.1814 100.324 99.124 100.27 99.0733C100.217 99.0204 100.148 98.9708 100.059 98.9267C99.991 98.8969 99.9177 98.8682 99.8377 98.8429C99.76 98.8175 99.6789 98.7899 99.5891 98.758C99.4337 98.7072 99.2716 98.651 99.1041 98.5893C98.9365 98.5264 98.7668 98.4415 98.5982 98.3368C98.3803 98.199 98.1974 98.0248 98.0474 97.8164C97.8974 97.6102 97.7901 97.3875 97.7244 97.1493C97.6587 96.9112 97.6389 96.6642 97.6587 96.4106C97.6806 96.1569 97.7495 95.9114 97.87 95.6819C97.9817 95.4696 98.1208 95.2828 98.2905 95.1265C98.4591 94.9704 98.6464 94.8451 98.8522 94.7557C99.0581 94.6636 99.2793 94.6098 99.5158 94.5919C99.7523 94.574 99.9932 94.5945 100.237 94.6585C100.474 94.7146 100.686 94.8043 100.879 94.927C101.073 95.0498 101.238 95.1984 101.378 95.3691C101.517 95.5407 101.627 95.7351 101.698 95.9474C101.775 96.1598 101.81 96.3852 101.81 96.6146H100.237C100.237 96.4712 100.191 96.3687 100.103 96.3136C100.011 96.2573 99.933 96.2185 99.864 96.2005C99.8508 96.2005 99.8202 96.1957 99.7753 96.1853C99.7282 96.1749 99.6757 96.1749 99.6143 96.1853C99.5563 96.1957 99.495 96.2166 99.4326 96.2517C99.368 96.2849 99.3198 96.3422 99.2825 96.4161C99.2311 96.5153 99.2234 96.6201 99.2541 96.7303C99.2847 96.8406 99.3483 96.9277 99.4413 96.9883C99.5289 97.0391 99.6253 97.0832 99.7315 97.124C99.8377 97.1648 99.9505 97.2033 100.07 97.2408C100.176 97.2728 100.282 97.3092 100.392 97.3434C100.501 97.3831 100.611 97.4261 100.722 97.4779C101.132 97.6664 101.452 97.9432 101.686 98.3059C101.916 98.6687 102.033 99.0755 102.033 99.5198C102.033 99.9598 101.916 100.362 101.686 100.725C101.454 101.089 101.132 101.366 100.722 101.554C100.563 101.629 100.397 101.684 100.228 101.718C100.055 101.751 99.8859 101.769 99.7195 101.769Z" fill="#D4D9D8"/>
<path fill-rule="evenodd" clip-rule="evenodd" d="M109.458 94.7148C109.934 94.7148 110.376 94.8069 110.795 94.9885C111.212 95.1701 111.575 95.4185 111.888 95.7276C112.2 96.0395 112.445 96.4052 112.624 96.8253C112.805 97.2442 112.897 97.6952 112.897 98.1737C112.897 98.6511 112.805 99.0988 112.624 99.521C112.445 99.94 112.198 100.306 111.888 100.618C111.575 100.927 111.212 101.176 110.795 101.358C110.378 101.539 109.934 101.63 109.458 101.63C108.984 101.63 108.542 101.539 108.124 101.358C107.705 101.176 107.343 100.927 107.035 100.618C106.728 100.306 106.484 99.94 106.304 99.521C106.124 99.101 106.032 98.6511 106.032 98.1737C106.032 97.6952 106.124 97.2475 106.304 96.8253C106.484 96.403 106.728 96.0395 107.035 95.7276C107.345 95.4185 107.705 95.1701 108.124 94.9885C108.54 94.8069 108.984 94.7148 109.458 94.7148ZM109.465 100.037C109.72 100.037 109.959 99.9885 110.186 99.8926C110.41 99.7945 110.608 99.6622 110.775 99.4902C110.943 99.3215 111.075 99.1219 111.171 98.897C111.267 98.6721 111.316 98.4284 111.316 98.1704C111.316 97.9113 111.267 97.672 111.171 97.4449C111.075 97.2189 110.943 97.0193 110.775 96.8506C110.608 96.6819 110.41 96.5485 110.186 96.4515C109.962 96.3545 109.72 96.306 109.465 96.306C109.208 96.306 108.969 96.3545 108.742 96.4515C108.519 96.5485 108.322 96.6819 108.153 96.8506C107.986 97.0193 107.853 97.2189 107.757 97.4449C107.66 97.6687 107.612 97.9113 107.612 98.1704C107.612 98.4284 107.66 98.6687 107.757 98.897C107.853 99.1219 107.986 99.3215 108.153 99.4902C108.322 99.6589 108.519 99.7912 108.742 99.8926C108.969 99.9885 109.208 100.037 109.465 100.037Z" fill="#D4D9D8"/>
<path fill-rule="evenodd" clip-rule="evenodd" d="M121.257 101.638H117.169V94.7148H118.75V100.046H121.257V101.638Z" fill="#D4D9D8"/>
<path fill-rule="evenodd" clip-rule="evenodd" d="M128.307 101.638C127.958 101.638 127.627 101.575 127.317 101.447C127.004 101.319 126.727 101.135 126.482 100.897C126.234 100.647 126.041 100.362 125.909 100.05C125.774 99.736 125.705 99.4009 125.697 99.0425V94.7199H127.277V99.0326C127.277 99.3082 127.38 99.5519 127.585 99.7581C127.791 99.9532 128.035 100.05 128.314 100.05C128.451 100.05 128.584 100.022 128.709 99.9665C128.832 99.9102 128.942 99.8331 129.036 99.7404C129.13 99.6467 129.201 99.5365 129.252 99.4108C129.303 99.2851 129.325 99.1495 129.325 99.0072V94.7148H130.906V98.9918C130.911 99.3501 130.847 99.6875 130.715 100.009C130.581 100.329 130.398 100.608 130.164 100.849C129.931 101.087 129.656 101.279 129.34 101.419C129.026 101.56 128.69 101.634 128.335 101.641H128.307V101.638Z" fill="#D4D9D8"/>
<path fill-rule="evenodd" clip-rule="evenodd" d="M139.586 94.6968V96.2882H138.268V101.638H136.688V96.2882H135.377V94.6968H139.586Z" fill="#D4D9D8"/>
<path fill-rule="evenodd" clip-rule="evenodd" d="M145.637 101.638H144.055V94.7148H145.637V101.638Z" fill="#D4D9D8"/>
<path fill-rule="evenodd" clip-rule="evenodd" d="M153.327 94.7148C153.803 94.7148 154.245 94.8069 154.664 94.9885C155.08 95.1701 155.444 95.4185 155.757 95.7276C156.069 96.0395 156.312 96.4052 156.493 96.8253C156.674 97.2442 156.765 97.6952 156.765 98.1737C156.765 98.6511 156.674 99.0988 156.493 99.521C156.312 99.94 156.066 100.306 155.757 100.618C155.444 100.927 155.08 101.176 154.664 101.358C154.247 101.539 153.803 101.63 153.327 101.63C152.853 101.63 152.411 101.539 151.991 101.358C151.574 101.176 151.212 100.927 150.904 100.618C150.594 100.306 150.353 99.94 150.173 99.521C149.992 99.101 149.901 98.6511 149.901 98.1737C149.901 97.6952 149.992 97.2475 150.173 96.8253C150.353 96.403 150.596 96.0395 150.904 95.7276C151.214 95.4185 151.578 95.1701 151.991 94.9885C152.411 94.8069 152.855 94.7148 153.327 94.7148ZM153.334 100.037C153.589 100.037 153.828 99.9885 154.052 99.8926C154.276 99.7945 154.474 99.6622 154.641 99.4902C154.809 99.3215 154.941 99.1219 155.038 98.897C155.134 98.6721 155.182 98.4284 155.182 98.1704C155.182 97.9113 155.134 97.672 155.038 97.4449C154.941 97.2189 154.809 97.0193 154.641 96.8506C154.474 96.6819 154.276 96.5485 154.052 96.4515C153.828 96.3545 153.587 96.306 153.334 96.306C153.077 96.306 152.838 96.3545 152.611 96.4515C152.388 96.5485 152.19 96.6819 152.022 96.8506C151.855 97.0193 151.723 97.2189 151.624 97.4449C151.526 97.6687 151.478 97.9113 151.478 98.1704C151.478 98.4284 151.526 98.6687 151.624 98.897C151.72 99.1219 151.852 99.3215 152.022 99.4902C152.19 99.6589 152.388 99.7912 152.611 99.8926C152.838 99.9885 153.077 100.037 153.334 100.037Z" fill="#D4D9D8"/>
<path fill-rule="evenodd" clip-rule="evenodd" d="M164.996 94.7249H166.577V101.638H164.865L162.619 97.6068V101.638H161.039V94.7428H162.761L164.996 98.7634V94.7249Z" fill="#D4D9D8"/>
<path fill-rule="evenodd" clip-rule="evenodd" d="M32.0357 48.5599H29.4927V49.4986H31.5556V50.9335H29.4927V51.9156H32.0357V53.348H28.0701V47.1353L32.0357 47.125V48.5599Z" fill="#D4D9D8"/>
<path fill-rule="evenodd" clip-rule="evenodd" d="M39.022 53.4683C38.8265 53.4683 38.6308 53.4427 38.4377 53.3889C38.2446 53.3352 38.0592 53.2508 37.8864 53.1383C37.5842 52.9414 37.3479 52.6856 37.1802 52.3709C37.0125 52.0564 36.9287 51.7136 36.9287 51.3403H38.3513C38.3513 51.5091 38.3869 51.642 38.4606 51.7341C38.5342 51.8262 38.5978 51.8901 38.6537 51.9259C38.7553 51.995 38.8646 52.0308 38.9813 52.036C39.0982 52.0411 39.2151 52.018 39.3269 51.9669C39.4056 51.9336 39.4691 51.8901 39.5175 51.839C39.5657 51.7878 39.6013 51.7393 39.6267 51.6905C39.6521 51.642 39.6673 51.596 39.6723 51.55C39.6775 51.5039 39.68 51.4681 39.68 51.4399C39.68 51.4118 39.6775 51.3761 39.6723 51.33C39.6673 51.2839 39.6521 51.2379 39.6267 51.1868C39.6013 51.1355 39.5657 51.087 39.5175 51.0384C39.4691 50.9899 39.4056 50.9463 39.3269 50.9079C39.2659 50.8797 39.1999 50.8541 39.1287 50.8312C39.0576 50.8082 38.9839 50.7826 38.9052 50.7545C38.7655 50.7085 38.6181 50.6573 38.4683 50.601C38.3157 50.5448 38.1658 50.4679 38.0135 50.3733C37.8179 50.2481 37.6501 50.0946 37.5155 49.9079C37.3809 49.7212 37.2844 49.5217 37.2259 49.3068C37.1674 49.0919 37.1472 48.8693 37.1674 48.6417C37.1879 48.4142 37.2513 48.1942 37.3581 47.9844C37.4597 47.7927 37.5867 47.6264 37.7365 47.4831C37.889 47.3424 38.0567 47.2299 38.2422 47.148C38.4275 47.0662 38.6257 47.0176 38.8391 46.9997C39.0526 46.9818 39.2684 47.0022 39.487 47.0585C39.7004 47.1097 39.8934 47.1889 40.0661 47.2989C40.2414 47.409 40.3888 47.5419 40.5133 47.6979C40.6403 47.854 40.7369 48.0279 40.8029 48.2197C40.8715 48.4115 40.9045 48.6136 40.9045 48.8208H39.4895C39.4895 48.6904 39.4489 48.6008 39.3675 48.5497C39.2862 48.4985 39.2151 48.4653 39.1541 48.4474C39.144 48.4474 39.1161 48.4423 39.0753 48.4346C39.0322 48.427 38.9864 48.427 38.9331 48.4346C38.8798 48.4423 38.8238 48.4628 38.768 48.4933C38.7121 48.5241 38.6664 48.5727 38.6334 48.6417C38.5875 48.7314 38.5801 48.826 38.608 48.9257C38.6359 49.0254 38.6918 49.1022 38.7756 49.1584C38.8544 49.2045 38.9408 49.2454 39.0372 49.2811C39.1338 49.317 39.2329 49.3528 39.3396 49.3861C39.436 49.4142 39.5326 49.4448 39.6292 49.4781C39.7283 49.5114 39.8249 49.5523 39.9264 49.5958C40.2947 49.7647 40.5845 50.0153 40.7927 50.3427C41.001 50.6701 41.1078 51.0358 41.1078 51.4374C41.1078 51.8339 41.0035 52.1944 40.7927 52.5219C40.5845 52.8492 40.2947 53.0974 39.9264 53.2688C39.7816 53.3352 39.6342 53.3864 39.4819 53.4171C39.3244 53.4529 39.1719 53.4683 39.022 53.4683Z" fill="#D4D9D8"/>
<path fill-rule="evenodd" clip-rule="evenodd" d="M49.6692 47.0996V48.5345H48.4828V53.3483H47.0601V48.5345H45.8813V47.0996H49.6692Z" fill="#D4D9D8"/>
<path fill-rule="evenodd" clip-rule="evenodd" d="M55.924 47.0995C56.3328 47.1225 56.719 47.2223 57.0824 47.3962C57.4456 47.5726 57.7581 47.8004 58.0249 48.0816C58.2916 48.363 58.5025 48.693 58.6574 49.0638C58.8124 49.4372 58.8886 49.8362 58.8886 50.2583C58.8886 50.6778 58.8123 51.0691 58.6624 51.4323C58.5101 51.798 58.3017 52.1178 58.035 52.3941C57.7683 52.6703 57.4559 52.8928 57.0949 53.059C56.7368 53.2253 56.3456 53.3199 55.924 53.343H54.5012V47.0867H55.924V47.0995ZM55.924 51.9081C56.1424 51.885 56.3456 51.8288 56.5335 51.7341C56.7217 51.6421 56.8842 51.5217 57.0214 51.3786C57.1586 51.2354 57.2677 51.0666 57.3466 50.8746C57.4253 50.6829 57.4633 50.4783 57.4633 50.2634C57.4633 50.0435 57.4253 49.8337 57.3466 49.6317C57.2677 49.4322 57.1586 49.2531 57.0188 49.0971C56.8791 48.9411 56.7165 48.8132 56.531 48.716C56.3456 48.6161 56.1449 48.5574 55.924 48.5343V51.9081Z" fill="#D4D9D8"/>
<path fill-rule="evenodd" clip-rule="evenodd" d="M127.891 51.9157V53.3481H123.757V51.8031C124.167 51.555 124.539 51.3018 124.873 51.0461C125.208 50.7928 125.492 50.5448 125.726 50.312C125.962 50.0766 126.145 49.8644 126.272 49.67C126.401 49.4781 126.465 49.3221 126.465 49.2045C126.465 49.0229 126.404 48.8694 126.28 48.7441C126.155 48.6187 126.005 48.5574 125.826 48.5574C125.645 48.5574 125.495 48.6212 125.37 48.7466C125.245 48.872 125.185 49.0254 125.185 49.2096H123.755C123.755 48.9206 123.811 48.652 123.92 48.3987C124.029 48.1481 124.179 47.9282 124.367 47.7363C124.554 47.547 124.773 47.3962 125.024 47.2861C125.274 47.1761 125.543 47.1199 125.83 47.1199C126.117 47.1199 126.384 47.1761 126.634 47.2861C126.881 47.3962 127.098 47.547 127.285 47.7363C127.471 47.9256 127.619 48.1456 127.73 48.3987C127.839 48.6495 127.893 48.9206 127.893 49.2096C127.893 50.0281 127.285 50.931 126.074 51.9132L127.891 51.9157Z" fill="#D4D9D8"/>
<path fill-rule="evenodd" clip-rule="evenodd" d="M135.822 47.1174C136.248 47.1174 136.647 47.1992 137.023 47.363C137.398 47.5267 137.727 47.7492 138.007 48.028C138.289 48.3069 138.508 48.6368 138.67 49.0153C138.832 49.3939 138.913 49.798 138.913 50.2277C138.913 50.6574 138.832 51.0615 138.67 51.44C138.508 51.8186 138.287 52.1485 138.007 52.4274C137.727 52.7062 137.397 52.9287 137.023 53.0925C136.647 53.2561 136.248 53.338 135.822 53.338C135.395 53.338 134.996 53.2561 134.619 53.0925C134.247 52.9287 133.92 52.7062 133.639 52.4274C133.362 52.1485 133.141 51.8186 132.979 51.44C132.817 51.0615 132.735 50.6574 132.735 50.2277C132.735 49.798 132.817 49.3939 132.979 49.0153C133.141 48.6368 133.36 48.3069 133.639 48.028C133.916 47.7492 134.244 47.5267 134.619 47.363C134.996 47.1992 135.395 47.1174 135.822 47.1174ZM135.827 51.9082C136.057 51.9082 136.274 51.8646 136.474 51.7778C136.678 51.6908 136.853 51.5705 137.005 51.417C137.159 51.2635 137.277 51.0871 137.365 50.8825C137.45 50.6778 137.494 50.4604 137.494 50.2302C137.494 49.9974 137.45 49.7801 137.365 49.578C137.277 49.3734 137.159 49.1969 137.005 49.0434C136.853 48.8899 136.678 48.7697 136.474 48.6829C136.272 48.5959 136.056 48.5523 135.827 48.5523C135.596 48.5523 135.379 48.5959 135.179 48.6829C134.975 48.7697 134.8 48.8899 134.648 49.0434C134.495 49.1969 134.376 49.3734 134.29 49.578C134.203 49.7827 134.159 50.0001 134.159 50.2302C134.159 50.4629 134.203 50.6805 134.29 50.8825C134.376 51.0871 134.495 51.2635 134.648 51.417C134.8 51.5705 134.975 51.6908 135.179 51.7778C135.379 51.8646 135.596 51.9082 135.827 51.9082Z" fill="#D4D9D8"/>
<path fill-rule="evenodd" clip-rule="evenodd" d="M147.899 51.9157V53.3481H143.766V51.8031C144.174 51.555 144.548 51.3018 144.881 51.0461C145.217 50.7928 145.5 50.5448 145.735 50.312C145.971 50.0766 146.154 49.8644 146.28 49.67C146.41 49.4781 146.474 49.3221 146.474 49.2045C146.474 49.0229 146.413 48.8694 146.288 48.7441C146.164 48.6187 146.014 48.5574 145.834 48.5574C145.654 48.5574 145.504 48.6212 145.379 48.7466C145.254 48.872 145.194 49.0254 145.194 49.2096H143.763C143.763 48.9206 143.82 48.652 143.928 48.3987C144.038 48.1481 144.188 47.9282 144.376 47.7363C144.563 47.547 144.782 47.3962 145.034 47.2861C145.283 47.1761 145.552 47.1199 145.839 47.1199C146.126 47.1199 146.393 47.1761 146.641 47.2861C146.89 47.3962 147.107 47.547 147.294 47.7363C147.479 47.9256 147.628 48.1456 147.739 48.3987C147.848 48.6495 147.902 48.9206 147.902 49.2096C147.902 50.0281 147.294 50.931 146.082 51.9132L147.899 51.9157Z" fill="#D4D9D8"/>
<path fill-rule="evenodd" clip-rule="evenodd" d="M155.831 47.1174C156.258 47.1174 156.656 47.1992 157.032 47.363C157.408 47.5267 157.736 47.7492 158.015 48.028C158.298 48.3069 158.516 48.6368 158.679 49.0153C158.841 49.3939 158.922 49.798 158.922 50.2277C158.922 50.6574 158.841 51.0615 158.679 51.44C158.516 51.8186 158.294 52.1485 158.015 52.4274C157.736 52.7062 157.405 52.9287 157.032 53.0925C156.656 53.2561 156.258 53.338 155.831 53.338C155.404 53.338 155.004 53.2561 154.628 53.0925C154.255 52.9287 153.928 52.7062 153.648 52.4274C153.371 52.1485 153.15 51.8186 152.988 51.44C152.825 51.0615 152.744 50.6574 152.744 50.2277C152.744 49.798 152.825 49.3939 152.988 49.0153C153.15 48.6368 153.368 48.3069 153.648 48.028C153.925 47.7492 154.253 47.5267 154.628 47.363C155.004 47.1992 155.404 47.1174 155.831 47.1174ZM155.835 51.9082C156.066 51.9082 156.283 51.8646 156.483 51.7778C156.687 51.6908 156.861 51.5705 157.014 51.417C157.167 51.2635 157.286 51.0871 157.372 50.8825C157.459 50.6778 157.503 50.4604 157.503 50.2302C157.503 49.9974 157.459 49.7801 157.372 49.578C157.286 49.3734 157.167 49.1969 157.014 49.0434C156.861 48.8899 156.687 48.7697 156.483 48.6829C156.283 48.5959 156.064 48.5523 155.835 48.5523C155.604 48.5523 155.388 48.5959 155.188 48.6829C154.986 48.7697 154.809 48.8899 154.657 49.0434C154.505 49.1969 154.385 49.3734 154.299 49.578C154.212 49.7827 154.168 50.0001 154.168 50.2302C154.168 50.4629 154.212 50.6805 154.299 50.8825C154.385 51.0871 154.505 51.2635 154.657 51.417C154.809 51.5705 154.984 51.6908 155.188 51.7778C155.388 51.8646 155.604 51.9082 155.835 51.9082Z" fill="#D4D9D8"/>
<path fill-rule="evenodd" clip-rule="evenodd" d="M72.7976 49.3784H74.8274V41.5696H72.7976V49.3784Z" fill="#D4D9D8"/>
<path fill-rule="evenodd" clip-rule="evenodd" d="M76.3745 49.3785H78.4069V33.3516H76.3745V49.3785Z" fill="#D4D9D8"/>
<path fill-rule="evenodd" clip-rule="evenodd" d="M79.9541 49.3784H81.9865V25.2305H79.9541V49.3784Z" fill="#D4D9D8"/>
<path fill-rule="evenodd" clip-rule="evenodd" d="M83.5337 49.3784H85.5636V16.8564H83.5337V49.3784Z" fill="#D4D9D8"/>
<path fill-rule="evenodd" clip-rule="evenodd" d="M87.1133 49.3785H89.1431V8.62817H87.1133V49.3785Z" fill="#D4D9D8"/>
<path fill-rule="evenodd" clip-rule="evenodd" d="M90.6926 49.3785H92.7224V0.333252H90.6926V49.3785Z" fill="#D4D9D8"/>
<path fill-rule="evenodd" clip-rule="evenodd" d="M114.2 49.3784H112.171V41.5696H114.2V49.3784Z" fill="#D4D9D8"/>
<path fill-rule="evenodd" clip-rule="evenodd" d="M110.62 49.3785H108.59V33.3516H110.62V49.3785Z" fill="#D4D9D8"/>
<path fill-rule="evenodd" clip-rule="evenodd" d="M107.041 49.3784H105.011V25.2305H107.041V49.3784Z" fill="#D4D9D8"/>
<path fill-rule="evenodd" clip-rule="evenodd" d="M103.461 49.3784H101.431V16.8564H103.461V49.3784Z" fill="#D4D9D8"/>
<path fill-rule="evenodd" clip-rule="evenodd" d="M99.8817 49.3785H97.8516V8.62817H99.8817V49.3785Z" fill="#D4D9D8"/>
<path fill-rule="evenodd" clip-rule="evenodd" d="M96.3021 49.3785H94.272V0.333252H96.3021V49.3785Z" fill="#D4D9D8"/>
<path fill-rule="evenodd" clip-rule="evenodd" d="M117.968 53.4683V51.4246H69.03V53.4683H117.968Z" fill="#D4D9D8"/>
</svg>
