<svg width="136" height="99" viewBox="0 0 136 99" fill="none" xmlns="http://www.w3.org/2000/svg">
<path fill-rule="evenodd" clip-rule="evenodd" d="M77.9443 59.0547H74.6593V38.5802L77.9443 34.8994V59.0547ZM49.4409 59.9805H49.8997V28.7029L55.668 22.2382L57.236 23.9952V59.9826H62.3557V28.3482C60.9571 26.7768 59.5563 25.2077 58.1535 23.6384V2.24223L69.6924 10.6369V24.2013C68.2908 25.5768 66.8906 26.9542 65.4897 28.3317V59.9826H70.61V24.5911L77.9454 17.3862V33.5137C76.5449 35.083 75.1444 36.6523 73.7439 38.2235C73.7439 45.1665 73.7395 52.1097 73.7439 59.0526V59.9805H78.863V33.8725L80.431 32.1157L86.1995 38.5802V59.9805H87.1171V38.2255C84.891 35.7263 82.6593 33.2312 80.431 30.734L78.863 32.4889V15.1963L70.61 23.3002V10.1647C66.1523 6.91898 61.6932 3.67744 57.236 0.435791V22.6114L55.668 20.8567C53.4394 23.3538 51.2088 25.849 48.9822 28.3482V59.9826H49.4409V59.9805ZM58.1535 25.022L61.4384 28.7029V59.0547H58.1535V25.022ZM69.6902 25.4942V59.0547H66.4052V28.7193L69.6902 25.4942Z" fill="#00C194"/>
<path fill-rule="evenodd" clip-rule="evenodd" d="M5.81479 79.5581C5.61495 79.589 5.41511 79.6116 5.21527 79.6281C5.01544 79.6426 4.80958 79.6591 4.59342 79.6756V83.9816H0.705078V66.9648H4.5955C5.56195 66.9814 6.46719 67.1587 7.31143 67.501C8.15557 67.8434 8.89568 68.3011 9.53188 68.8702C10.1681 69.4435 10.6676 70.1116 11.0285 70.8726C11.3893 71.6294 11.5688 72.4439 11.5688 73.312C11.5688 74.2234 11.3772 75.073 10.9938 75.8566C10.6104 76.6402 10.0721 77.3145 9.38295 77.8898L13.1123 83.9816H8.53072L5.81479 79.5581ZM4.5955 75.7163C5.00941 75.6999 5.40493 75.6277 5.78008 75.4957C6.15533 75.3637 6.48558 75.1884 6.76897 74.972C7.05247 74.7555 7.27464 74.5018 7.43572 74.2152C7.59679 73.9285 7.67837 73.6212 7.67837 73.2955C7.67837 72.9696 7.59679 72.6665 7.43572 72.3882C7.27464 72.1099 7.05247 71.8602 6.76897 71.6438C6.48558 71.4273 6.15533 71.2519 5.78008 71.12C5.40493 70.988 5.00941 70.9138 4.5955 70.8993V75.7163Z" fill="#00C194"/>
<path fill-rule="evenodd" clip-rule="evenodd" d="M25.8885 70.8292H18.9356V73.413H24.5754V77.3474H18.9356V80.0467H25.8885V83.9815H15.0452V66.9174L25.8885 66.8948V70.8292Z" fill="#00C194"/>
<path fill-rule="evenodd" clip-rule="evenodd" d="M38.0431 83.9815L37.3763 81.9091H32.0587L31.3674 83.9815H27.2466L33.0007 66.8948H36.6831L42.1393 83.9815H38.0431ZM33.3922 77.9743H36.1305L34.795 73.8316L33.3922 77.9743Z" fill="#00C194"/>
<path fill-rule="evenodd" clip-rule="evenodd" d="M53.8328 83.9816H43.7744V66.8701H47.6648V80.0467H53.8328V83.9816Z" fill="#00C194"/>
<path fill-rule="evenodd" clip-rule="evenodd" d="M70.4074 70.8292H63.4548V73.413H69.0945V77.3474H63.4548V80.0467H70.4074V83.9815H59.5645V66.9174L70.4074 66.8948V70.8292Z" fill="#00C194"/>
<path fill-rule="evenodd" clip-rule="evenodd" d="M77.9114 84.3072C77.3749 84.3072 76.8405 84.2331 76.3105 84.0866C75.7805 83.94 75.279 83.7113 74.8038 83.3996C73.976 82.8574 73.3299 82.1541 72.8711 81.2922C72.4101 80.4302 72.1802 79.4879 72.1802 78.463H76.0696C76.0696 78.9291 76.1704 79.29 76.3696 79.5457C76.57 79.8013 76.7452 79.9767 76.8996 80.0695C77.1756 80.255 77.4745 80.356 77.7975 80.3726C78.1195 80.3891 78.4337 80.3251 78.7414 80.187C78.9549 80.0942 79.129 79.9767 79.2593 79.8385C79.3897 79.6983 79.4893 79.5622 79.5583 79.4302C79.6284 79.2982 79.6711 79.1703 79.6853 79.0466C79.7017 78.9229 79.7072 78.8219 79.7072 78.7435C79.7072 78.6652 79.6995 78.564 79.6853 78.4403C79.6689 78.3166 79.6284 78.1847 79.5583 78.0445C79.4893 77.9043 79.3897 77.7681 79.2593 77.6362C79.129 77.5041 78.9549 77.3846 78.7414 77.2754C78.5717 77.197 78.3921 77.1269 78.2005 77.065C78.0089 77.0031 77.8052 76.933 77.5906 76.8546C77.2073 76.7309 76.8076 76.5907 76.3937 76.436C75.9798 76.2814 75.5659 76.071 75.1509 75.8071C74.6144 75.4648 74.161 75.0379 73.792 74.5266C73.423 74.0152 73.1602 73.4625 72.9992 72.8728C72.8383 72.2831 72.7857 71.6748 72.8383 71.0458C72.8908 70.4169 73.0649 69.8167 73.3562 69.2414C73.631 68.7135 73.9782 68.2557 74.3921 67.8681C74.806 67.4804 75.267 67.1732 75.7729 66.9483C76.2777 66.7236 76.8219 66.5876 77.4077 66.5401C77.9902 66.4926 78.5815 66.5483 79.1794 66.703C79.7631 66.8432 80.2887 67.0639 80.7595 67.367C81.2347 67.6702 81.6432 68.0351 81.9826 68.462C82.3275 68.8888 82.5925 69.3651 82.7743 69.893C82.9572 70.421 83.0491 70.9715 83.0491 71.5469H79.1794C79.1794 71.1901 79.0677 70.9426 78.8454 70.8024C78.6232 70.6622 78.4271 70.5694 78.2574 70.524C78.2268 70.524 78.1534 70.5117 78.0395 70.489C77.9256 70.4664 77.7953 70.4664 77.6486 70.489C77.503 70.5117 77.353 70.5674 77.1997 70.6519C77.0464 70.7364 76.9248 70.8726 76.8306 71.0601C76.708 71.3076 76.6839 71.5674 76.7617 71.8396C76.8383 72.1118 76.9916 72.3242 77.2216 72.4789C77.4362 72.6026 77.6749 72.716 77.9355 72.8172C78.1972 72.9181 78.472 73.0151 78.7633 73.1079C79.025 73.1862 79.29 73.2707 79.5572 73.3636C79.8255 73.4563 80.0926 73.5656 80.3708 73.6893C81.376 74.1553 82.1666 74.8379 82.7371 75.7371C83.3087 76.6382 83.5966 77.6382 83.5966 78.7395C83.5966 79.8262 83.3087 80.818 82.7371 81.7191C82.1666 82.6205 81.376 83.3026 80.3708 83.7667C79.9744 83.9523 79.5692 84.0882 79.1553 84.1753C78.7414 84.264 78.3253 84.3072 77.9114 84.3072Z" fill="#00C194"/>
<path fill-rule="evenodd" clip-rule="evenodd" d="M95.4282 66.8247V70.7591H92.1848V83.9816H88.2942V70.7591H85.0706V66.8247H95.4282Z" fill="#00C194"/>
<path fill-rule="evenodd" clip-rule="evenodd" d="M107.238 83.9815L106.571 81.9091H101.253L100.562 83.9815H96.4409L102.195 66.8948H105.878L111.332 83.9815H107.238ZM102.589 77.9743H105.327L103.992 73.8316L102.589 77.9743Z" fill="#00C194"/>
<path fill-rule="evenodd" clip-rule="evenodd" d="M122.661 66.8247V70.7591H119.415V83.9816H115.526V70.7591H112.302V66.8247H122.661Z" fill="#00C194"/>
<path fill-rule="evenodd" clip-rule="evenodd" d="M135.39 70.8292H128.439V73.413H134.078V77.3474H128.439V80.0467H135.39V83.9815H124.55V66.9174L135.39 66.8948V70.8292Z" fill="#00C194"/>
<path fill-rule="evenodd" clip-rule="evenodd" d="M3.32711 98.1064L4.07138 96.2695L1.87744 91.5657H3.51063L4.83197 94.3861L5.95741 91.5657H7.55808L4.92778 98.1064H3.32711Z" fill="#00C194"/>
<path fill-rule="evenodd" clip-rule="evenodd" d="M14.9333 91.6113C15.3757 91.6113 15.7917 91.6952 16.181 91.8669C16.5705 92.0379 16.9111 92.2691 17.2026 92.5596C17.4942 92.8503 17.7225 93.1946 17.8918 93.5886C18.0611 93.9826 18.1446 94.405 18.1446 94.8528C18.1446 95.3005 18.0611 95.7206 17.8918 96.1164C17.7225 96.5111 17.4942 96.8551 17.2026 97.1462C16.9111 97.4362 16.5705 97.6688 16.181 97.8386C15.7917 98.0095 15.3757 98.0944 14.9333 98.0944C14.4907 98.0944 14.0748 98.0095 13.6853 97.8386C13.2959 97.6677 12.9574 97.4362 12.6679 97.1462C12.3804 96.8529 12.1521 96.5111 11.9828 96.1164C11.8135 95.7228 11.73 95.3005 11.73 94.8528C11.73 94.405 11.8135 93.9826 11.9828 93.5886C12.1521 93.1946 12.3783 92.8503 12.6679 92.5596C12.9554 92.2691 13.2959 92.0355 13.6853 91.8669C14.0768 91.6952 14.4907 91.6113 14.9333 91.6113ZM14.9372 96.6048C15.1758 96.6048 15.4001 96.5596 15.6101 96.4692C15.8201 96.3777 16.0038 96.2531 16.1607 96.0944C16.3177 95.9356 16.4421 95.7492 16.5318 95.5376C16.6215 95.3248 16.6664 95.0977 16.6664 94.8568C16.6664 94.6158 16.6215 94.3888 16.5318 94.1763C16.4421 93.9639 16.3177 93.7782 16.1607 93.6195C16.0038 93.4608 15.8201 93.3346 15.6101 93.2442C15.4001 93.153 15.1758 93.1083 14.9372 93.1083C14.6987 93.1083 14.4745 93.153 14.2645 93.2442C14.0544 93.3346 13.8709 93.4608 13.7139 93.6195C13.5569 93.7782 13.4325 93.9639 13.3428 94.1763C13.2531 94.3888 13.2082 94.6158 13.2082 94.8568C13.2082 95.0977 13.2531 95.3248 13.3428 95.5376C13.4325 95.7492 13.5569 95.9356 13.7139 96.0944C13.8709 96.2531 14.0544 96.3777 14.2645 96.4692C14.4745 96.5596 14.6987 96.6048 14.9372 96.6048Z" fill="#00C194"/>
<path fill-rule="evenodd" clip-rule="evenodd" d="M24.7651 98.1065C24.4389 98.1065 24.1289 98.0469 23.8394 97.9245C23.5478 97.8033 23.2888 97.6324 23.0605 97.4074C22.828 97.1726 22.6486 96.9069 22.5222 96.6114C22.3978 96.3159 22.3305 96.0017 22.3264 95.6654V91.6072H23.8027V95.6544C23.8027 95.9146 23.8985 96.1417 24.0902 96.3346C24.2819 96.5188 24.5102 96.6092 24.7712 96.6092C24.8997 96.6092 25.022 96.5827 25.1383 96.5287C25.2545 96.4758 25.3564 96.4052 25.4441 96.3159C25.5317 96.2288 25.5989 96.1252 25.6459 96.0072C25.6928 95.8892 25.7153 95.7624 25.7153 95.6279V91.6072H27.1915V95.6191C27.1976 95.9554 27.1384 96.2729 27.012 96.5739C26.8876 96.8749 26.7144 97.1373 26.4962 97.36C26.278 97.5849 26.0211 97.7614 25.7275 97.8937C25.4339 98.026 25.1199 98.0965 24.7875 98.1021L24.7651 98.1065Z" fill="#00C194"/>
<path fill-rule="evenodd" clip-rule="evenodd" d="M33.7549 96.4273C33.6795 96.4406 33.6041 96.4494 33.5286 96.4549C33.4533 96.4615 33.3738 96.467 33.2921 96.4736V98.1088H31.8159V91.6479H33.2921C33.6591 91.6545 34.0037 91.722 34.3239 91.8522C34.644 91.9826 34.9254 92.1551 35.168 92.3717C35.4106 92.5906 35.5982 92.8438 35.7369 93.1328C35.8734 93.4192 35.9429 93.7286 35.9429 94.059C35.9429 94.405 35.8694 94.7265 35.7246 95.0261C35.5799 95.3226 35.376 95.5806 35.113 95.7967L36.528 98.1099H34.7887L33.7549 96.4273ZM33.2901 94.97C33.4471 94.9642 33.598 94.9373 33.7407 94.8853C33.8834 94.8365 34.0078 94.7705 34.1159 94.6875C34.2239 94.6052 34.3076 94.51 34.3687 94.4009C34.4299 94.2919 34.4605 94.1763 34.4605 94.0525C34.4605 93.9288 34.4299 93.8133 34.3687 93.7082C34.3076 93.6032 34.2239 93.508 34.1159 93.4257C34.0078 93.3436 33.8834 93.2768 33.7407 93.2279C33.598 93.1783 33.4471 93.149 33.2901 93.1434V94.97Z" fill="#00C194"/>
<path fill-rule="evenodd" clip-rule="evenodd" d="M46.0724 91.5925V93.0871H44.8409V98.1065H43.3626V93.0871H42.1392V91.5925H46.0724Z" fill="#00C194"/>
<path fill-rule="evenodd" clip-rule="evenodd" d="M54.1081 98.1064L53.8553 97.3203H51.8367L51.5736 98.1064H50.0098L52.1955 91.6194H53.5942L55.6659 98.1064H54.1081ZM52.3423 95.8263H53.3823L52.8745 94.2527L52.3423 95.8263Z" fill="#00C194"/>
<path fill-rule="evenodd" clip-rule="evenodd" d="M65.0533 98.1086H63.5669V97.9498C63.4038 98.0093 63.2366 98.0512 63.0632 98.0777C62.8921 98.1042 62.7207 98.1163 62.5515 98.1163C62.1375 98.1163 61.7338 98.0358 61.3362 97.877C60.9407 97.7183 60.5838 97.479 60.2699 97.1615C59.956 96.8439 59.7214 96.4856 59.5665 96.0876C59.4114 95.6895 59.334 95.2816 59.334 94.8632C59.334 94.444 59.4114 94.0337 59.5665 93.634C59.7214 93.2335 59.956 92.8729 60.2699 92.5554C60.5838 92.238 60.9407 91.9986 61.3362 91.8399C61.7318 91.6812 62.1375 91.6006 62.5515 91.6006C62.9654 91.6006 63.3692 91.6812 63.7668 91.8399C64.1623 91.9986 64.5191 92.238 64.8331 92.5554L63.7851 93.6153C63.6159 93.4443 63.4241 93.3165 63.208 93.2318C62.9918 93.1473 62.7737 93.104 62.5535 93.104C62.3312 93.104 62.1131 93.1473 61.899 93.2318C61.6829 93.3165 61.4913 93.4459 61.322 93.6153C61.1528 93.7862 61.0242 93.9799 60.9366 94.1989C60.8489 94.4171 60.8061 94.6377 60.8061 94.8607C60.8061 95.0853 60.8489 95.3059 60.9366 95.522C61.0242 95.7414 61.1528 95.9354 61.322 96.1063C61.4729 96.2596 61.6441 96.3776 61.8338 96.4647C62.0233 96.5496 62.2192 96.6014 62.4189 96.6157C62.6209 96.63 62.8186 96.6113 63.0185 96.5584C63.2162 96.5043 63.3997 96.415 63.5689 96.2916V95.9641H62.2845V94.4708H65.0533V98.1086Z" fill="#00C194"/>
<path fill-rule="evenodd" clip-rule="evenodd" d="M73.309 98.1065H69.4885V91.6113H70.9668V96.6137H73.309V98.1065Z" fill="#00C194"/>
<path fill-rule="evenodd" clip-rule="evenodd" d="M79.1245 98.1065H77.6484V91.6113H79.1245V98.1065Z" fill="#00C194"/>
<path fill-rule="evenodd" clip-rule="evenodd" d="M87.4313 91.6194H88.9074V98.1064H87.3087L85.2107 94.3243V98.1064H83.7346V91.6381H85.341L87.4313 95.4107V91.6194Z" fill="#00C194"/>
<path fill-rule="evenodd" clip-rule="evenodd" d="M97.4778 93.1139H94.8367V94.094H96.9796V95.5882H94.8367V96.6136H97.4778V98.1064H93.3606V91.6275L97.4778 91.6194V93.1139Z" fill="#00C194"/>
<path fill-rule="evenodd" clip-rule="evenodd" d="M106.64 91.6194H108.117V98.1064H106.64V95.6587H104.787V98.1064H103.311V91.6194H104.787V94.1656H106.64V91.6194Z" fill="#00C194"/>
<path fill-rule="evenodd" clip-rule="evenodd" d="M116.615 93.1139H113.976V94.094H116.118V95.5882H113.976V96.6136H116.615V98.1064H112.5V91.6275L116.615 91.6194V93.1139Z" fill="#00C194"/>
<path fill-rule="evenodd" clip-rule="evenodd" d="M123.053 96.4273C122.976 96.4406 122.902 96.4494 122.824 96.4549C122.748 96.4615 122.67 96.467 122.587 96.4736V98.1088H121.111V91.6479H122.587C122.954 91.6545 123.299 91.722 123.619 91.8522C123.94 91.9826 124.221 92.1551 124.463 92.3717C124.705 92.5906 124.893 92.8438 125.033 93.1328C125.168 93.4192 125.238 93.7286 125.238 94.059C125.238 94.405 125.165 94.7265 125.02 95.0261C124.875 95.3226 124.671 95.5806 124.408 95.7967L125.823 98.1099H124.084L123.053 96.4273ZM122.59 94.97C122.746 94.9642 122.897 94.9373 123.041 94.8853C123.183 94.8365 123.307 94.7705 123.415 94.6875C123.524 94.6052 123.607 94.51 123.668 94.4009C123.729 94.2919 123.76 94.1763 123.76 94.0525C123.76 93.9288 123.729 93.8133 123.668 93.7082C123.607 93.6032 123.524 93.508 123.415 93.4257C123.307 93.3436 123.183 93.2768 123.041 93.2279C122.897 93.1783 122.746 93.149 122.59 93.1434V94.97Z" fill="#00C194"/>
<path fill-rule="evenodd" clip-rule="evenodd" d="M134.225 93.1139H131.585V94.094H133.729V95.5882H131.585V96.6136H134.225V98.1064H130.109V91.6275L134.225 91.6194V93.1139Z" fill="#00C194"/>
<path fill-rule="evenodd" clip-rule="evenodd" d="M21.9472 55.5142H19.6431V56.3699H21.5128V57.6752H19.6431V58.5701H21.9472V59.8734H18.3545V54.2191L21.9472 54.2109V55.5142Z" fill="#00C194"/>
<path fill-rule="evenodd" clip-rule="evenodd" d="M24.7162 59.9806C24.5388 59.9806 24.3614 59.9559 24.1861 59.9064C24.0108 59.8569 23.8436 59.7827 23.6865 59.6796C23.4112 59.5001 23.1993 59.2671 23.0462 58.9806C22.8933 58.696 22.8179 58.3825 22.8179 58.0423H24.1066C24.1066 58.1969 24.1392 58.3166 24.2064 58.401C24.2717 58.4856 24.3308 58.5434 24.3817 58.5743C24.4736 58.6361 24.5735 58.6691 24.6795 58.6753C24.7855 58.6794 24.8916 58.6609 24.9914 58.6135C25.0628 58.5825 25.1199 58.5434 25.1627 58.498C25.2055 58.4526 25.2383 58.4072 25.2627 58.3639C25.285 58.3207 25.2994 58.2773 25.3055 58.2361C25.3095 58.1949 25.3136 58.1619 25.3136 58.135C25.3136 58.1103 25.3116 58.0752 25.3055 58.034C25.3013 57.9928 25.2871 57.9494 25.2627 57.902C25.2402 57.8566 25.2076 57.8113 25.1627 57.768C25.1199 57.7247 25.0628 57.6835 24.9914 57.6484C24.9364 57.6236 24.8752 57.5989 24.8121 57.5783C24.7488 57.5577 24.6816 57.535 24.6102 57.5082C24.4837 57.4669 24.3512 57.4215 24.2126 57.37C24.0759 57.3185 23.9373 57.2483 23.8007 57.1618C23.6232 57.0483 23.4724 56.9082 23.35 56.7369C23.2277 56.5679 23.14 56.3843 23.087 56.1885C23.034 55.9926 23.0156 55.7904 23.034 55.5822C23.0523 55.374 23.1095 55.1739 23.2053 54.9842C23.297 54.8089 23.4112 54.6584 23.5479 54.5285C23.6845 54.4006 23.8374 54.2975 24.0046 54.2233C24.1717 54.1491 24.3533 54.1037 24.547 54.0892C24.7407 54.0748 24.9364 54.0912 25.1341 54.1429C25.3279 54.1883 25.5012 54.2625 25.6582 54.3634C25.8152 54.4646 25.9498 54.5842 26.064 54.7264C26.1782 54.8688 26.2658 55.0254 26.3249 55.2007C26.3861 55.3759 26.4167 55.5574 26.4167 55.7493H25.1341C25.1341 55.6317 25.0974 55.5491 25.0241 55.5017C24.9507 55.4564 24.8854 55.4254 24.8304 55.409C24.8202 55.409 24.7957 55.4048 24.757 55.3967C24.7182 55.3884 24.6754 55.3884 24.6265 55.3967C24.5775 55.4048 24.5286 55.4214 24.4776 55.4502C24.4266 55.4791 24.3859 55.5245 24.3552 55.5842C24.3145 55.6667 24.3064 55.7533 24.3328 55.8421C24.3573 55.9327 24.4084 56.0029 24.4858 56.0545C24.5572 56.0957 24.6367 56.1328 24.7223 56.1658C24.8079 56.1988 24.8997 56.2317 24.9976 56.2627C25.0832 56.2874 25.1709 56.3163 25.2606 56.3472C25.3503 56.3782 25.438 56.4132 25.5297 56.4545C25.8621 56.609 26.1251 56.8359 26.3147 57.1329C26.5044 57.4319 26.6002 57.7639 26.6002 58.1288C26.6002 58.4898 26.5044 58.8176 26.3147 59.1166C26.1251 59.4156 25.8642 59.6403 25.5297 59.795C25.3992 59.8569 25.2646 59.9023 25.126 59.9291C24.9914 59.9682 24.8528 59.9806 24.7162 59.9806Z" fill="#00C194"/>
<path fill-rule="evenodd" clip-rule="evenodd" d="M30.8024 54.1882V55.4915H29.7278V59.8734H28.4372V55.4915H27.3708V54.1882H30.8024Z" fill="#00C194"/>
<path fill-rule="evenodd" clip-rule="evenodd" d="M32.9087 54.1883C33.2799 54.2088 33.6305 54.2997 33.9568 54.4584C34.2851 54.6172 34.5705 54.8255 34.8112 55.0831C35.0517 55.3409 35.2434 55.638 35.3842 55.9782C35.5248 56.3183 35.5941 56.6793 35.5941 57.0669C35.5941 57.4485 35.5248 57.8031 35.3881 58.135C35.2516 58.4671 35.0619 58.7579 34.8194 59.0115C34.5787 59.2631 34.2932 59.4652 33.969 59.6177C33.6428 59.7704 33.2901 59.8549 32.9087 59.8754H31.6201V54.1821H32.9087V54.1883ZM32.9087 58.562C33.1066 58.5413 33.2921 58.4876 33.4614 58.4032C33.6326 58.3186 33.7795 58.2092 33.9038 58.0794C34.0281 57.9474 34.126 57.7949 34.1974 57.6196C34.2687 57.4443 34.3034 57.2587 34.3034 57.0649C34.3034 56.8649 34.2687 56.6732 34.1974 56.4896C34.126 56.306 34.0262 56.1452 33.8997 56.0029C33.7733 55.8607 33.6244 55.7451 33.4572 55.6565C33.2901 55.5657 33.1066 55.512 32.9087 55.4915V58.562Z" fill="#00C194"/>
<path fill-rule="evenodd" clip-rule="evenodd" d="M101.264 54.1943H102.552V59.8733H101.264V56.2626L100.882 56.741L99.8804 55.9162L101.264 54.1943Z" fill="#00C194"/>
<path fill-rule="evenodd" clip-rule="evenodd" d="M105.466 58.2918C105.211 58.2671 104.972 58.1949 104.748 58.0794C104.524 57.9639 104.33 57.8155 104.165 57.6361C104 57.4566 103.869 57.2484 103.775 57.0112C103.682 56.7741 103.635 56.5225 103.635 56.2545C103.635 55.972 103.689 55.706 103.796 55.4565C103.902 55.207 104.047 54.9904 104.231 54.8047C104.414 54.6193 104.628 54.4729 104.875 54.3656C105.121 54.2583 105.385 54.2026 105.663 54.2026C105.943 54.2026 106.206 54.2563 106.449 54.3656C106.693 54.4729 106.906 54.6193 107.09 54.8047C107.273 54.9904 107.417 55.207 107.523 55.4565C107.63 55.706 107.684 55.972 107.684 56.2545C107.684 56.5576 107.621 56.8504 107.493 57.135L106.121 59.8735H104.679L105.466 58.2918ZM105.663 55.5059C105.562 55.5059 105.466 55.5245 105.378 55.5636C105.288 55.6029 105.211 55.6565 105.142 55.7266C105.072 55.7966 105.02 55.875 104.981 55.9659C104.941 56.0565 104.924 56.1514 104.924 56.2545C104.924 56.3576 104.941 56.4545 104.981 56.5432C105.02 56.6339 105.072 56.7123 105.142 56.7782C105.211 56.8442 105.288 56.8979 105.378 56.937C105.468 56.9762 105.562 56.9948 105.663 56.9948C105.868 56.9948 106.041 56.9225 106.182 56.7782C106.324 56.6339 106.395 56.4586 106.395 56.2545C106.395 56.1514 106.377 56.0545 106.339 55.9659C106.299 55.875 106.249 55.7966 106.182 55.7266C106.116 55.6565 106.04 55.6029 105.949 55.5636C105.862 55.5266 105.766 55.5059 105.663 55.5059Z" fill="#00C194"/>
<path fill-rule="evenodd" clip-rule="evenodd" d="M110.492 58.2918C110.237 58.2671 109.998 58.1949 109.774 58.0794C109.55 57.9639 109.356 57.8155 109.191 57.6361C109.026 57.4566 108.895 57.2484 108.801 57.0112C108.708 56.7741 108.661 56.5225 108.661 56.2545C108.661 55.972 108.715 55.706 108.822 55.4565C108.928 55.207 109.073 54.9904 109.257 54.8047C109.441 54.6193 109.654 54.4729 109.901 54.3656C110.147 54.2583 110.411 54.2026 110.689 54.2026C110.969 54.2026 111.232 54.2563 111.475 54.3656C111.719 54.4729 111.932 54.6193 112.116 54.8047C112.299 54.9904 112.443 55.207 112.549 55.4565C112.656 55.706 112.71 55.972 112.71 56.2545C112.71 56.5576 112.648 56.8504 112.519 57.135L111.147 59.8735H109.705L110.492 58.2918ZM110.692 55.5059C110.591 55.5059 110.494 55.5245 110.407 55.5636C110.317 55.6029 110.239 55.6565 110.17 55.7266C110.101 55.7966 110.047 55.875 110.009 55.9659C109.97 56.0565 109.951 56.1514 109.951 56.2545C109.951 56.3576 109.97 56.4545 110.009 56.5432C110.047 56.6339 110.101 56.7123 110.17 56.7782C110.239 56.8442 110.317 56.8979 110.407 56.937C110.496 56.9762 110.591 56.9948 110.692 56.9948C110.896 56.9948 111.069 56.9225 111.209 56.7782C111.353 56.6339 111.424 56.4586 111.424 56.2545C111.424 56.1514 111.405 56.0545 111.367 55.9659C111.329 55.875 111.277 55.7966 111.209 55.7266C111.145 55.6565 111.067 55.6029 110.977 55.5636C110.888 55.5266 110.793 55.5059 110.692 55.5059Z" fill="#00C194"/>
<path fill-rule="evenodd" clip-rule="evenodd" d="M115.52 58.2918C115.265 58.2671 115.026 58.1949 114.803 58.0794C114.579 57.9639 114.385 57.8155 114.219 57.6361C114.054 57.4566 113.924 57.2484 113.83 57.0112C113.737 56.7741 113.689 56.5225 113.689 56.2545C113.689 55.972 113.742 55.706 113.85 55.4565C113.957 55.207 114.101 54.9904 114.285 54.8047C114.468 54.6193 114.683 54.4729 114.929 54.3656C115.175 54.2583 115.439 54.2026 115.718 54.2026C115.997 54.2026 116.261 54.2563 116.503 54.3656C116.748 54.4729 116.961 54.6193 117.143 54.8047C117.327 54.9904 117.472 55.207 117.578 55.4565C117.684 55.706 117.739 55.972 117.739 56.2545C117.739 56.5576 117.675 56.8504 117.547 57.135L116.174 59.8735H114.733L115.52 58.2918ZM115.718 55.5059C115.617 55.5059 115.52 55.5245 115.433 55.5636C115.343 55.6029 115.265 55.6565 115.196 55.7266C115.127 55.7966 115.074 55.875 115.035 55.9659C114.996 56.0565 114.977 56.1514 114.977 56.2545C114.977 56.3576 114.996 56.4545 115.035 56.5432C115.074 56.6318 115.127 56.7123 115.196 56.7782C115.265 56.8442 115.343 56.8979 115.433 56.937C115.522 56.9762 115.617 56.9948 115.718 56.9948C115.922 56.9948 116.095 56.9225 116.235 56.7782C116.379 56.6339 116.45 56.4586 116.45 56.2545C116.45 56.1514 116.431 56.0545 116.393 55.9659C116.355 55.875 116.303 55.7966 116.235 55.7266C116.171 55.6565 116.093 55.6029 116.003 55.5636C115.916 55.5266 115.819 55.5059 115.718 55.5059Z" fill="#00C194"/>
</svg>
