<svg width="164" height="107" viewBox="0 0 164 107" fill="none" xmlns="http://www.w3.org/2000/svg">
<path fill-rule="evenodd" clip-rule="evenodd" d="M7.14637 84.9811C6.8816 85.0219 6.61672 85.0518 6.35195 85.0737C6.08718 85.0926 5.8143 85.1145 5.52785 85.1363V90.8212H0.375V68.3523H5.53059C6.8113 68.3741 8.01109 68.6083 9.12975 69.0602C10.2484 69.5123 11.2292 70.1167 12.0723 70.8683C12.9153 71.6253 13.5773 72.5075 14.0556 73.5122C14.5339 74.5115 14.7716 75.5871 14.7716 76.7333C14.7716 77.9369 14.5176 79.0587 14.0096 80.0935C13.5016 81.1281 12.7882 82.0185 11.875 82.7782L16.8171 90.8212H10.7455L7.14637 84.9811ZM5.53059 79.911C6.07907 79.8892 6.60325 79.7939 7.10049 79.6197C7.59762 79.4454 8.0354 79.214 8.41098 78.9281C8.78657 78.6421 9.08102 78.3072 9.29454 77.9287C9.50796 77.5503 9.61603 77.1446 9.61603 76.7144C9.61603 76.284 9.50796 75.8839 9.29454 75.5162C9.08102 75.146 8.78657 74.8192 8.41098 74.5333C8.0354 74.2474 7.59762 74.0159 7.10049 73.8417C6.60325 73.6674 6.07907 73.5694 5.53059 73.5503V79.911Z" fill="#D4D9D8"/>
<path fill-rule="evenodd" clip-rule="evenodd" d="M30.8817 73.0169H22.4591V76.1356H29.291V80.8847H22.4591V84.1428H30.8817V88.8915H17.7463V68.2952L30.8817 68.2678V73.0169Z" fill="#D4D9D8"/>
<path fill-rule="evenodd" clip-rule="evenodd" d="M45.6054 88.8915L44.7978 86.3903H38.356L37.5186 88.8915H32.5269L39.4972 68.2678H43.9579L50.5676 88.8915H45.6054ZM39.9714 81.6438H43.2885L41.6708 76.6433L39.9714 81.6438Z" fill="#D4D9D8"/>
<path fill-rule="evenodd" clip-rule="evenodd" d="M64.733 88.8915H52.5486V68.2405H57.2612V84.1429H64.733V88.8915Z" fill="#D4D9D8"/>
<path fill-rule="evenodd" clip-rule="evenodd" d="M84.8114 73.0169H76.3887V76.1356H83.2204V80.8847H76.3887V84.1428H84.8114V88.8915H71.676V68.2952L84.8114 68.2678V73.0169Z" fill="#D4D9D8"/>
<path fill-rule="evenodd" clip-rule="evenodd" d="M93.9012 89.2847C93.2518 89.2847 92.6036 89.1956 91.9619 89.0183C91.3202 88.8394 90.7125 88.5633 90.1365 88.1899C89.1335 87.5352 88.3506 86.6865 87.7954 85.646C87.237 84.6057 86.9578 83.4681 86.9578 82.2312H91.6706C91.6706 82.7937 91.7922 83.2292 92.0342 83.5379C92.2762 83.8464 92.4886 84.058 92.6759 84.1702C93.0098 84.3942 93.3723 84.5161 93.7632 84.536C94.153 84.5558 94.533 84.4788 94.9064 84.3119C95.1659 84.1999 95.3761 84.058 95.5338 83.8913C95.6915 83.7221 95.813 83.5578 95.8973 83.3985C95.9817 83.2393 96.0331 83.0849 96.0496 82.9355C96.0704 82.7862 96.0769 82.6643 96.0769 82.5696C96.0769 82.4751 96.0671 82.3531 96.0496 82.2038C96.0331 82.0544 95.9817 81.8951 95.8973 81.7259C95.813 81.5566 95.6915 81.3924 95.5338 81.233C95.3761 81.0738 95.1659 80.9294 94.9064 80.7975C94.7016 80.7029 94.4837 80.6208 94.2516 80.5436C94.0194 80.4664 93.7719 80.3843 93.5135 80.2897C93.0492 80.1404 92.5642 79.9711 92.0638 79.7845C91.5622 79.5977 91.0607 79.3439 90.557 79.0254C89.9066 78.6121 89.358 78.0969 88.9123 77.4796C88.4645 76.8624 88.1458 76.1953 87.9509 75.4859C87.756 74.774 87.6914 74.0398 87.756 73.2807C87.8195 72.5215 88.0298 71.7972 88.3835 71.1028C88.7163 70.4655 89.1368 69.9129 89.6372 69.445C90.1387 68.977 90.6972 68.6062 91.3104 68.3349C91.9225 68.0637 92.585 67.8993 93.2912 67.8421C93.9975 67.7848 94.7137 67.8521 95.4374 68.0388C96.1437 68.208 96.781 68.4743 97.3515 68.8402C97.9264 69.2061 98.4213 69.6466 98.8341 70.1618C99.2513 70.6771 99.5722 71.2521 99.7912 71.8892C100.015 72.5265 100.126 73.1909 100.126 73.8854H95.4374C95.4374 73.4549 95.3017 73.1562 95.0323 72.987C94.7629 72.8177 94.5264 72.7057 94.3205 72.6509C94.2844 72.6509 94.1957 72.636 94.0567 72.6086C93.9176 72.5812 93.7599 72.5812 93.5825 72.6086C93.4051 72.636 93.2245 72.7031 93.0394 72.8052C92.8543 72.9072 92.7054 73.0715 92.5915 73.298C92.4437 73.5968 92.4163 73.9128 92.5072 74.2389C92.6014 74.5674 92.7875 74.8238 93.0668 75.0105C93.3263 75.1599 93.6143 75.2967 93.9307 75.4187C94.2472 75.5407 94.5801 75.6576 94.9337 75.7697C95.2491 75.8642 95.571 75.9663 95.8941 76.0782C96.2204 76.1902 96.5445 76.3222 96.8796 76.4716C98.0983 77.034 99.0553 77.8579 99.7474 78.9431C100.439 80.0284 100.788 81.2381 100.788 82.5671C100.788 83.8789 100.439 85.0786 99.7474 86.1638C99.0553 87.2491 98.0983 88.0754 96.8796 88.6356C96.401 88.8597 95.9094 89.0236 95.4079 89.1286C94.9064 89.2353 94.4027 89.2847 93.9012 89.2847Z" fill="#D4D9D8"/>
<path fill-rule="evenodd" clip-rule="evenodd" d="M115.12 68.1831V72.9322H111.19V88.8915H106.478V72.9322H102.573V68.1831H115.12Z" fill="#D4D9D8"/>
<path fill-rule="evenodd" clip-rule="evenodd" d="M129.427 88.8915L128.619 86.3903H122.177L121.341 88.8915H116.349L123.318 68.2678H127.779L134.387 88.8915H129.427ZM123.796 81.6438H127.112L125.495 76.6433L123.796 81.6438Z" fill="#D4D9D8"/>
<path fill-rule="evenodd" clip-rule="evenodd" d="M148.11 68.1831V72.9322H144.178V88.8915H139.465V72.9322H135.562V68.1831H148.11Z" fill="#D4D9D8"/>
<path fill-rule="evenodd" clip-rule="evenodd" d="M163.53 73.0169H155.109V76.1356H161.941V80.8847H155.109V84.1428H163.53V88.8915H150.396V68.2952L163.53 68.2678V73.0169Z" fill="#D4D9D8"/>
<path fill-rule="evenodd" clip-rule="evenodd" d="M3.55133 105.945L4.45295 103.724L1.79517 98.0488H3.77361L5.37176 101.452L6.73767 98.0488H8.67659L5.49024 105.945H3.55133Z" fill="#D4D9D8"/>
<path fill-rule="evenodd" clip-rule="evenodd" d="M17.6106 98.1008C18.1466 98.1008 18.6505 98.2031 19.1222 98.4097C19.5941 98.6169 20.0065 98.8959 20.3597 99.2465C20.7129 99.5971 20.9896 100.013 21.1946 100.488C21.3996 100.963 21.5008 101.474 21.5008 102.014C21.5008 102.554 21.3996 103.064 21.1946 103.54C20.9896 104.015 20.7129 104.431 20.3597 104.782C20.0065 105.133 19.5941 105.414 19.1222 105.618C18.6505 105.824 18.1466 105.927 17.6106 105.927C17.0747 105.927 16.5708 105.824 16.099 105.618C15.6272 105.412 15.2172 105.133 14.8665 104.782C14.5182 104.431 14.2416 104.015 14.0366 103.54C13.8316 103.064 13.7302 102.554 13.7302 102.014C13.7302 101.474 13.8316 100.967 14.0366 100.488C14.2416 100.013 14.5158 99.5971 14.8665 99.2465C15.2147 98.8959 15.6272 98.6136 16.099 98.4097C16.5708 98.2058 17.0747 98.1008 17.6106 98.1008ZM17.6155 104.13C17.9046 104.13 18.1763 104.075 18.4307 103.965C18.6851 103.856 18.9074 103.704 19.0976 103.512C19.2877 103.32 19.4384 103.097 19.5471 102.84C19.6558 102.584 19.7101 102.311 19.7101 102.019C19.7101 101.728 19.6558 101.454 19.5471 101.197C19.4384 100.941 19.2877 100.717 19.0976 100.525C18.9074 100.334 18.6851 100.183 18.4307 100.072C18.1763 99.9621 17.9046 99.908 17.6155 99.908C17.3266 99.908 17.0549 99.9621 16.8005 100.072C16.5461 100.183 16.3237 100.334 16.1335 100.525C15.9433 100.717 15.7927 100.941 15.684 101.197C15.5753 101.454 15.521 101.728 15.521 102.019C15.521 102.311 15.5753 102.584 15.684 102.84C15.7927 103.097 15.9433 103.32 16.1335 103.512C16.3237 103.704 16.5461 103.856 16.8005 103.965C17.0549 104.075 17.3266 104.13 17.6155 104.13Z" fill="#D4D9D8"/>
<path fill-rule="evenodd" clip-rule="evenodd" d="M29.5208 105.945C29.1256 105.945 28.7501 105.872 28.3995 105.725C28.0462 105.579 27.7325 105.372 27.4583 105.1C27.1767 104.817 26.9593 104.496 26.8063 104.139C26.6556 103.784 26.5741 103.403 26.5691 102.997V98.1008H28.3574V102.988C28.3574 103.301 28.4735 103.575 28.7057 103.809C28.9379 104.029 29.2145 104.139 29.5306 104.139C29.6862 104.139 29.8345 104.108 29.9753 104.043C30.1161 103.978 30.2396 103.893 30.3457 103.787C30.452 103.679 30.5335 103.554 30.5903 103.412C30.6471 103.271 30.6744 103.117 30.6744 102.954V98.1008H32.4625V102.946C32.4699 103.35 32.3983 103.734 32.2451 104.097C32.0946 104.461 31.8846 104.777 31.6202 105.046C31.356 105.316 31.0448 105.531 30.6891 105.69C30.3335 105.849 29.953 105.934 29.5504 105.941L29.5208 105.945Z" fill="#D4D9D8"/>
<path fill-rule="evenodd" clip-rule="evenodd" d="M40.4086 103.915C40.3171 103.93 40.2257 103.941 40.1343 103.948C40.0429 103.956 39.9466 103.963 39.8478 103.971V105.945H38.0596V98.146H39.8478C40.2924 98.1539 40.7098 98.236 41.0977 98.3932C41.4854 98.5486 41.8263 98.7581 42.1202 99.0194C42.4141 99.2841 42.6414 99.5895 42.8092 99.9379C42.9748 100.284 43.0587 100.658 43.0587 101.056C43.0587 101.474 42.9699 101.862 42.7946 102.222C42.619 102.582 42.3721 102.893 42.0535 103.154L43.7677 105.947H41.6608L40.4086 103.915ZM39.8478 102.156C40.038 102.149 40.2208 102.117 40.3937 102.054C40.5666 101.994 40.7172 101.915 40.8482 101.814C40.9791 101.715 41.0804 101.602 41.1544 101.469C41.2285 101.337 41.2656 101.197 41.2656 101.048C41.2656 100.899 41.2285 100.76 41.1544 100.632C41.0804 100.506 40.9791 100.391 40.8482 100.292C40.7172 100.191 40.5666 100.112 40.3937 100.053C40.2208 99.993 40.038 99.9577 39.8478 99.95V102.156Z" fill="#D4D9D8"/>
<path fill-rule="evenodd" clip-rule="evenodd" d="M55.3322 98.0815V99.8827H53.8404V105.945H52.0496V99.8827H50.5676V98.0815H55.3322Z" fill="#D4D9D8"/>
<path fill-rule="evenodd" clip-rule="evenodd" d="M65.0664 105.945L64.7602 104.995H62.3149L61.9963 105.945H60.1018L62.7496 98.1133H64.444L66.9536 105.945H65.0664ZM62.9275 103.191H64.1871L63.5722 101.293L62.9275 103.191Z" fill="#D4D9D8"/>
<path fill-rule="evenodd" clip-rule="evenodd" d="M78.3253 101.559V105.945H76.5247V105.752C76.327 105.824 76.1246 105.875 75.9171 105.906C75.7096 105.939 75.502 105.955 75.2971 105.955C74.7957 105.955 74.3066 105.858 73.8249 105.666C73.3458 105.474 72.9136 105.185 72.5332 104.801C72.1528 104.419 71.8688 103.985 71.681 103.505C71.4934 103.025 71.3994 102.531 71.3994 102.026C71.3994 101.521 71.4934 101.026 71.681 100.543C71.8688 100.06 72.1528 99.6247 72.5332 99.241C72.9136 98.8573 73.3458 98.5696 73.8249 98.3777C74.3042 98.1856 74.7957 98.0886 75.2971 98.0886C75.7985 98.0886 76.2876 98.1856 76.7692 98.3777C77.2485 98.5696 77.6807 98.8573 78.0611 99.241L76.7914 100.521C76.5864 100.314 76.3543 100.159 76.0924 100.058C75.8307 99.9555 75.5663 99.9037 75.2971 99.9037C75.0278 99.9037 74.7636 99.9555 74.5043 100.058C74.2425 100.159 74.0102 100.316 73.8052 100.521C73.6003 100.727 73.4447 100.961 73.3384 101.225C73.2322 101.489 73.1803 101.756 73.1803 102.024C73.1803 102.295 73.2322 102.562 73.3384 102.822C73.4447 103.087 73.6003 103.321 73.8052 103.527C73.988 103.712 74.1955 103.856 74.4251 103.96C74.6549 104.063 74.892 104.125 75.1341 104.142C75.3786 104.16 75.6182 104.138 75.8602 104.072C76.0998 104.007 76.3221 103.902 76.5271 103.752V103.355H74.9711V101.553H78.3253V101.559Z" fill="#D4D9D8"/>
<path fill-rule="evenodd" clip-rule="evenodd" d="M88.3266 105.945H83.698V98.1008H85.4883V104.139H88.3266V105.945Z" fill="#D4D9D8"/>
<path fill-rule="evenodd" clip-rule="evenodd" d="M95.3706 105.945H93.5803V98.1008H95.3706V105.945Z" fill="#D4D9D8"/>
<path fill-rule="evenodd" clip-rule="evenodd" d="M105.434 98.1113H107.222V105.944H105.286L102.743 101.377V105.944H100.955V98.1334H102.902L105.434 102.689V98.1113Z" fill="#D4D9D8"/>
<path fill-rule="evenodd" clip-rule="evenodd" d="M118.071 100.085H114.572V101.381H117.412V103.352H114.572V104.705H118.071V106.68H112.616V98.1249L118.071 98.1113V100.085Z" fill="#D4D9D8"/>
<path fill-rule="evenodd" clip-rule="evenodd" d="M128.703 98.1113H130.492V105.944H128.703V102.987H126.458V105.944H124.669V98.1113H126.458V101.185H128.703V98.1113Z" fill="#D4D9D8"/>
<path fill-rule="evenodd" clip-rule="evenodd" d="M140.787 99.9157H137.591V101.1H140.184V102.903H137.591V104.138H140.787V105.944H135.8V98.1237L140.787 98.1113V99.9157Z" fill="#D4D9D8"/>
<path fill-rule="evenodd" clip-rule="evenodd" d="M148.583 103.915C148.492 103.93 148.402 103.941 148.307 103.948C148.216 103.956 148.12 103.963 148.02 103.971V105.945H146.233V98.146H148.02C148.465 98.1539 148.883 98.236 149.271 98.3932C149.659 98.5486 149.999 98.7581 150.294 99.0194C150.587 99.2841 150.815 99.5895 150.982 99.9379C151.148 100.284 151.232 100.658 151.232 101.056C151.232 101.474 151.143 101.862 150.968 102.222C150.793 102.582 150.546 102.893 150.227 103.154L151.941 105.947H149.834L148.583 103.915ZM148.024 102.156C148.213 102.149 148.396 102.117 148.569 102.054C148.742 101.994 148.892 101.915 149.025 101.814C149.155 101.715 149.256 101.602 149.33 101.469C149.403 101.337 149.441 101.197 149.441 101.048C149.441 100.899 149.403 100.76 149.33 100.632C149.256 100.506 149.155 100.391 149.025 100.292C148.892 100.191 148.742 100.112 148.569 100.053C148.396 99.993 148.213 99.9577 148.024 99.95V102.156Z" fill="#D4D9D8"/>
<path fill-rule="evenodd" clip-rule="evenodd" d="M162.12 99.9157H158.921V101.1H161.517V102.903H158.921V104.138H162.12V105.944H157.133V98.1237L162.12 98.1113V99.9157Z" fill="#D4D9D8"/>
<path fill-rule="evenodd" clip-rule="evenodd" d="M26.1073 54.5308H23.3162V55.5662H25.5812V57.1394H23.3162V58.2195H26.1073V59.7927H21.7551V52.9677L26.1073 52.9578V54.5308Z" fill="#D4D9D8"/>
<path fill-rule="evenodd" clip-rule="evenodd" d="M29.4617 59.9246C29.2468 59.9246 29.0319 59.8947 28.8194 59.835C28.6071 59.7752 28.4045 59.6832 28.2144 59.5612C27.8809 59.3447 27.6216 59.0634 27.4388 58.7174C27.2559 58.3714 27.1621 57.9956 27.1621 57.5849H28.7231C28.7231 57.7716 28.7627 57.916 28.8441 58.0181C28.9232 58.1201 28.9949 58.1897 29.0567 58.2271C29.1678 58.3018 29.2888 58.3416 29.4173 58.3491C29.5457 58.3564 29.674 58.3316 29.7951 58.2744C29.8816 58.237 29.9507 58.1897 30.0025 58.1349C30.0545 58.0802 30.094 58.0255 30.1236 57.9732C30.1508 57.9209 30.1681 57.8687 30.1754 57.8188C30.1829 57.7691 30.1854 57.7293 30.1854 57.6969C30.1854 57.6646 30.1829 57.6248 30.1754 57.5749C30.1705 57.5252 30.1533 57.473 30.1236 57.4157C30.0965 57.3609 30.057 57.3061 30.0025 57.2539C29.9507 57.2016 29.8816 57.1518 29.7951 57.1094C29.7285 57.0796 29.6543 57.0498 29.5778 57.0249C29.5011 57 29.4197 56.9726 29.3332 56.9403C29.1801 56.8905 29.0196 56.8357 28.8516 56.7735C28.6861 56.7112 28.5182 56.6266 28.3527 56.5221C28.1378 56.3852 27.955 56.2159 27.8068 56.0093C27.6586 55.8053 27.5524 55.5837 27.4882 55.3473C27.4239 55.1108 27.4018 54.8668 27.4239 54.6155C27.4461 54.3641 27.5154 54.1226 27.6314 53.8937C27.7426 53.6821 27.8809 53.5004 28.0464 53.3436C28.2118 53.1893 28.397 53.0648 28.5996 52.9753C28.8022 52.8856 29.022 52.8308 29.2566 52.8134C29.4914 52.796 29.7285 52.8159 29.968 52.8781C30.2027 52.9329 30.4126 53.0224 30.6028 53.1445C30.793 53.2664 30.956 53.4108 31.0944 53.5826C31.2327 53.7543 31.3389 53.9434 31.4105 54.155C31.4846 54.3666 31.5216 54.5857 31.5216 54.8171H29.968C29.968 54.6752 29.9236 54.5756 29.8347 54.5184C29.7458 54.4636 29.6667 54.4263 29.5999 54.4064C29.5876 54.4064 29.5581 54.4014 29.5111 54.3914C29.4641 54.3816 29.4122 54.3816 29.353 54.3914C29.2937 54.4014 29.2344 54.4214 29.1726 54.4562C29.1109 54.491 29.0615 54.5458 29.0245 54.618C28.9751 54.7175 28.9652 54.8221 28.9973 54.9291C29.027 55.0386 29.0888 55.1233 29.1826 55.1855C29.269 55.2352 29.3654 55.2801 29.4691 55.3199C29.5729 55.3598 29.684 55.3995 29.8025 55.437C29.9087 55.4667 30.0125 55.5016 30.1211 55.5389C30.2299 55.5762 30.3361 55.6186 30.4472 55.6683C30.8498 55.8551 31.1684 56.1288 31.3982 56.4873C31.6278 56.8482 31.7439 57.2489 31.7439 57.6894C31.7439 58.1251 31.6278 58.5207 31.3982 58.8817C31.1684 59.2426 30.8523 59.5139 30.4472 59.7006C30.2891 59.7752 30.1261 59.83 29.9581 59.8624C29.7926 59.9072 29.6272 59.9246 29.4617 59.9246Z" fill="#D4D9D8"/>
<path fill-rule="evenodd" clip-rule="evenodd" d="M36.8344 52.9302V54.5033H35.5328V59.7924H33.9693V54.5033H32.6775V52.9302H36.8344Z" fill="#D4D9D8"/>
<path fill-rule="evenodd" clip-rule="evenodd" d="M39.386 52.9303C39.8355 52.9552 40.2603 53.0647 40.6555 53.2564C41.0532 53.4481 41.3989 53.6995 41.6904 54.0106C41.9844 54.3217 42.214 54.6802 42.3845 55.0908C42.5549 55.5015 42.639 55.9371 42.639 56.4051C42.639 56.8655 42.5549 57.2936 42.3894 57.6944C42.224 58.0951 41.9943 58.446 41.7003 58.7522C41.4089 59.0558 41.0631 59.2997 40.6703 59.484C40.2751 59.6681 39.8478 59.7702 39.386 59.7951H37.825V52.9204H39.386V52.9303ZM39.386 58.2096C39.6255 58.1847 39.8504 58.12 40.0554 58.0179C40.2627 57.9159 40.4407 57.7839 40.5912 57.6271C40.7419 57.4678 40.8605 57.2837 40.947 57.0721C41.0334 56.8605 41.0753 56.6366 41.0753 56.4026C41.0753 56.1612 41.0334 55.9296 40.947 55.7081C40.8605 55.4866 40.7395 55.2925 40.5863 55.1207C40.4332 54.949 40.2529 54.8095 40.0504 54.7026C39.8478 54.5931 39.6255 54.5283 39.386 54.5035V58.2096Z" fill="#D4D9D8"/>
<path fill-rule="evenodd" clip-rule="evenodd" d="M122.189 52.9404H123.751V59.7926H122.189V55.4343L121.728 56.0118L120.515 55.0162L122.189 52.9404Z" fill="#D4D9D8"/>
<path d="M127.281 57.8835C126.972 57.8536 126.682 57.7664 126.412 57.6271C126.139 57.4877 125.905 57.3085 125.704 57.092C125.504 56.8754 125.346 56.6239 125.232 56.3378C125.12 56.0516 125.063 55.7479 125.063 55.4243C125.063 55.0833 125.126 54.7622 125.258 54.461C125.386 54.1599 125.561 53.8985 125.783 53.6745C126.007 53.4505 126.265 53.2738 126.564 53.1443C126.863 53.0149 127.182 52.9478 127.52 52.9478C127.858 52.9478 128.177 53.0124 128.471 53.1443C128.767 53.2738 129.028 53.4505 129.247 53.6745C129.469 53.8985 129.644 54.1599 129.772 54.461C129.9 54.7622 129.967 55.0833 129.967 55.4243C129.967 55.7902 129.892 56.1436 129.736 56.4871L128.074 59.7926H126.327L127.281 57.8835ZM127.52 54.5232C127.396 54.5232 127.281 54.5456 127.175 54.593C127.066 54.6403 126.972 54.705 126.888 54.7896C126.804 54.8743 126.739 54.9689 126.693 55.0782C126.646 55.1878 126.624 55.3024 126.624 55.4268C126.624 55.5512 126.646 55.6682 126.693 55.7753C126.739 55.8848 126.804 55.9793 126.888 56.059C126.972 56.1387 127.066 56.2034 127.175 56.2507C127.283 56.2979 127.396 56.3203 127.52 56.3203C127.767 56.3203 127.978 56.2332 128.147 56.059C128.32 55.8848 128.407 55.6732 128.407 55.4268C128.407 55.3024 128.384 55.1853 128.338 55.0782C128.291 54.9689 128.229 54.8743 128.147 54.7896C128.069 54.705 127.974 54.6403 127.866 54.593C127.76 54.5456 127.644 54.5232 127.52 54.5232Z" fill="#D4D9D8"/>
<path d="M127.281 57.8835C126.972 57.8536 126.682 57.7664 126.412 57.6271C126.139 57.4877 125.905 57.3085 125.704 57.092C125.504 56.8754 125.346 56.6239 125.232 56.3378C125.12 56.0516 125.063 55.7479 125.063 55.4243C125.063 55.0833 125.126 54.7622 125.258 54.461C125.386 54.1599 125.561 53.8985 125.783 53.6745C126.007 53.4505 126.265 53.2738 126.564 53.1443C126.863 53.0149 127.182 52.9478 127.52 52.9478C127.858 52.9478 128.177 53.0124 128.471 53.1443C128.767 53.2738 129.028 53.4505 129.247 53.6745C129.469 53.8985 129.644 54.1599 129.772 54.461C129.9 54.7622 129.967 55.0833 129.967 55.4243C129.967 55.7902 129.892 56.1436 129.736 56.4871L128.074 59.7926H126.327L127.281 57.8835ZM127.52 54.5232C127.396 54.5232 127.281 54.5456 127.175 54.593C127.066 54.6403 126.972 54.705 126.888 54.7896C126.804 54.8743 126.739 54.9689 126.693 55.0782C126.646 55.1878 126.624 55.3024 126.624 55.4268C126.624 55.5512 126.646 55.6682 126.693 55.7753C126.739 55.8848 126.804 55.9793 126.888 56.059C126.972 56.1387 127.066 56.2034 127.175 56.2507C127.283 56.2979 127.396 56.3203 127.52 56.3203C127.767 56.3203 127.978 56.2332 128.147 56.059C128.32 55.8848 128.407 55.6732 128.407 55.4268C128.407 55.3024 128.384 55.1853 128.338 55.0782C128.291 54.9689 128.229 54.8743 128.147 54.7896C128.069 54.705 127.974 54.6403 127.866 54.593C127.76 54.5456 127.644 54.5232 127.52 54.5232Z" fill="#D4D9D8"/>
<path fill-rule="evenodd" clip-rule="evenodd" d="M133.369 57.8835C133.061 57.8536 132.77 57.7664 132.5 57.6271C132.228 57.4877 131.993 57.3085 131.793 57.092C131.593 56.8754 131.434 56.6239 131.322 56.3378C131.208 56.0516 131.151 55.7479 131.151 55.4243C131.151 55.0833 131.214 54.7622 131.347 54.461C131.475 54.1599 131.65 53.8985 131.871 53.6745C132.095 53.4505 132.354 53.2738 132.652 53.1443C132.952 53.0149 133.27 52.9478 133.609 52.9478C133.948 52.9478 134.266 53.0124 134.56 53.1443C134.856 53.2738 135.113 53.4505 135.335 53.6745C135.558 53.8985 135.733 54.1599 135.862 54.461C135.99 54.7622 136.056 55.0833 136.056 55.4243C136.056 55.7902 135.98 56.1436 135.824 56.4871L134.162 59.7926H132.416L133.369 57.8835ZM133.611 54.5232C133.488 54.5232 133.372 54.5456 133.265 54.593C133.157 54.6403 133.063 54.705 132.978 54.7896C132.894 54.8743 132.831 54.9689 132.784 55.0782C132.736 55.1878 132.715 55.3024 132.715 55.4268C132.715 55.5512 132.736 55.6682 132.784 55.7753C132.831 55.8848 132.894 55.9793 132.978 56.059C133.063 56.1387 133.157 56.2034 133.265 56.2507C133.374 56.2979 133.488 56.3203 133.611 56.3203C133.858 56.3203 134.068 56.2332 134.239 56.059C134.412 55.8848 134.498 55.6732 134.498 55.4268C134.498 55.3024 134.475 55.1853 134.429 55.0782C134.381 54.9689 134.32 54.8743 134.239 54.7896C134.16 54.705 134.066 54.6403 133.957 54.593C133.848 54.5456 133.735 54.5232 133.611 54.5232Z" fill="#D4D9D8"/>
<path fill-rule="evenodd" clip-rule="evenodd" d="M139.46 57.8835C139.152 57.8536 138.862 57.7664 138.591 57.6271C138.319 57.4877 138.084 57.3085 137.884 57.092C137.684 56.8754 137.526 56.6239 137.412 56.3378C137.299 56.0516 137.242 55.7479 137.242 55.4243C137.242 55.0833 137.306 54.7622 137.437 54.461C137.565 54.1599 137.741 53.8985 137.963 53.6745C138.186 53.4505 138.445 53.2738 138.744 53.1443C139.043 53.0149 139.361 52.9478 139.7 52.9478C140.038 52.9478 140.357 53.0124 140.651 53.1443C140.947 53.2738 141.206 53.4505 141.426 53.6745C141.649 53.8985 141.824 54.1599 141.952 54.461C142.08 54.7622 142.147 55.0833 142.147 55.4243C142.147 55.7902 142.07 56.1436 141.916 56.4871L140.254 59.7926H138.507L139.46 57.8835ZM139.7 54.5232C139.576 54.5232 139.46 54.5456 139.355 54.593C139.245 54.6403 139.152 54.705 139.068 54.7896C138.983 54.8743 138.919 54.9689 138.873 55.0782C138.826 55.1878 138.803 55.3024 138.803 55.4268C138.803 55.5512 138.826 55.6682 138.873 55.7753C138.919 55.8848 138.983 55.9793 139.068 56.059C139.152 56.1387 139.245 56.2034 139.355 56.2507C139.463 56.2979 139.576 56.3203 139.7 56.3203C139.946 56.3203 140.157 56.2332 140.327 56.059C140.5 55.8848 140.587 55.6732 140.587 55.4268C140.587 55.3024 140.564 55.1853 140.518 55.0782C140.47 54.9689 140.408 54.8743 140.327 54.7896C140.248 54.705 140.154 54.6403 140.046 54.593C139.939 54.5456 139.823 54.5232 139.7 54.5232Z" fill="#D4D9D8"/>
<path fill-rule="evenodd" clip-rule="evenodd" d="M60.0303 65.543V42.5835L71.1357 35.9314V15.5534L96.8917 0.128174V23.2618L107.997 29.9138V65.543H104.452V31.937L96.8917 27.4088V65.543H93.3461V25.285L85.7862 20.7568V27.1529V65.5402H82.2413V33.4264L74.6808 37.9546V65.543H71.1357V40.0785L63.5753 44.6066V65.543H60.0303ZM74.6808 33.8076L82.2413 29.2794V14.486L93.3461 21.138V6.39901L74.6808 17.5792V33.8076Z" fill="#D4D9D8"/>
</svg>
