<svg width="219" height="129" viewBox="0 0 219 129" fill="none" xmlns="http://www.w3.org/2000/svg">
<path fill-rule="evenodd" clip-rule="evenodd" d="M39.7638 115.757L40.5701 113.772L38.189 108.693H39.9629L41.3968 111.74L42.6214 108.693H44.3576L41.5001 115.757H39.7638Z" fill="#D4D9D8"/>
<path fill-rule="evenodd" clip-rule="evenodd" d="M52.3658 108.742C52.8472 108.742 53.2982 108.833 53.7215 109.018C54.145 109.203 54.5128 109.451 54.8303 109.768C55.1478 110.083 55.3947 110.455 55.5787 110.88C55.7626 111.306 55.8534 111.763 55.8534 112.247C55.8534 112.731 55.7626 113.184 55.5787 113.613C55.3947 114.038 55.1478 114.409 54.8303 114.725C54.5128 115.039 54.145 115.291 53.7215 115.476C53.2982 115.66 52.8472 115.752 52.3658 115.752C51.8846 115.752 51.4334 115.66 51.0101 115.476C50.5868 115.291 50.2189 115.042 49.9064 114.725C49.5939 114.411 49.347 114.038 49.1631 113.613C48.9791 113.187 48.8884 112.731 48.8884 112.247C48.8884 111.763 48.9791 111.308 49.1631 110.88C49.347 110.455 49.5939 110.085 49.9064 109.768C50.2189 109.454 50.5893 109.203 51.0101 109.018C51.4359 108.835 51.8846 108.742 52.3658 108.742ZM52.3709 114.135C52.6304 114.135 52.8749 114.087 53.1017 113.988C53.3284 113.888 53.5275 113.755 53.6989 113.582C53.8702 113.41 54.0038 113.209 54.1021 112.982C54.2004 112.754 54.2482 112.508 54.2482 112.247C54.2482 111.985 54.2004 111.74 54.1021 111.511C54.0038 111.284 53.8702 111.083 53.6989 110.911C53.5275 110.739 53.3284 110.605 53.1017 110.506C52.8749 110.406 52.6304 110.359 52.3709 110.359C52.1113 110.359 51.8669 110.406 51.6402 110.506C51.4133 110.605 51.2142 110.739 51.0429 110.911C50.8716 111.083 50.738 111.284 50.6397 111.511C50.5414 111.74 50.4936 111.985 50.4936 112.247C50.4936 112.508 50.5414 112.754 50.6397 112.982C50.738 113.209 50.8716 113.41 51.0429 113.582C51.2142 113.755 51.4133 113.888 51.6402 113.988C51.8695 114.087 52.1113 114.135 52.3709 114.135Z" fill="#D4D9D8"/>
<path fill-rule="evenodd" clip-rule="evenodd" d="M63.0428 115.757C62.6873 115.757 62.3523 115.691 62.0372 115.561C61.7198 115.432 61.44 115.244 61.1931 115.004C60.941 114.75 60.7446 114.464 60.6085 114.144C60.4724 113.825 60.4018 113.486 60.3943 113.123V108.742H61.9969V113.113C61.9969 113.392 62.1002 113.638 62.3094 113.849C62.5185 114.046 62.7655 114.144 63.0502 114.144C63.1888 114.144 63.3224 114.118 63.4485 114.059C63.5744 114.001 63.6853 113.924 63.781 113.831C63.8767 113.734 63.9499 113.623 64.0002 113.496C64.0506 113.369 64.0759 113.232 64.0759 113.086V108.742H65.6785V113.076C65.6835 113.438 65.6206 113.782 65.4844 114.107C65.3484 114.431 65.1619 114.715 64.9251 114.956C64.6882 115.197 64.4084 115.389 64.091 115.533C63.7709 115.676 63.4307 115.752 63.0704 115.757H63.0428Z" fill="#D4D9D8"/>
<path fill-rule="evenodd" clip-rule="evenodd" d="M72.8022 113.944C72.719 113.958 72.6384 113.968 72.5552 113.972C72.4721 113.981 72.3889 113.985 72.2982 113.993V115.759H70.6956V108.782H72.2982C72.6963 108.788 73.0693 108.861 73.4171 109.003C73.7647 109.142 74.0697 109.329 74.3318 109.566C74.5939 109.801 74.8005 110.075 74.9492 110.386C75.0979 110.695 75.1709 111.03 75.1709 111.388C75.1709 111.76 75.0927 112.11 74.9341 112.432C74.7753 112.754 74.5536 113.029 74.2688 113.265L75.8059 115.761H73.9185L72.8022 113.944ZM72.2982 112.368C72.4696 112.361 72.6309 112.333 72.7871 112.277C72.9434 112.223 73.0769 112.151 73.1953 112.062C73.3112 111.973 73.4045 111.868 73.47 111.753C73.5355 111.636 73.5708 111.509 73.5708 111.374C73.5708 111.241 73.5381 111.116 73.47 111.003C73.4045 110.888 73.3112 110.787 73.1953 110.699C73.0794 110.609 72.9434 110.539 72.7871 110.484C72.6309 110.429 72.4696 110.4 72.2982 110.391V112.368Z" fill="#D4D9D8"/>
<path fill-rule="evenodd" clip-rule="evenodd" d="M86.1777 108.724V110.336H84.8397V115.757H83.2345V110.336H81.9065V108.724H86.1777Z" fill="#D4D9D8"/>
<path fill-rule="evenodd" clip-rule="evenodd" d="M94.9043 115.757L94.6297 114.907H92.4373L92.1526 115.757H90.4541L92.8254 108.752H94.3449L96.5951 115.757H94.9043ZM92.9866 113.296H94.1156L93.5662 111.598L92.9866 113.296Z" fill="#D4D9D8"/>
<path fill-rule="evenodd" clip-rule="evenodd" d="M106.788 111.836V115.759H105.175V115.586C104.999 115.65 104.815 115.696 104.628 115.726C104.442 115.754 104.256 115.769 104.074 115.769C103.625 115.769 103.185 115.683 102.756 115.511C102.325 115.339 101.94 115.082 101.599 114.738C101.257 114.393 101.002 114.007 100.836 113.577C100.67 113.146 100.584 112.707 100.584 112.254C100.584 111.803 100.667 111.36 100.836 110.929C101.005 110.496 101.259 110.107 101.599 109.766C101.942 109.421 102.328 109.165 102.756 108.992C103.185 108.82 103.625 108.734 104.074 108.734C104.523 108.734 104.964 108.82 105.392 108.992C105.823 109.165 106.208 109.421 106.549 109.766L105.41 110.911C105.226 110.726 105.016 110.589 104.782 110.496C104.548 110.404 104.311 110.356 104.072 110.356C103.832 110.356 103.593 110.402 103.361 110.496C103.126 110.586 102.917 110.726 102.733 110.911C102.55 111.096 102.411 111.306 102.315 111.542C102.219 111.778 102.174 112.016 102.174 112.256C102.174 112.498 102.222 112.738 102.315 112.971C102.411 113.207 102.55 113.417 102.733 113.601C102.897 113.767 103.084 113.897 103.288 113.99C103.494 114.081 103.706 114.137 103.923 114.153C104.142 114.167 104.359 114.147 104.573 114.091C104.787 114.034 104.986 113.94 105.17 113.804V113.453H103.774V111.842H106.788V111.836Z" fill="#D4D9D8"/>
<path fill-rule="evenodd" clip-rule="evenodd" d="M115.751 115.757H111.604V108.742H113.209V114.144H115.751V115.757Z" fill="#D4D9D8"/>
<path fill-rule="evenodd" clip-rule="evenodd" d="M122.066 115.757H120.463V108.742H122.066V115.757Z" fill="#D4D9D8"/>
<path fill-rule="evenodd" clip-rule="evenodd" d="M131.085 108.752H132.69V115.757H130.954L128.677 111.671V115.757H127.07V108.772H128.817L131.085 112.848V108.752Z" fill="#D4D9D8"/>
<path fill-rule="evenodd" clip-rule="evenodd" d="M141.993 110.366H139.128V111.425H141.452V113.037H139.128V114.144H141.993V115.757H137.523V108.762L141.993 108.752V110.366Z" fill="#D4D9D8"/>
<path fill-rule="evenodd" clip-rule="evenodd" d="M151.945 108.752H153.547V115.757H151.945V113.113H149.931V115.757H148.329V108.752H149.931V111.502H151.945V108.752Z" fill="#D4D9D8"/>
<path fill-rule="evenodd" clip-rule="evenodd" d="M162.775 110.366H159.909V111.425H162.235V113.037H159.909V114.144H162.775V115.757H158.305V108.762L162.775 108.752V110.366Z" fill="#D4D9D8"/>
<path fill-rule="evenodd" clip-rule="evenodd" d="M169.765 113.944C169.682 113.958 169.601 113.968 169.519 113.972C169.435 113.981 169.349 113.985 169.262 113.993V115.759H167.659V108.782H169.262C169.659 108.788 170.033 108.861 170.38 109.003C170.728 109.142 171.032 109.329 171.294 109.566C171.557 109.801 171.763 110.075 171.913 110.386C172.061 110.695 172.137 111.03 172.137 111.388C172.137 111.76 172.058 112.11 171.9 112.432C171.741 112.754 171.519 113.029 171.234 113.265L172.771 115.761H170.885L169.765 113.944ZM169.262 112.368C169.433 112.361 169.594 112.333 169.75 112.277C169.906 112.223 170.039 112.151 170.159 112.062C170.275 111.973 170.368 111.868 170.433 111.753C170.499 111.636 170.533 111.509 170.533 111.374C170.533 111.241 170.501 111.116 170.433 111.003C170.368 110.888 170.275 110.787 170.159 110.699C170.042 110.609 169.906 110.539 169.75 110.484C169.597 110.429 169.433 110.4 169.262 110.391V112.368Z" fill="#D4D9D8"/>
<path fill-rule="evenodd" clip-rule="evenodd" d="M181.896 110.366H179.03V111.425H181.356V113.037H179.03V114.144H181.896V115.757H177.428V108.762L181.896 108.752V110.366Z" fill="#D4D9D8"/>
<path fill-rule="evenodd" clip-rule="evenodd" d="M38.398 77.4312V82.8342H33.9152V100.997H28.5403V82.8342H24.0901V77.4312H38.398Z" fill="#D4D9D8"/>
<path fill-rule="evenodd" clip-rule="evenodd" d="M47.7443 94.9226C47.4697 94.9657 47.1924 94.996 46.9178 95.0188C46.6431 95.0391 46.3557 95.0619 46.0584 95.0822V100.997H40.686V77.6238H46.0584C47.394 77.6441 48.6439 77.8899 49.8106 78.3588C50.9773 78.8276 52.0003 79.456 52.8798 80.2392C53.7592 81.0273 54.4472 81.9446 54.9461 82.9887C55.4451 84.0278 55.6945 85.1479 55.6945 86.3416C55.6945 87.5935 55.4299 88.7618 54.9008 89.8389C54.3717 90.916 53.6282 91.8434 52.6757 92.6316L57.8264 101H51.4989L47.7443 94.9226ZM46.061 89.6462C46.633 89.626 47.1798 89.5245 47.6989 89.3422C48.218 89.1622 48.6741 88.9214 49.0673 88.6224C49.4604 88.3234 49.7677 87.9787 49.9895 87.5833C50.2113 87.188 50.3221 86.7673 50.3221 86.3214C50.3221 85.8728 50.2113 85.4572 49.9895 85.0745C49.7677 84.6918 49.4604 84.3496 49.0673 84.0506C48.6741 83.7516 48.2206 83.5133 47.6989 83.3309C47.1798 83.1484 46.633 83.0496 46.061 83.0268V89.6462Z" fill="#D4D9D8"/>
<path fill-rule="evenodd" clip-rule="evenodd" d="M74.8029 82.9303H65.1995V86.4808H72.9911V91.8838H65.1995V95.5941H74.8029V100.997H59.8271V77.5603L74.8029 77.5273V82.9303Z" fill="#D4D9D8"/>
<path fill-rule="evenodd" clip-rule="evenodd" d="M92.1953 82.9303H82.5919V86.4808H90.3835V91.8838H82.5919V95.5941H92.1953V100.997H77.2195V77.5603L92.1953 77.5273V82.9303Z" fill="#D4D9D8"/>
<path fill-rule="evenodd" clip-rule="evenodd" d="M111.939 77.5273H117.313V100.997H111.939V92.1398H105.198V100.997H99.8257V77.5273H105.198V86.7368H111.939V77.5273Z" fill="#D4D9D8"/>
<path fill-rule="evenodd" clip-rule="evenodd" d="M130.077 77.4944C131.687 77.4944 133.199 77.8035 134.617 78.4219C136.031 79.0403 137.274 79.8766 138.332 80.9309C139.392 81.9851 140.225 83.2268 140.84 84.6562C141.454 86.0855 141.762 87.6087 141.762 89.228C141.762 90.8473 141.454 92.3729 140.84 93.7998C140.225 95.2291 139.392 96.4708 138.332 97.5251C137.271 98.5793 136.031 99.4182 134.617 100.034C133.197 100.652 131.687 100.962 130.077 100.962C128.466 100.962 126.954 100.652 125.536 100.034C124.123 99.4157 122.887 98.5793 121.837 97.5251C120.788 96.4708 119.962 95.2291 119.347 93.7998C118.732 92.3704 118.425 90.8473 118.425 89.228C118.425 87.6087 118.732 86.0829 119.347 84.6562C119.962 83.2268 120.788 81.9851 121.837 80.9309C122.885 79.8766 124.12 79.0378 125.536 78.4219C126.958 77.8035 128.466 77.4944 130.077 77.4944ZM130.095 95.561C130.963 95.561 131.78 95.3963 132.544 95.0643C133.307 94.7349 133.975 94.2813 134.547 93.7059C135.119 93.1307 135.571 92.4591 135.897 91.6912C136.226 90.9234 136.391 90.1022 136.391 89.228C136.391 88.3537 136.228 87.5326 135.897 86.7646C135.571 85.9967 135.119 85.3252 134.547 84.7499C133.975 84.1747 133.307 83.721 132.544 83.3916C131.78 83.0621 130.963 82.8949 130.095 82.8949C129.225 82.8949 128.408 83.0596 127.645 83.3916C126.882 83.721 126.214 84.1747 125.642 84.7499C125.07 85.3252 124.619 85.9967 124.291 86.7646C123.964 87.5326 123.797 88.3537 123.797 89.228C123.797 90.1022 123.962 90.9234 124.291 91.6912C124.619 92.4591 125.07 93.1307 125.642 93.7059C126.214 94.2813 126.882 94.7349 127.645 95.0643C128.408 95.3963 129.225 95.561 130.095 95.561Z" fill="#D4D9D8"/>
<path fill-rule="evenodd" clip-rule="evenodd" d="M152.254 100.997C151.068 100.997 149.944 100.779 148.885 100.341C147.824 99.9049 146.882 99.2814 146.056 98.4704C145.209 97.6189 144.557 96.6585 144.1 95.5915C143.644 94.5246 143.405 93.3842 143.384 92.1703V77.4945H148.757V92.1398C148.757 93.0776 149.107 93.8986 149.805 94.6032C150.506 95.2646 151.332 95.5941 152.285 95.5941C152.752 95.5941 153.197 95.4978 153.621 95.3052C154.044 95.1126 154.414 94.8566 154.735 94.5373C155.052 94.2179 155.296 93.8454 155.465 93.4172C155.634 92.9915 155.719 92.5328 155.719 92.041V77.4919H161.091V92.0081C161.113 93.222 160.895 94.3751 160.44 95.4623C159.983 96.5495 159.359 97.4973 158.564 98.3082C157.771 99.1192 156.836 99.763 155.767 100.242C154.696 100.721 153.557 100.972 152.35 100.995L152.254 100.997Z" fill="#D4D9D8"/>
<path fill-rule="evenodd" clip-rule="evenodd" d="M171.237 101.446C170.496 101.446 169.758 101.344 169.026 101.142C168.296 100.939 167.601 100.625 166.945 100.199C165.802 99.4537 164.909 98.4882 164.274 97.3047C163.64 96.1212 163.322 94.8261 163.322 93.4196H168.695C168.695 94.0583 168.833 94.555 169.108 94.9073C169.382 95.2596 169.627 95.4977 169.838 95.6269C170.219 95.883 170.633 96.0224 171.079 96.0426C171.524 96.0629 171.958 95.9793 172.382 95.7867C172.678 95.6574 172.915 95.4977 173.097 95.3076C173.278 95.1151 173.414 94.9301 173.511 94.7476C173.606 94.5652 173.664 94.3903 173.685 94.2205C173.704 94.0507 173.716 93.9114 173.716 93.805C173.716 93.6984 173.707 93.5591 173.685 93.3893C173.664 93.2195 173.602 93.037 173.511 92.8444C173.414 92.6518 173.276 92.4668 173.097 92.2844C172.918 92.1018 172.678 91.9372 172.382 91.7877C172.146 91.6812 171.9 91.5849 171.633 91.4987C171.368 91.4125 171.086 91.3188 170.792 91.2098C170.262 91.04 169.71 90.8474 169.138 90.6345C168.565 90.4216 167.994 90.1328 167.422 89.7703C166.681 89.3015 166.054 88.7161 165.548 88.0116C165.037 87.3071 164.673 86.552 164.452 85.7409C164.229 84.9299 164.154 84.0937 164.229 83.232C164.302 82.3678 164.542 81.5417 164.945 80.7535C165.325 80.0287 165.804 79.4003 166.377 78.868C166.948 78.3359 167.583 77.9151 168.284 77.606C168.984 77.2968 169.735 77.1093 170.542 77.0459C171.348 76.9826 172.163 77.056 172.991 77.2689C173.797 77.4615 174.522 77.7656 175.173 78.1813C175.831 78.5968 176.393 79.0986 176.865 79.6841C177.341 80.2695 177.705 80.9258 177.955 81.6506C178.21 82.3754 178.335 83.1331 178.335 83.9212H172.988C172.988 83.4321 172.835 83.0901 172.527 82.8975C172.22 82.7049 171.95 82.5782 171.716 82.5148C171.673 82.5148 171.572 82.4996 171.414 82.4667C171.255 82.4337 171.073 82.4337 170.872 82.4667C170.67 82.4996 170.463 82.573 170.252 82.6897C170.039 82.8063 169.872 82.9938 169.743 83.2498C169.574 83.5918 169.541 83.9467 169.647 84.3217C169.752 84.6944 169.965 84.9882 170.282 85.2011C170.579 85.3709 170.908 85.5255 171.268 85.6649C171.627 85.8043 172.008 85.9361 172.412 86.0653C172.771 86.1718 173.137 86.2883 173.508 86.4175C173.877 86.5442 174.249 86.6939 174.631 86.8661C176.02 87.5048 177.111 88.4424 177.903 89.6792C178.691 90.9159 179.09 92.2894 179.09 93.805C179.09 95.2975 178.691 96.661 177.903 97.8978C177.114 99.1344 176.02 100.072 174.631 100.711C174.084 100.967 173.523 101.154 172.95 101.271C172.382 101.387 171.809 101.446 171.237 101.446Z" fill="#D4D9D8"/>
<path fill-rule="evenodd" clip-rule="evenodd" d="M196.005 82.9303H186.402V86.4808H194.194V91.8838H186.402V95.5941H196.005V100.997H181.029V77.5603L196.005 77.5273V82.9303Z" fill="#D4D9D8"/>
<path fill-rule="evenodd" clip-rule="evenodd" d="M103.114 51.5512H108.706V57.1722H103.114V51.5512ZM111.309 35.3751C111.42 37.5749 112.382 43.2997 119.425 43.2997C120.12 43.2997 120.688 43.8674 120.688 44.5693C120.688 45.2688 120.124 45.839 119.425 45.839C115.381 45.839 112.869 44.4022 111.309 42.5471V44.572C111.309 45.274 110.744 45.8417 110.046 45.8417C109.351 45.8417 108.784 45.274 108.784 44.572V42.5496C107.224 44.4047 104.712 45.8417 100.67 45.8417C99.9743 45.8417 99.4073 45.274 99.4073 44.572C99.4073 43.87 99.9718 43.3022 100.67 43.3022C107.71 43.3022 108.673 37.5749 108.784 35.3777V35.2231C108.774 34.886 108.779 34.6402 108.784 34.5084V33.1172C107.224 34.9721 104.712 36.4091 100.67 36.4091C99.9743 36.4091 99.4073 35.8414 99.4073 35.1394C99.4073 34.4399 99.9718 33.8698 100.67 33.8698C107.71 33.8698 108.673 28.1424 108.784 25.9452V25.7881C108.774 25.451 108.779 25.2027 108.784 25.0733V23.6847C107.224 25.5397 104.712 26.9767 100.67 26.9767C99.9743 26.9767 99.4073 26.409 99.4073 25.707C99.4073 25.0075 99.9718 24.4374 100.67 24.4374C107.71 24.4374 108.673 18.7099 108.784 16.5127V16.3581C108.774 16.0211 108.779 15.7752 108.784 15.6434V15.603C108.784 14.9035 109.348 14.3333 110.046 14.3333C110.744 14.3333 111.309 14.901 111.309 15.603V15.6434C111.313 15.7728 111.319 16.0211 111.309 16.3581V16.5127C111.42 18.7124 112.382 24.4374 119.425 24.4374C120.12 24.4374 120.688 25.005 120.688 25.707C120.688 26.4064 120.124 26.9767 119.425 26.9767C115.381 26.9767 112.869 25.5397 111.309 23.6847V25.076C111.313 25.2052 111.319 25.4535 111.309 25.7905V25.9452C111.42 28.145 112.382 33.8698 119.425 33.8698C120.12 33.8698 120.688 34.4375 120.688 35.1394C120.688 35.8389 120.124 36.4091 119.425 36.4091C115.381 36.4091 112.869 34.9721 111.309 33.1172V34.5084C111.313 34.6376 111.319 34.886 111.309 35.2231V35.3751ZM158.368 45.0888C158.478 47.2887 159.441 53.0135 166.485 53.0135C167.18 53.0135 167.747 53.5812 167.747 54.2832C167.747 54.9826 167.182 55.5528 166.485 55.5528C162.44 55.5528 159.927 54.1159 158.368 52.2608V64.9879C158.368 65.6874 157.804 66.2575 157.105 66.2575C156.41 66.2575 155.844 65.6898 155.844 64.9879V52.2608C154.283 54.1159 151.77 55.5528 147.729 55.5528C147.033 55.5528 146.466 54.9851 146.466 54.2832C146.466 53.5838 147.031 53.0135 147.729 53.0135C154.77 53.0135 155.732 47.286 155.844 45.0888V44.9344C155.833 44.5972 155.838 44.3514 155.844 44.2197V42.8284C154.283 44.6834 151.77 46.1204 147.729 46.1204C147.033 46.1204 146.466 45.5527 146.466 44.8507C146.466 44.1512 147.031 43.581 147.729 43.581C154.77 43.581 155.732 37.8536 155.844 35.6564V35.5018C155.833 35.1648 155.838 34.919 155.844 34.7872V33.3959C154.283 35.2509 151.77 36.6879 147.729 36.6879C147.033 36.6879 146.466 36.1201 146.466 35.4182C146.466 34.7162 147.031 34.1485 147.729 34.1485C154.77 34.1485 155.732 28.4212 155.844 26.224V26.0694C155.833 25.7323 155.838 25.4839 155.844 25.3547V25.3141C155.844 24.6147 156.407 24.0444 157.105 24.0444C157.804 24.0444 158.368 24.6121 158.368 25.3141V25.3547C158.373 25.4839 158.379 25.7323 158.368 26.0694V26.224C158.478 28.4237 159.441 34.1485 166.485 34.1485C167.18 34.1485 167.747 34.7162 167.747 35.4182C167.747 36.1176 167.182 36.6879 166.485 36.6879C162.44 36.6879 159.927 35.2509 158.368 33.3959V34.7872C158.373 34.9165 158.379 35.1648 158.368 35.5018V35.6564C158.478 37.8561 159.441 43.581 166.485 43.581C167.18 43.581 167.747 44.1487 167.747 44.8507C167.747 45.5501 167.182 46.1204 166.485 46.1204C162.44 46.1204 159.927 44.6834 158.368 42.8284V44.2197C158.373 44.3489 158.379 44.5972 158.368 44.9344V45.0888ZM134.285 35.3751C134.396 37.5749 135.361 43.2997 142.401 43.2997C143.097 43.2997 143.664 43.8674 143.664 44.5693C143.664 45.2688 143.1 45.839 142.401 45.839C138.358 45.839 135.846 44.4022 134.285 42.5471V64.9903C134.285 65.6898 133.72 66.2601 133.023 66.2601C132.327 66.2601 131.76 65.6923 131.76 64.9903V42.5471C130.201 44.4022 127.688 45.839 123.646 45.839C122.951 45.839 122.384 45.2714 122.384 44.5693C122.384 43.8674 122.948 43.2997 123.646 43.2997C130.687 43.2997 131.65 37.5723 131.76 35.3751V35.2206C131.749 34.8835 131.755 34.6376 131.76 34.5059V33.1145C130.201 34.9696 127.688 36.4066 123.646 36.4066C122.951 36.4066 122.384 35.8389 122.384 35.1369C122.384 34.4375 122.948 33.8673 123.646 33.8673C130.687 33.8673 131.65 28.1398 131.76 25.9426V25.7881C131.749 25.451 131.755 25.2027 131.76 25.0733V23.6847C130.201 25.5397 127.688 26.9767 123.646 26.9767C122.951 26.9767 122.384 26.409 122.384 25.707C122.384 25.0075 122.948 24.4374 123.646 24.4374C130.687 24.4374 131.65 18.7099 131.76 16.5127V16.3581C131.749 16.0211 131.755 15.7752 131.76 15.6434V15.603C131.76 14.9035 132.325 14.3333 133.023 14.3333C133.72 14.3333 134.285 14.901 134.285 15.603V15.6434C134.29 15.7728 134.295 16.0211 134.285 16.3581V16.5127C134.396 18.7124 135.361 24.4374 142.401 24.4374C143.097 24.4374 143.664 25.005 143.664 25.707C143.664 26.4064 143.1 26.9767 142.401 26.9767C138.358 26.9767 135.846 25.5397 134.285 23.6847V25.076C134.29 25.2052 134.295 25.4535 134.285 25.7905V25.9452C134.396 28.145 135.361 33.8698 142.401 33.8698C143.097 33.8698 143.664 34.4375 143.664 35.1394C143.664 35.8389 143.1 36.4091 142.401 36.4091C138.358 36.4091 135.846 34.9721 134.285 33.1172V34.5084C134.29 34.6376 134.295 34.886 134.285 35.2231V35.3751ZM88.3323 35.3751C88.4432 37.5749 89.4058 43.2997 96.4488 43.2997C97.1444 43.2997 97.7114 43.8674 97.7114 44.5693C97.7114 45.2688 97.1469 45.839 96.4488 45.839C92.4044 45.839 89.8921 44.4022 88.3323 42.5471V64.9903C88.3323 65.6898 87.7679 66.2601 87.0698 66.2601C86.3743 66.2601 85.8073 65.6923 85.8073 64.9903V42.5471C84.2476 44.4022 81.7352 45.839 77.6933 45.839C76.9978 45.839 76.4308 45.2714 76.4308 44.5693C76.4308 43.8674 76.9953 43.2997 77.6933 43.2997C84.7339 43.2997 85.6965 37.5723 85.8073 35.3751V35.2206C85.7973 34.8835 85.8024 34.6376 85.8073 34.5059V33.1145C84.2476 34.9696 81.7352 36.4066 77.6933 36.4066C76.9978 36.4066 76.4308 35.8389 76.4308 35.1369C76.4308 34.4375 76.9953 33.8673 77.6933 33.8673C84.7339 33.8673 85.6965 28.1398 85.8073 25.9426V25.7881C85.7973 25.451 85.8024 25.2027 85.8073 25.0733V23.6847C84.2476 25.5397 81.7352 26.9767 77.6933 26.9767C76.9978 26.9767 76.4308 26.409 76.4308 25.707C76.4308 25.0075 76.9953 24.4374 77.6933 24.4374C84.7339 24.4374 85.6965 18.7099 85.8073 16.5127V16.3581C85.7973 16.0211 85.8024 15.7752 85.8073 15.6434V15.603C85.8073 14.9035 86.3719 14.3333 87.0698 14.3333C87.7654 14.3333 88.3323 14.901 88.3323 15.603V15.6434C88.3374 15.7728 88.3424 16.0211 88.3323 16.3581V16.5127C88.4432 18.7124 89.4058 24.4374 96.4488 24.4374C97.1444 24.4374 97.7114 25.005 97.7114 25.707C97.7114 26.4064 97.1469 26.9767 96.4488 26.9767C92.4044 26.9767 89.8921 25.5397 88.3323 23.6847V25.076C88.3374 25.2052 88.3424 25.4535 88.3323 25.7905V25.9452C88.4432 28.145 89.4058 33.8698 96.4488 33.8698C97.1444 33.8698 97.7114 34.4375 97.7114 35.1394C97.7114 35.8389 97.1469 36.4091 96.4488 36.4091C92.4044 36.4091 89.8921 34.9721 88.3323 33.1172V34.5084C88.3374 34.6376 88.3424 34.886 88.3323 35.2231V35.3751ZM64.2496 45.0888C64.3605 47.2887 65.3256 53.0135 72.3662 53.0135C73.0617 53.0135 73.6287 53.5812 73.6287 54.2832C73.6287 54.9826 73.0642 55.5528 72.3662 55.5528C68.3218 55.5528 65.8094 54.1159 64.2496 52.2608V64.9879C64.2496 65.6874 63.6852 66.2575 62.9872 66.2575C62.2917 66.2575 61.7246 65.6898 61.7246 64.9879V52.2608C60.1648 54.1159 57.6525 55.5528 53.6106 55.5528C52.9151 55.5528 52.3481 54.9851 52.3481 54.2832C52.3481 53.5838 52.9126 53.0135 53.6106 53.0135C60.6512 53.0135 61.6138 47.286 61.7246 45.0888V44.9344C61.7147 44.5972 61.7197 44.3514 61.7246 44.2197V42.8284C60.1648 44.6834 57.6525 46.1204 53.6106 46.1204C52.9151 46.1204 52.3481 45.5527 52.3481 44.8507C52.3481 44.1512 52.9126 43.581 53.6106 43.581C60.6512 43.581 61.6138 37.8536 61.7246 35.6564V35.5018C61.7147 35.1648 61.7197 34.919 61.7246 34.7872V33.3959C60.1648 35.2509 57.6525 36.6879 53.6106 36.6879C52.9151 36.6879 52.3481 36.1201 52.3481 35.4182C52.3481 34.7162 52.9126 34.1485 53.6106 34.1485C60.6512 34.1485 61.6138 28.4212 61.7246 26.224V26.0694C61.7147 25.7323 61.7197 25.4839 61.7246 25.3547V25.3141C61.7246 24.6147 62.2892 24.0444 62.9872 24.0444C63.6826 24.0444 64.2496 24.6121 64.2496 25.3141V25.3547C64.2547 25.4839 64.2598 25.7323 64.2496 26.0694V26.224C64.3605 28.4237 65.3256 34.1485 72.3662 34.1485C73.0617 34.1485 73.6287 34.7162 73.6287 35.4182C73.6287 36.1176 73.0642 36.6879 72.3662 36.6879C68.3218 36.6879 65.8094 35.2509 64.2496 33.3959V34.7872C64.2547 34.9165 64.2598 35.1648 64.2496 35.5018V35.6564C64.3605 37.8561 65.3256 43.581 72.3662 43.581C73.0617 43.581 73.6287 44.1487 73.6287 44.8507C73.6287 45.5501 73.0642 46.1204 72.3662 46.1204C68.3218 46.1204 65.8094 44.6834 64.2496 42.8284V44.2197C64.2547 44.3489 64.2598 44.5972 64.2496 44.9344V45.0888ZM111.39 51.5512H116.978V57.1722H111.39V51.5512ZM103.114 59.3669H108.706V64.9879H103.114V59.3669ZM111.39 59.3669H116.978V64.9879H111.39V59.3669Z" fill="#D4D9D8"/>
</svg>
