<svg width="18" height="18" viewBox="0 0 18 18" fill="none" xmlns="http://www.w3.org/2000/svg">
<path d="M17.9849 1.51722V4.51722C17.9849 4.71613 17.9059 4.9069 17.7652 5.04755C17.6246 5.1882 17.4338 5.26722 17.2349 5.26722C17.036 5.26722 16.8452 5.1882 16.7046 5.04755C16.5639 4.9069 16.4849 4.71613 16.4849 4.51722V2.59497L12.5099 6.54897C12.3681 6.68524 12.1784 6.76035 11.9817 6.75811C11.785 6.75586 11.5971 6.67645 11.4584 6.53698C11.3198 6.39751 11.2414 6.20914 11.2403 6.01246C11.2392 5.81578 11.3153 5.62653 11.4524 5.48547L15.4424 1.51722H13.4849C13.286 1.51722 13.0952 1.4382 12.9546 1.29755C12.8139 1.1569 12.7349 0.966134 12.7349 0.767221C12.7349 0.568309 12.8139 0.377544 12.9546 0.236891C13.0952 0.096239 13.286 0.0172213 13.4849 0.0172213H16.4849C16.8827 0.0172213 17.2643 0.175257 17.5456 0.456561C17.8269 0.737866 17.9849 1.1194 17.9849 1.51722ZM17.3062 12.5715C17.7408 13.0073 17.9849 13.5977 17.9849 14.2132C17.9849 14.8287 17.7408 15.4191 17.3062 15.855L16.6222 16.6425C10.4789 22.521 -4.46785 7.57872 1.32215 1.41747L2.1839 0.667471C2.62047 0.24505 3.20566 0.011267 3.81311 0.0165993C4.42057 0.0219315 5.00156 0.265951 5.43065 0.695971C5.45315 0.719221 6.8429 2.52522 6.8429 2.52522C7.25515 2.95831 7.4847 3.53357 7.48387 4.1315C7.48303 4.72942 7.25186 5.30404 6.8384 5.73597L5.96915 6.82872C6.44979 7.99655 7.15645 9.05791 8.04853 9.95179C8.94061 10.8457 10.0005 11.5545 11.1674 12.0375L12.2661 11.1637C12.698 10.7505 13.2725 10.5194 13.8702 10.5186C14.468 10.5178 15.0431 10.7472 15.4761 11.1592C15.4761 11.1592 17.2829 12.549 17.3062 12.5715ZM16.2749 13.662C16.2749 13.662 14.4801 12.2805 14.4569 12.258C14.3024 12.1048 14.0936 12.0188 13.876 12.0188C13.6584 12.0188 13.4497 12.1048 13.2951 12.258C13.2749 12.2775 11.7621 13.4835 11.7621 13.4835C11.6602 13.5646 11.5389 13.6178 11.4101 13.6378C11.2814 13.6578 11.1496 13.6439 11.0279 13.5975C9.51531 13.035 8.14144 12.1537 6.99954 11.0133C5.85764 9.87297 4.97444 8.5003 4.4099 6.98847C4.36051 6.86556 4.34456 6.73176 4.36366 6.60068C4.38276 6.46961 4.43624 6.34593 4.51865 6.24222C4.51865 6.24222 5.7239 4.72947 5.74415 4.70922C5.89735 4.55471 5.98331 4.34593 5.98331 4.12835C5.98331 3.91076 5.89735 3.70198 5.74415 3.54747C5.72165 3.52497 4.34015 1.72947 4.34015 1.72947C4.18342 1.58875 3.9788 1.51331 3.76823 1.51861C3.55767 1.52391 3.3571 1.60955 3.20765 1.75797L2.3459 2.50797C-1.8871 7.59447 11.0676 19.8315 15.5249 15.6195L16.2089 14.832C16.3702 14.684 16.4673 14.4789 16.4796 14.2604C16.4919 14.0419 16.4185 13.8272 16.2749 13.662Z" fill="#00C194"/>
</svg>
